<svg width="40" height="40" viewBox="0 0 40 40" fill="none" xmlns="http://www.w3.org/2000/svg">
<g clip-path="url(#clip0_0_1454)">
<path d="M19.8918 39.18C30.6614 39.18 39.3918 30.4495 39.3918 19.68C39.3918 8.91044 30.6614 0.179993 19.8918 0.179993C9.12229 0.179993 0.391846 8.91044 0.391846 19.68C0.391846 30.4495 9.12229 39.18 19.8918 39.18Z" fill="#3B5998"/>
<path d="M24.794 20.4434H21.3145V33.1908H16.0427V20.4434H13.5354V15.9634H16.0427V13.0644C16.0427 10.9913 17.0274 7.74498 21.3614 7.74498L25.2664 7.76132V12.1099H22.4331C21.9683 12.1099 21.3148 12.3421 21.3148 13.331V15.9676H25.2546L24.794 20.4434Z" fill="white"/>
</g>
<defs>
<clipPath id="clip0_0_1454">
<rect width="39" height="39" fill="white" transform="translate(0.391846 0.179993)"/>
</clipPath>
</defs>
</svg>
