<svg width="131" height="26" viewBox="0 0 131 26" fill="none" xmlns="http://www.w3.org/2000/svg">
<g clip-path="url(#clip0_1038_1160)">
<path d="M97.8719 6.69004C98.891 6.69004 99.8162 6.81966 100.648 7.07889C101.479 7.33813 102.181 7.67335 102.753 8.08455C103.11 8.33485 103.392 8.61196 103.597 8.9159C103.803 9.21983 103.906 9.61315 103.906 10.0959V19.482L103.901 19.7372C103.872 20.5772 103.695 21.3101 103.37 21.9358C103.012 22.6241 102.525 23.1962 101.908 23.6521C101.291 24.108 100.567 24.4433 99.7358 24.6578C98.9044 24.8723 98.015 24.9796 97.0674 24.9796C95.4405 24.9796 94.1622 24.7606 93.2325 24.3226C92.3028 23.8846 91.838 23.1739 91.838 22.1906C91.838 21.7794 91.9229 21.4174 92.0928 21.1045C92.2626 20.7916 92.4548 20.5547 92.6693 20.3938C93.1878 20.6799 93.7733 20.9212 94.4259 21.1179C95.0784 21.3146 95.7534 21.4129 96.4506 21.4129C97.416 21.4129 98.1848 21.252 98.7569 20.9302C99.329 20.6084 99.6151 20.0899 99.6151 19.3747V18.9457L99.4112 19.0294C98.7182 19.2954 97.8923 19.4284 96.9333 19.4284C96.1288 19.4284 95.3645 19.3077 94.6404 19.0663C93.9163 18.825 93.2817 18.4495 92.7364 17.94C92.1911 17.4305 91.7531 16.7734 91.4223 15.9689C91.0916 15.1644 90.9262 14.2079 90.9262 13.0994C90.9262 12.0089 91.1005 11.0613 91.4491 10.2568C91.7978 9.45225 92.2805 8.78628 92.8973 8.25887C93.5141 7.73145 94.2471 7.33813 95.0963 7.07889C95.9455 6.81966 96.8707 6.69004 97.8719 6.69004ZM25.6866 7.10636C27.2809 7.10636 28.5856 7.46412 29.6005 8.17963C30.6155 8.89515 31.2163 10.159 31.4029 11.9711H27.9964L27.9638 11.7706C27.8867 11.3754 27.7381 11.0145 27.5181 10.6878C27.1448 10.1745 26.5654 9.91787 25.7799 9.91787C24.66 9.91787 23.8939 10.474 23.4817 11.5861C23.2639 12.1772 23.155 12.9627 23.155 13.9426C23.155 14.8759 23.2639 15.6264 23.4817 16.1942C23.8783 17.2519 24.625 17.7808 25.7216 17.7808C26.4993 17.7808 27.0515 17.5708 27.3781 17.1508C27.7048 16.7308 27.9031 16.1864 27.9731 15.5176H31.3679L31.3449 15.7499C31.2322 16.6755 30.8744 17.5546 30.2713 18.3874C29.2292 19.8418 27.6854 20.5689 25.6399 20.5689C23.5945 20.5689 22.0896 19.9623 21.1252 18.749C20.1608 17.5358 19.6786 15.9609 19.6786 14.0243C19.6786 11.8389 20.2113 10.1395 21.2768 8.92626C22.3423 7.71299 23.8122 7.10636 25.6866 7.10636ZM56.5835 7.07136C57.6413 7.07136 58.594 7.26968 59.4417 7.66633C60.2894 8.06297 60.9894 8.68905 61.5416 9.54456C62.0393 10.299 62.3621 11.1739 62.5099 12.1694C62.5954 12.7527 62.6304 13.5927 62.6149 14.6893H53.912L53.9239 14.9104C54.007 16.0687 54.4036 16.8893 55.1136 17.3725C55.5725 17.6913 56.1247 17.8508 56.7702 17.8508C57.4546 17.8508 58.0107 17.6563 58.4384 17.2675C58.6717 17.0575 58.8779 16.7658 59.0567 16.3925H62.4515L62.4263 16.5668C62.3038 17.2648 61.9194 17.9728 61.2733 18.6907C60.1844 19.9273 58.6601 20.5456 56.7002 20.5456C55.0825 20.5456 53.6554 20.0245 52.4188 18.9824C51.1822 17.9402 50.5639 16.2447 50.5639 13.896C50.5639 11.695 51.1219 10.0073 52.2379 8.83293C53.354 7.65855 54.8025 7.07136 56.5835 7.07136ZM79.9286 2.39923C80.3219 2.39923 80.675 2.42605 80.9878 2.47968C81.3007 2.53332 81.5644 2.64059 81.779 2.80149C81.9935 2.9624 82.1589 3.18141 82.2751 3.45852C82.3913 3.73564 82.4494 4.09767 82.4494 4.54463V20.0988L82.3594 20.115C82.1678 20.1489 81.9073 20.1927 81.5778 20.2463C81.1934 20.3089 80.8046 20.3402 80.4113 20.3402C80.0179 20.3402 79.6648 20.3134 79.352 20.2597C79.0391 20.2061 78.7754 20.0988 78.5609 19.9379C78.3463 19.777 78.1809 19.558 78.0647 19.2809C77.9485 19.0038 77.8904 18.6417 77.8904 18.1948V2.64059L77.9804 2.62444C78.172 2.59051 78.4325 2.54672 78.762 2.49309C79.1464 2.43052 79.5352 2.39923 79.9286 2.39923ZM86.7817 7.03867C87.175 7.03867 87.5281 7.06548 87.8409 7.11912C88.1538 7.17275 88.4175 7.28002 88.6321 7.44093C88.8466 7.60184 89.012 7.82085 89.1282 8.09796C89.2444 8.37508 89.3025 8.73711 89.3025 9.18407V20.0988L89.2125 20.115C89.0209 20.1489 88.7604 20.1927 88.4309 20.2463C88.0466 20.3089 87.6577 20.3402 87.2644 20.3402C86.871 20.3402 86.518 20.3134 86.2051 20.2597C85.8922 20.2061 85.6285 20.0988 85.414 19.9379C85.1994 19.777 85.034 19.558 84.9178 19.2809C84.8016 19.0038 84.7435 18.6417 84.7435 18.1948V7.28003L84.8336 7.26388C85.0251 7.22995 85.2856 7.18616 85.6151 7.13253C85.9995 7.06995 86.3883 7.03867 86.7817 7.03867ZM108.131 2.39923C108.524 2.39923 108.877 2.42605 109.19 2.47968C109.503 2.53332 109.767 2.64059 109.981 2.80149C110.196 2.9624 110.361 3.18141 110.477 3.45852C110.594 3.73564 110.652 4.09767 110.652 4.54463V7.17275L110.745 7.1386C110.974 7.05745 111.296 6.96604 111.711 6.86435C112.185 6.74814 112.708 6.69004 113.28 6.69004C115.05 6.69004 116.431 7.13253 117.423 8.01751C118.415 8.90249 118.912 10.221 118.912 11.9731V20.0988L118.829 20.1218C118.65 20.1678 118.396 20.2138 118.067 20.2597C117.682 20.3134 117.285 20.3402 116.873 20.3402C116.48 20.3402 116.127 20.3134 115.814 20.2597C115.501 20.2061 115.238 20.0988 115.023 19.9379C114.808 19.777 114.643 19.558 114.527 19.2809C114.411 19.0038 114.353 18.6417 114.353 18.1948V12.2413L114.349 12.076C114.323 11.4305 114.141 10.9716 113.803 10.6993C113.436 10.4043 112.985 10.2568 112.449 10.2568C112.091 10.2568 111.751 10.3015 111.429 10.3909C111.108 10.4803 110.848 10.5875 110.652 10.7127V20.0988L110.569 20.1218C110.39 20.1678 110.136 20.2138 109.807 20.2597C109.423 20.3134 109.025 20.3402 108.614 20.3402C108.22 20.3402 107.867 20.3134 107.554 20.2597C107.241 20.2061 106.978 20.0988 106.763 19.9379C106.549 19.777 106.383 19.558 106.267 19.2809C106.151 19.0038 106.093 18.6417 106.093 18.1948V2.64059L106.183 2.62444C106.374 2.59051 106.635 2.54672 106.964 2.49309C107.349 2.43052 107.738 2.39923 108.131 2.39923ZM76.0254 3.87419L76.0868 3.97811C76.1874 4.16062 76.2787 4.38969 76.3606 4.66531C76.4589 4.99606 76.5081 5.34022 76.5081 5.69779C76.5081 6.39505 76.3606 6.89117 76.0656 7.18616C75.7706 7.48116 75.3728 7.62865 74.8722 7.62865H69.2405V10.659H75.1136L75.1832 10.7626C75.2962 10.9439 75.3937 11.1686 75.4756 11.4367C75.5739 11.7586 75.6231 12.0982 75.6231 12.4558C75.6231 13.1352 75.4756 13.6224 75.1806 13.9174C74.8856 14.2124 74.4878 14.3599 73.9872 14.3599H69.2942V20.0184L69.203 20.0414C69.0071 20.0873 68.7291 20.1333 68.369 20.1793C67.9488 20.2329 67.5331 20.2597 67.1219 20.2597C66.7107 20.2597 66.3487 20.2284 66.0358 20.1659C65.723 20.1033 65.4593 19.9916 65.2447 19.8306C65.0302 19.6697 64.8693 19.4463 64.762 19.1602C64.6547 18.8742 64.6011 18.4987 64.6011 18.0339V6.36823L64.6057 6.17939C64.6399 5.49926 64.8618 4.95435 65.2715 4.54463C65.7185 4.09767 66.3264 3.87419 67.0951 3.87419H76.0254ZM12.9943 2.95325V5.97475H4.37309V9.92954H11.921V12.916H4.37309V20.1256H0.803284V2.95325H12.9943ZM17.8647 7.40967V20.1256H14.4932V7.40967H17.8647ZM36.2383 2.98825V12.2511L40.3798 7.468H44.4979L40.0531 12.3327L44.6729 20.1256H40.6597L37.6149 14.6893L36.2383 16.1242V20.1256H32.9718V2.98825H36.2383ZM49.0066 2.92992V20.1256H45.6818V2.92992H49.0066ZM119.16 3.76391C119.717 3.59632 120.668 3.55904 121.782 4.05145C122.906 4.54855 123.607 5.40119 123.885 6.60937L129.919 7.1222C129.994 7.12653 130.068 7.14167 130.142 7.16761C130.253 7.20653 130.312 7.26127 130.362 7.30413C130.485 7.40921 130.525 7.49024 130.583 7.63533C130.687 7.89332 130.655 8.19698 130.52 8.40518C130.302 8.74086 129.961 8.95806 129.496 9.05676L124.625 10.0922L125.485 14.1376C125.584 14.6019 125.801 14.901 126.138 15.0348C126.474 15.1687 126.911 15.1786 127.446 15.0647C127.714 15.0078 127.986 14.9266 128.263 14.8212C128.539 14.7158 128.777 14.6047 128.976 14.4877C129.178 14.65 129.363 14.8393 129.53 15.0558C129.698 15.2722 129.818 15.5501 129.89 15.8894C130.156 17.1439 128.182 18.3291 126.888 18.5617C125.689 18.7771 123.85 18.956 122.798 16.2015C121.747 13.4471 120.095 8.82994 118.835 4.98219C118.726 4.65014 118.659 4.32401 118.776 4.05489C118.839 3.90943 118.885 3.84664 119.16 3.76391ZM98.0865 10.2568C97.2104 10.2568 96.5534 10.5026 96.1154 10.9943C95.6774 11.4859 95.4584 12.1876 95.4584 13.0994C95.4584 14.1364 95.6774 14.8828 96.1154 15.3387C96.5534 15.7946 97.1121 16.0226 97.7915 16.0226C98.5245 16.0226 99.1055 15.8527 99.5346 15.513V10.5786L99.4526 10.5357C99.3339 10.4785 99.1779 10.4213 98.9849 10.364C98.7435 10.2925 98.4441 10.2568 98.0865 10.2568ZM56.5835 9.81288C55.8136 9.81288 55.2167 10.054 54.7928 10.5362C54.3689 11.0184 54.1026 11.6717 53.9937 12.4961H59.1617C59.1073 11.6172 58.8409 10.9503 58.3626 10.4953C57.8843 10.0404 57.2913 9.81288 56.5835 9.81288ZM17.8647 2.82493V5.89309H14.4932V2.82493H17.8647ZM87.023 1.05835C87.7739 1.05835 88.3773 1.29077 88.8332 1.75561C89.2891 2.22044 89.517 2.79255 89.517 3.47193C89.517 4.15131 89.2891 4.72342 88.8332 5.18825C88.3773 5.65309 87.7739 5.88551 87.023 5.88551C86.2721 5.88551 85.6687 5.65309 85.2128 5.18825C84.7569 4.72342 84.529 4.15131 84.529 3.47193C84.529 2.79255 84.7569 2.22044 85.2128 1.75561C85.6687 1.29077 86.2721 1.05835 87.023 1.05835Z" fill="url(#paint0_linear_1038_1160)"/>
</g>
<defs>
<linearGradient id="paint0_linear_1038_1160" x1="121.217" y1="12.7343" x2="1.99618" y2="24.8696" gradientUnits="userSpaceOnUse">
<stop stop-color="#299BD8"/>
<stop offset="1" stop-color="#1262AF"/>
</linearGradient>
<clipPath id="clip0_1038_1160">
<rect width="130.072" height="24.6688" fill="white" transform="translate(0.803284 0.665619)"/>
</clipPath>
</defs>
</svg>
