<svg width="53" height="50" viewBox="0 0 53 50" fill="none" xmlns="http://www.w3.org/2000/svg">
<path d="M0.257843 12.8677C0.257843 6.26205 5.6128 0.907089 12.2185 0.907089H40.625C47.2307 0.907089 52.5856 6.26205 52.5856 12.8677V37.8259C52.5856 44.4315 47.2307 49.7865 40.625 49.7865H12.2185C5.6128 49.7865 0.257843 44.4315 0.257843 37.8259V12.8677Z" fill="#4DABFF"/>
<path d="M34.5738 18.6721C34.3382 18.0289 33.6784 17.571 32.9009 17.571H29.9558V16.4808C29.9558 15.8812 29.4256 15.3907 28.7777 15.3907H24.0654C23.4175 15.3907 22.8874 15.8812 22.8874 16.4808V17.571H19.9422C19.1647 17.571 18.5167 18.0289 18.2693 18.6721L15.9485 24.8533C15.8661 25.0822 15.819 25.322 15.819 25.5728V33.3783C15.819 34.2832 16.6083 35.0136 17.5861 35.0136C18.5638 35.0136 19.3532 34.2832 19.3532 33.3783V32.8333H33.49V33.3783C33.49 34.2723 34.2793 35.0136 35.2571 35.0136C36.2231 35.0136 37.0242 34.2832 37.0242 33.3783V25.5728C37.0242 25.3329 36.977 25.0822 36.8946 24.8533L34.5738 18.6721ZM19.9422 29.5628C18.9644 29.5628 18.1751 28.8324 18.1751 27.9275C18.1751 27.0227 18.9644 26.2923 19.9422 26.2923C20.92 26.2923 21.7093 27.0227 21.7093 27.9275C21.7093 28.8324 20.92 29.5628 19.9422 29.5628ZM32.9009 29.5628C31.9231 29.5628 31.1338 28.8324 31.1338 27.9275C31.1338 27.0227 31.9231 26.2923 32.9009 26.2923C33.8787 26.2923 34.668 27.0227 34.668 27.9275C34.668 28.8324 33.8787 29.5628 32.9009 29.5628ZM18.1751 24.112L19.9422 19.2062H32.9009L34.668 24.112H18.1751Z" fill="white"/>
</svg>
