<svg width="50" height="50" viewBox="0 0 50 50" fill="none" xmlns="http://www.w3.org/2000/svg">
<path d="M0.513824 12.8677C0.513824 6.26205 5.86878 0.907089 12.4745 0.907089H37.4326C44.0383 0.907089 49.3932 6.26205 49.3932 12.8677V37.8259C49.3932 44.4315 44.0383 49.7865 37.4326 49.7865H12.4745C5.86878 49.7865 0.513824 44.4315 0.513824 37.8259V12.8677Z" fill="#FF9B53"/>
<path d="M29.144 14.3947C28.6515 13.9071 27.9836 13.6331 27.2873 13.6331C26.5909 13.6331 25.9231 13.9071 25.4305 14.3947L13.8979 25.8209C13.654 26.0625 13.4605 26.3494 13.3285 26.6651C13.1965 26.9808 13.1285 27.3192 13.1285 27.6609C13.1285 28.0026 13.1965 28.341 13.3285 28.6567C13.4605 28.9724 13.654 29.2592 13.8979 29.5009L15.2661 30.8551C15.8614 31.4461 16.6984 31.3408 17.2039 31.0425C17.4828 30.8784 17.8088 30.8111 18.1306 30.8511C18.4523 30.8911 18.7515 31.0361 18.9808 31.2633C19.2101 31.4904 19.3565 31.7868 19.3968 32.1056C19.4372 32.4243 19.3692 32.7473 19.2037 33.0235C18.9036 33.5243 18.7962 34.3535 19.3928 34.9433L20.7621 36.2987C21.006 36.5404 21.2956 36.732 21.6143 36.8628C21.933 36.9936 22.2745 37.0609 22.6195 37.0609C22.9644 37.0609 23.306 36.9936 23.6246 36.8628C23.9433 36.732 24.2329 36.5404 24.4768 36.2987L36.0083 24.8749C36.2522 24.6333 36.4457 24.3464 36.5777 24.0307C36.7097 23.715 36.7776 23.3766 36.7776 23.0349C36.7776 22.6932 36.7097 22.3548 36.5777 22.0391C36.4457 21.7234 36.2522 21.4365 36.0083 21.1949L34.6413 19.8395C34.0459 19.2497 33.2077 19.3538 32.7022 19.6521C32.4234 19.8162 32.0973 19.8835 31.7756 19.8435C31.4538 19.8035 31.1547 19.6585 30.9254 19.4313C30.6961 19.2042 30.5497 18.9078 30.5093 18.5891C30.4689 18.2703 30.5369 17.9473 30.7025 17.6711C31.0037 17.1703 31.1099 16.3411 30.5134 15.7513L29.1452 14.3947H29.144Z" fill="white"/>
</svg>
