<svg width="50" height="50" viewBox="0 0 50 50" fill="none" xmlns="http://www.w3.org/2000/svg">
<path d="M0.317474 12.8677C0.317474 6.26205 5.67243 0.907089 12.2781 0.907089H37.2362C43.8419 0.907089 49.1969 6.26205 49.1969 12.8677V37.8259C49.1969 44.4315 43.8419 49.7865 37.2362 49.7865H12.2781C5.67243 49.7865 0.317474 44.4315 0.317474 37.8259V12.8677Z" fill="#79CA00"/>
<path d="M32.564 16.6456H16.9499C15.8735 16.6456 14.9981 17.5128 14.9981 18.5791V32.114C14.9981 33.1804 15.8735 34.0476 16.9499 34.0476H32.564C33.6404 34.0476 34.5158 33.1804 34.5158 32.114V18.5791C34.5158 17.5128 33.6404 16.6456 32.564 16.6456ZM32.565 22.4462C32.564 22.4462 32.564 22.4462 32.565 22.4462H32.1112L29.5085 18.5791H32.564L32.565 22.4462ZM28.1725 28.2469L22.8052 31.1472V25.3466L28.1725 28.2469ZM27.2318 22.4462L24.6291 18.5791H27.1625L29.7652 22.4462H27.2318V22.4462ZM24.8858 22.4462H22.3524L19.7497 18.5791H22.2831L24.8858 22.4462ZM16.9499 18.5791H17.4037L20.0064 22.4462H16.9499V18.5791Z" fill="white"/>
</svg>
