<svg width="50" height="50" viewBox="0 0 50 50" fill="none" xmlns="http://www.w3.org/2000/svg">
<rect x="0.440704" y="0.907089" width="48.8794" height="48.8794" rx="11.9606" fill="#F9668D"/>
<path d="M24.025 21.9549H25.737V21.1069C25.737 20.882 25.8272 20.6663 25.9878 20.5072C26.1483 20.3482 26.366 20.2589 26.593 20.2589H29.1611C29.3881 20.2589 29.6059 20.3482 29.7664 20.5072C29.9269 20.6663 30.0171 20.882 30.0171 21.1069V21.9549H33.4412V18.5629C33.4412 17.6633 33.0804 16.8005 32.4383 16.1644C31.7962 15.5283 30.9252 15.1709 30.0171 15.1709H19.7449C18.8368 15.1709 17.9659 15.5283 17.3237 16.1644C16.6816 16.8005 16.3208 17.6633 16.3208 18.5629V21.9549H19.7449V21.1069C19.7449 20.882 19.8351 20.6663 19.9956 20.5072C20.1562 20.3482 20.3739 20.2589 20.6009 20.2589H23.169C23.396 20.2589 23.6137 20.3482 23.7743 20.5072C23.9348 20.6663 24.025 20.882 24.025 21.1069V21.9549Z" fill="white"/>
<path d="M17.177 23.6509C16.0419 23.6509 14.9533 24.0976 14.1506 24.8927C13.348 25.6879 12.8971 26.7663 12.8971 27.8908V34.6748C12.8971 34.8997 12.9872 35.1154 13.1478 35.2744C13.3083 35.4334 13.526 35.5228 13.753 35.5228C13.9801 35.5228 14.1978 35.4334 14.3583 35.2744C14.5188 35.1154 14.609 34.8997 14.609 34.6748V30.4348H35.1526V34.6748C35.1526 34.8997 35.2428 35.1154 35.4033 35.2744C35.5638 35.4334 35.7815 35.5228 36.0086 35.5228C36.2356 35.5228 36.4533 35.4334 36.6138 35.2744C36.7744 35.1154 36.8646 34.8997 36.8646 34.6748V27.8908C36.8646 26.7663 36.4136 25.6879 35.611 24.8927C34.8084 24.0976 33.7197 23.6509 32.5846 23.6509H17.177Z" fill="white"/>
</svg>
