<svg width="50" height="50" viewBox="0 0 50 50" fill="none" xmlns="http://www.w3.org/2000/svg">
<rect x="0.58696" y="0.907089" width="48.8794" height="48.8794" rx="11.9606" fill="#36DA76"/>
<path d="M31.3566 34.8739C31.3156 33.9968 31.2613 33.1242 31.2178 32.2536C31.0771 29.5302 31.0886 26.7669 30.9415 24.03C30.7943 21.3136 30.8816 18.5954 30.8039 15.8791C30.7883 15.3145 30.8135 14.1996 30.2294 13.8778C28.9728 13.1864 28.2268 15.0722 27.9071 15.8399C27.3308 17.2334 26.9979 18.6991 26.5862 20.1428C26.2354 21.3785 25.8359 22.6103 25.7005 23.8898C25.6002 24.8498 25.6094 25.9246 26.1109 26.7896C26.3628 27.2244 26.7983 27.5203 27.2941 27.6453C27.8087 27.777 28.3972 27.6046 28.8855 27.837C29.0114 27.8978 29.1223 28.0242 29.1728 28.1519C29.3311 28.5632 29.1813 29.1873 29.1319 29.6116C28.9751 30.9787 28.8094 32.3593 28.7352 33.7329C28.6913 34.5636 28.6427 35.6275 29.1453 36.3512C29.4533 36.7907 30.0775 37.2011 30.6408 36.9827C31.4826 36.6605 31.3916 35.572 31.3566 34.8739V34.8739Z" fill="white"/>
<path d="M20.647 14.4842C20.405 14.5812 20.4968 15.4461 20.486 15.7119C20.4701 16.1893 20.5027 16.8211 20.4452 17.4399C20.4449 17.4454 20.4441 17.4493 20.4432 17.4531C20.4383 17.4961 20.4342 17.5425 20.4271 17.5915C20.4196 17.6388 20.4116 17.6844 20.4058 17.7312C20.3542 18.0329 20.256 18.3902 20.0705 18.5615C19.8598 18.7574 19.3877 18.7162 19.2237 18.4847C18.9555 18.1079 18.9756 17.2666 18.9593 17.2418C18.9484 16.8438 18.8904 15.64 18.8034 14.8464C18.7962 14.7866 18.7846 14.4269 18.4562 14.3884C18.303 14.3718 18.1419 14.5023 18.0896 14.7407C17.9354 15.4443 17.7909 16.7857 17.7818 16.9966C17.78 17.017 17.7791 17.0408 17.779 17.0608C17.779 17.0608 17.7782 17.0646 17.7786 17.0663C17.7776 17.1101 17.7255 18.161 17.4595 18.5235C17.3206 18.7136 16.9597 18.8631 16.6011 18.6619C16.4583 18.581 16.3604 18.4249 16.2914 18.2578C15.9164 17.0906 16.253 15.8048 16.3009 15.1921C16.3151 15.0198 16.4712 14.4444 16.123 14.4637C15.5988 14.4921 14.9219 16.7256 14.8009 17.2374C14.5041 18.5111 14.4591 19.8721 14.9753 21.1007C15.2621 21.781 15.8229 22.338 16.5184 22.608C16.8258 22.7262 17.1674 22.812 17.529 22.8618C17.3989 25.7574 17.2512 28.7789 17.1166 30.4605C17.0131 31.7259 16.8909 33.0053 16.9074 34.276C16.9171 35.0352 16.9091 35.9404 17.4074 36.577C17.9287 37.2421 19.0283 36.9361 19.3252 36.1503C19.6582 35.2644 19.5614 34.2321 19.448 32.6056C19.3341 30.9773 19.2059 28.7561 19.1353 27.5611C19.0319 25.8014 18.9959 24.2637 18.9859 22.8607C19.9119 22.7284 20.7755 22.3311 21.2588 21.6005C21.4708 21.2809 21.6104 20.9238 21.7058 20.5563C21.852 19.9999 21.9234 19.3902 21.8918 18.8162C21.8596 18.2877 21.4253 14.1724 20.647 14.4842V14.4842Z" fill="white"/>
</svg>
