<svg width="23" height="22" viewBox="0 0 23 22" fill="none" xmlns="http://www.w3.org/2000/svg">
<path d="M22.7103 6.49608C22.6591 5.33438 22.4713 4.53573 22.2021 3.84368C21.9245 3.10909 21.4974 2.45141 20.9378 1.90468C20.3911 1.34944 19.7291 0.917992 19.003 0.64471C18.307 0.375599 17.5125 0.187739 16.3508 0.136519C15.1804 0.0809618 14.8088 0.0681152 11.8404 0.0681152C8.87205 0.0681152 8.5005 0.0809618 7.33446 0.132181C6.17276 0.183401 5.37411 0.371428 4.68222 0.640373C3.94747 0.917992 3.28979 1.3451 2.74306 1.90468C2.18782 2.45141 1.75654 3.11343 1.48309 3.83951C1.21398 4.53573 1.02612 5.33005 0.974898 6.49175C0.919341 7.66212 0.906494 8.03367 0.906494 11.0021C0.906494 13.9705 0.919341 14.342 0.97056 15.5081C1.02178 16.6698 1.20981 17.4684 1.47892 18.1605C1.75654 18.895 2.18782 19.5527 2.74306 20.0995C3.28979 20.6547 3.9518 21.0861 4.67789 21.3594C5.37411 21.6285 6.16843 21.8164 7.33029 21.8676C8.49616 21.919 8.86788 21.9317 11.8363 21.9317C14.8047 21.9317 15.1762 21.919 16.3423 21.8676C17.504 21.8164 18.3026 21.6285 18.9945 21.3594C20.4638 20.7913 21.6255 19.6296 22.1936 18.1605C22.4626 17.4642 22.6506 16.6698 22.7018 15.5081C22.753 14.342 22.7659 13.9705 22.7659 11.0021C22.7659 8.03367 22.7616 7.66212 22.7103 6.49608ZM20.7415 15.4226C20.6944 16.4904 20.5151 17.067 20.3656 17.4514C19.9982 18.4039 19.2423 19.1598 18.2898 19.5272C17.9054 19.6767 17.3246 19.856 16.261 19.9029C15.1078 19.9543 14.762 19.967 11.8448 19.967C8.92761 19.967 8.57741 19.9543 7.42839 19.9029C6.36062 19.856 5.78403 19.6767 5.39963 19.5272C4.92564 19.352 4.4942 19.0744 4.144 18.7114C3.78096 18.3568 3.50334 17.9297 3.32816 17.4557C3.17867 17.0713 2.99932 16.4904 2.95244 15.427C2.90105 14.2738 2.88837 13.9278 2.88837 11.0106C2.88837 8.0934 2.90105 7.7432 2.95244 6.59435C2.99932 5.52658 3.17867 4.94999 3.32816 4.56559C3.50334 4.09143 3.78096 3.66016 4.14834 3.30979C4.50271 2.94675 4.92981 2.66913 5.40397 2.49412C5.78837 2.34463 6.3693 2.16528 7.43273 2.11823C8.58592 2.06701 8.93194 2.05417 11.849 2.05417C14.7705 2.05417 15.1163 2.06701 16.2653 2.11823C17.3331 2.16528 17.9097 2.34463 18.2941 2.49412C18.7681 2.66913 19.1995 2.94675 19.5497 3.30979C19.9128 3.66433 20.1904 4.09143 20.3656 4.56559C20.5151 4.94999 20.6944 5.53075 20.7415 6.59435C20.7927 7.74754 20.8055 8.0934 20.8055 11.0106C20.8055 13.9278 20.7927 14.2694 20.7415 15.4226Z" fill="white"/>
<path d="M11.8405 5.38574C8.73982 5.38574 6.22406 7.90134 6.22406 11.0022C6.22406 14.1031 8.73982 16.6187 11.8405 16.6187C14.9414 16.6187 17.457 14.1031 17.457 11.0022C17.457 7.90134 14.9414 5.38574 11.8405 5.38574ZM11.8405 14.6455C9.82895 14.6455 8.19726 13.0139 8.19726 11.0022C8.19726 8.99046 9.82895 7.35895 11.8405 7.35895C13.8523 7.35895 15.4838 8.99046 15.4838 11.0022C15.4838 13.0139 13.8523 14.6455 11.8405 14.6455Z" fill="white"/>
<path d="M18.9904 5.16348C18.9904 5.88756 18.4033 6.47467 17.679 6.47467C16.955 6.47467 16.3679 5.88756 16.3679 5.16348C16.3679 4.43923 16.955 3.85229 17.679 3.85229C18.4033 3.85229 18.9904 4.43923 18.9904 5.16348Z" fill="white"/>
</svg>
