<svg width="22" height="22" viewBox="0 0 22 22" fill="none" xmlns="http://www.w3.org/2000/svg">
<path d="M21.9011 21.9533V21.9524H21.9065V13.9182C21.9065 9.98785 21.0604 6.96021 16.4655 6.96021C14.2566 6.96021 12.7743 8.17236 12.1691 9.32154H12.1052V7.32714H7.7486V21.9524H12.2851V14.7105C12.2851 12.8037 12.6465 10.96 15.0078 10.96C17.3345 10.96 17.3692 13.136 17.3692 14.8328V21.9533H21.9011Z" fill="white"/>
<path d="M0.361511 7.32812H4.90344V21.9534H0.361511V7.32812Z" fill="white"/>
<path d="M2.6306 0.046875C1.17838 0.046875 0 1.22526 0 2.67747C0 4.12968 1.17838 5.33271 2.6306 5.33271C4.08281 5.33271 5.26119 4.12968 5.26119 2.67747C5.26028 1.22526 4.0819 0.046875 2.6306 0.046875V0.046875Z" fill="white"/>
</svg>
