<svg width="89" height="19" viewBox="0 0 89 19" fill="none" xmlns="http://www.w3.org/2000/svg">
<line x1="4.18408" y1="9.46722" x2="81.5932" y2="9.46723" stroke="#CCCCCC" stroke-width="0.74754" stroke-dasharray="2.24 2.24"/>
<g clip-path="url(#clip0_2246_5485)">
<path d="M43.4899 16.8817H42.4692C42.3666 16.8816 42.2657 16.8581 42.1757 16.8132C42.0856 16.7684 42.0093 16.7036 41.9538 16.6248C41.8982 16.546 41.8651 16.4558 41.8576 16.3623C41.85 16.2688 41.8682 16.1751 41.9105 16.0897L44.3822 11.1052L40.6709 11.0298L39.3173 12.5285C39.0593 12.825 38.8534 12.9571 38.3281 12.9571H37.6409C37.5321 12.9603 37.4241 12.9395 37.326 12.8964C37.2279 12.8533 37.1425 12.7893 37.0773 12.7097C36.986 12.5972 36.8963 12.4066 36.9837 12.1347L37.7437 9.64677C37.7494 9.62819 37.7563 9.60962 37.764 9.5914C37.7644 9.58967 37.7644 9.58788 37.764 9.58614C37.7561 9.56794 37.7493 9.54934 37.7437 9.53043L36.9829 7.02676C36.9005 6.76009 36.9906 6.57368 37.0811 6.464C37.1419 6.39031 37.2207 6.33069 37.3113 6.28991C37.4018 6.24914 37.5016 6.22835 37.6026 6.22922H38.3281C38.7203 6.22922 39.1011 6.39006 39.325 6.64972L40.6506 8.12319L44.3822 8.07273L41.9113 3.09692C41.8689 3.01157 41.8507 2.91789 41.8581 2.82443C41.8656 2.73096 41.8986 2.6407 41.9541 2.5619C42.0096 2.48309 42.0858 2.41825 42.1758 2.37331C42.2658 2.32837 42.3667 2.30476 42.4692 2.30464H43.501C43.645 2.30729 43.7865 2.33953 43.9149 2.39898C44.0433 2.45843 44.1555 2.54356 44.243 2.64804L49.0379 7.97426L51.2531 7.921C51.4153 7.91294 51.8647 7.91014 51.9686 7.91014C54.0875 7.91119 55.3528 8.53982 55.3528 9.59315C55.3528 9.92464 55.2079 10.5393 54.2381 10.9303C53.6657 11.1616 52.9019 11.2786 51.9678 11.2786C51.865 11.2786 51.4168 11.2758 51.2523 11.2678L49.0375 11.2138L44.2307 16.54C44.1431 16.644 44.0311 16.7288 43.9029 16.7879C43.7747 16.847 43.6335 16.8791 43.4899 16.8817V16.8817Z" fill="#1262AE"/>
</g>
<circle cx="4.37759" cy="9.841" r="2.99016" fill="white" stroke="#1262AE" stroke-width="1.49508"/>
<circle cx="84.6264" cy="9.52926" r="2.99016" fill="white" stroke="#1262AE" stroke-width="1.49508"/>
<defs>
<clipPath id="clip0_2246_5485">
<rect width="19.6322" height="17.941" fill="white" transform="translate(36.3342 0.622681)"/>
</clipPath>
</defs>
</svg>
