<svg width="35" height="19" viewBox="0 0 35 19" fill="none" xmlns="http://www.w3.org/2000/svg">
<path d="M0.857129 9.22587C0.842459 9.21012 0.828253 9.19483 0.814515 9.17999C0.828253 9.16516 0.842459 9.14986 0.857129 9.13412C1.08122 8.89361 1.41341 8.54821 1.84217 8.13287C2.7002 7.30171 3.94219 6.19318 5.47593 5.08531C8.55391 2.86201 12.7534 0.679993 17.3546 0.679993C21.9557 0.679993 26.1552 2.86201 29.2332 5.08531C30.7669 6.19318 32.0089 7.30171 32.867 8.13287C33.2957 8.54821 33.6279 8.89361 33.852 9.13412C33.8667 9.14986 33.8809 9.16516 33.8946 9.17999C33.8809 9.19483 33.8667 9.21012 33.852 9.22587C33.6279 9.46638 33.2957 9.81178 32.867 10.2271C32.0089 11.0583 30.7669 12.1668 29.2332 13.2747C26.1552 15.498 21.9557 17.68 17.3546 17.68C12.7534 17.68 8.55391 15.498 5.47593 13.2747C3.94219 12.1668 2.7002 11.0583 1.84217 10.2271C1.41341 9.81178 1.08122 9.46638 0.857129 9.22587Z" stroke="#A6A6A6"/>
<path d="M24.6789 8.88004C24.6789 12.3575 21.4607 15.28 17.3548 15.28C13.249 15.28 10.0308 12.3575 10.0308 8.88004C10.0308 5.40262 13.249 2.48004 17.3548 2.48004C21.4607 2.48004 24.6789 5.40262 24.6789 8.88004Z" stroke="#A6A6A6"/>
<path d="M20.9237 8.87989C20.9237 10.3675 19.5289 11.6799 17.6682 11.6799C15.8075 11.6799 14.4126 10.3675 14.4126 8.87989C14.4126 7.39229 15.8075 6.0799 17.6682 6.0799C19.5289 6.0799 20.9237 7.39229 20.9237 8.87989Z" fill="#A6A6A6" stroke="#A6A6A6"/>
</svg>
