<svg width="45" height="39" viewBox="0 0 45 39" fill="none" xmlns="http://www.w3.org/2000/svg">
<path d="M32.557 31.9002C32.5021 30.7268 32.4294 29.5596 32.3712 28.3949C32.1831 24.7518 32.1985 21.0552 32.0016 17.394C31.8047 13.7602 31.9215 10.124 31.8176 6.49034C31.7967 5.73515 31.8305 4.24372 31.049 3.81319C29.3681 2.88836 28.3701 5.41097 27.9425 6.43797C27.1716 8.30211 26.7262 10.2627 26.1755 12.194C25.7062 13.8471 25.1718 15.4948 24.9906 17.2064C24.8565 18.4907 24.8688 19.9284 25.5397 21.0856C25.8766 21.6672 26.4592 22.063 27.1225 22.2303C27.8109 22.4065 28.598 22.1759 29.2513 22.4867C29.4197 22.5681 29.568 22.7372 29.6356 22.9079C29.8473 23.4582 29.6471 24.293 29.5809 24.8607C29.3712 26.6894 29.1494 28.5363 29.0502 30.3738C28.9915 31.485 28.9265 32.9082 29.5988 33.8764C30.0108 34.4643 30.8459 35.0133 31.5993 34.7211C32.7255 34.2901 32.6038 32.834 32.557 31.9002Z" fill="white"/>
<path d="M18.2304 4.62437C17.9068 4.75412 18.0295 5.91119 18.0151 6.26671C17.9938 6.90542 18.0374 7.75056 17.9605 8.57833C17.9601 8.58573 17.959 8.59087 17.9579 8.596C17.9512 8.65352 17.9458 8.71557 17.9364 8.78109C17.9263 8.84436 17.9155 8.90535 17.9078 8.96801C17.8388 9.37159 17.7075 9.84951 17.4592 10.0786C17.1774 10.3407 16.5458 10.2856 16.3265 9.97595C15.9677 9.47187 15.9946 8.34647 15.9728 8.31329C15.9582 7.78089 15.8806 6.1706 15.7643 5.10892C15.7546 5.02892 15.7392 4.5477 15.2998 4.49628C15.0949 4.47402 14.8793 4.64862 14.8094 4.96752C14.6031 5.90881 14.4098 7.70312 14.3977 7.98527C14.3952 8.0126 14.394 8.04445 14.3939 8.07117C14.3939 8.07117 14.3928 8.0763 14.3934 8.07857C14.3921 8.13714 14.3223 9.54291 13.9665 10.0279C13.7806 10.2822 13.2979 10.4821 12.8182 10.2131C12.6271 10.1048 12.4962 9.89599 12.4039 9.67238C11.9023 8.11103 12.3526 6.39099 12.4167 5.57138C12.4356 5.34085 12.6444 4.5712 12.1787 4.59694C11.4774 4.63504 10.5719 7.62272 10.4099 8.30749C10.013 10.0113 9.9528 11.8319 10.6433 13.4754C11.0269 14.3856 11.7772 15.1306 12.7075 15.4918C13.1187 15.65 13.5757 15.7648 14.0595 15.8314C13.8854 19.7048 13.6878 23.7468 13.5078 25.9962C13.3693 27.689 13.2059 29.4004 13.2279 31.1003C13.2409 32.1159 13.2302 33.3269 13.8968 34.1784C14.5942 35.0681 16.0651 34.6588 16.4623 33.6076C16.9078 32.4225 16.7782 31.0416 16.6265 28.8657C16.4742 26.6876 16.3027 23.7163 16.2082 22.1177C16.0699 19.7637 16.0217 17.7067 16.0084 15.8299C17.247 15.6529 18.4023 15.1214 19.0489 14.144C19.3325 13.7164 19.5193 13.2388 19.6468 12.7473C19.8425 12.0028 19.9379 11.1873 19.8956 10.4194C19.8526 9.71238 19.2716 4.20729 18.2304 4.62437Z" fill="white"/>
</svg>
