<svg width="46" height="39" viewBox="0 0 46 39" fill="none" xmlns="http://www.w3.org/2000/svg">
<path d="M27.579 5.63206C26.9201 4.97972 26.0267 4.61328 25.0952 4.61328C24.1637 4.61328 23.2703 4.97972 22.6114 5.63206L7.18394 20.9171C6.85766 21.2403 6.59884 21.6241 6.42225 22.0464C6.24567 22.4687 6.15479 22.9214 6.15479 23.3785C6.15479 23.8356 6.24567 24.2882 6.42225 24.7106C6.59884 25.1329 6.85766 25.5166 7.18394 25.8399L9.01419 27.6515C9.81063 28.442 10.9303 28.3013 11.6065 27.9021C11.9795 27.6827 12.4157 27.5926 12.8461 27.6461C13.2765 27.6996 13.6767 27.8936 13.9835 28.1975C14.2902 28.5014 14.486 28.8978 14.54 29.3242C14.594 29.7506 14.5031 30.1827 14.2816 30.5522C13.8803 31.2221 13.7366 32.3314 14.5346 33.1204L16.3664 34.9335C16.6927 35.2568 17.08 35.5132 17.5063 35.6881C17.9326 35.863 18.3896 35.9531 18.851 35.9531C19.3124 35.9531 19.7693 35.863 20.1956 35.6881C20.6219 35.5132 21.0093 35.2568 21.3356 34.9335L36.7615 19.6516C37.0878 19.3284 37.3466 18.9446 37.5232 18.5223C37.6998 18.1 37.7906 17.6473 37.7906 17.1902C37.7906 16.7331 37.6998 16.2804 37.5232 15.8581C37.3466 15.4358 37.0878 15.0521 36.7615 14.7288L34.9328 12.9157C34.1364 12.1266 33.0151 12.2659 32.3389 12.665C31.9659 12.8844 31.5298 12.9745 31.0993 12.921C30.6689 12.8675 30.2687 12.6735 29.962 12.3697C29.6552 12.0658 29.4594 11.6693 29.4054 11.2429C29.3514 10.8165 29.4423 10.3844 29.6638 10.0149C30.0667 9.34502 30.2088 8.23577 29.4108 7.44677L27.5806 5.63206H27.579Z" fill="white"/>
</svg>
