<svg width="45" height="39" viewBox="0 0 45 39" fill="none" xmlns="http://www.w3.org/2000/svg">
<path d="M33.8983 11.0026C33.5831 10.1422 32.7006 9.5297 31.6605 9.5297H27.7207V8.07137C27.7207 7.26929 27.0115 6.61304 26.1448 6.61304H19.841C18.9743 6.61304 18.2651 7.26929 18.2651 8.07137V9.5297H14.3253C13.2852 9.5297 12.4184 10.1422 12.0875 11.0026L8.98292 19.2714C8.87261 19.5776 8.80957 19.8985 8.80957 20.2339V30.6755C8.80957 31.886 9.86544 32.863 11.1735 32.863C12.4815 32.863 13.5373 31.886 13.5373 30.6755V29.9464H32.4485V30.6755C32.4485 31.8714 33.5043 32.863 34.8123 32.863C36.1046 32.863 37.1762 31.886 37.1762 30.6755V20.2339C37.1762 19.913 37.1132 19.5776 37.0029 19.2714L33.8983 11.0026ZM14.3253 25.5714C13.0173 25.5714 11.9614 24.5943 11.9614 23.3839C11.9614 22.1735 13.0173 21.1964 14.3253 21.1964C15.6333 21.1964 16.6892 22.1735 16.6892 23.3839C16.6892 24.5943 15.6333 25.5714 14.3253 25.5714ZM31.6605 25.5714C30.3525 25.5714 29.2966 24.5943 29.2966 23.3839C29.2966 22.1735 30.3525 21.1964 31.6605 21.1964C32.9685 21.1964 34.0244 22.1735 34.0244 23.3839C34.0244 24.5943 32.9685 25.5714 31.6605 25.5714ZM11.9614 18.2797L14.3253 11.7172H31.6605L34.0244 18.2797H11.9614Z" fill="white"/>
</svg>
