<svg width="45" height="39" viewBox="0 0 45 39" fill="none" xmlns="http://www.w3.org/2000/svg">
<path d="M32.6916 7.61304H11.8043C10.3644 7.61304 9.19336 8.77311 9.19336 10.1996V28.3055C9.19336 29.732 10.3644 30.8921 11.8043 30.8921H32.6916C34.1315 30.8921 35.3025 29.732 35.3025 28.3055V10.1996C35.3025 8.77311 34.1315 7.61304 32.6916 7.61304ZM32.6929 15.3727C32.6916 15.3727 32.6916 15.3727 32.6929 15.3727H32.0858L28.6042 10.1996H32.6916L32.6929 15.3727ZM26.817 23.1324L19.637 27.0122V19.2526L26.817 23.1324ZM25.5586 15.3727L22.0769 10.1996H25.4659L28.9475 15.3727H25.5586ZM22.4202 15.3727H19.0313L15.5496 10.1996H18.9386L22.4202 15.3727ZM11.8043 10.1996H12.4113L15.893 15.3727H11.8043V10.1996Z" fill="white"/>
</svg>
