<svg width="45" height="39" viewBox="0 0 45 39" fill="none" xmlns="http://www.w3.org/2000/svg">
<path d="M21.5492 15.1561H23.8394V14.0217C23.8394 13.7208 23.9601 13.4323 24.1748 13.2196C24.3896 13.0068 24.6808 12.8873 24.9845 12.8873H28.4199C28.7236 12.8873 29.0148 13.0068 29.2296 13.2196C29.4443 13.4323 29.565 13.7208 29.565 14.0217V15.1561H34.1454V10.6186C34.1454 9.41514 33.6629 8.26101 32.8039 7.41006C31.9448 6.55911 30.7798 6.08105 29.565 6.08105H15.8236C14.6088 6.08105 13.4437 6.55911 12.5847 7.41006C11.7257 8.26101 11.2432 9.41514 11.2432 10.6186V15.1561H15.8236V14.0217C15.8236 13.7208 15.9443 13.4323 16.159 13.2196C16.3738 13.0068 16.665 12.8873 16.9687 12.8873H20.4041C20.7078 12.8873 20.999 13.0068 21.2138 13.2196C21.4285 13.4323 21.5492 13.7208 21.5492 14.0217V15.1561Z" fill="white"/>
<path d="M12.3884 17.4248C10.87 17.4248 9.4137 18.0224 8.34 19.0861C7.26629 20.1498 6.66309 21.5925 6.66309 23.0967V32.1717C6.66309 32.4726 6.78373 32.7611 6.99847 32.9739C7.21321 33.1866 7.50446 33.3061 7.80815 33.3061C8.11184 33.3061 8.40309 33.1866 8.61783 32.9739C8.83258 32.7611 8.95322 32.4726 8.95322 32.1717V26.4999H36.4348V32.1717C36.4348 32.4726 36.5554 32.7611 36.7702 32.9739C36.9849 33.1866 37.2762 33.3061 37.5798 33.3061C37.8835 33.3061 38.1748 33.1866 38.3895 32.9739C38.6043 32.7611 38.7249 32.4726 38.7249 32.1717V23.0967C38.7249 21.5925 38.1217 20.1498 37.048 19.0861C35.9743 18.0224 34.518 17.4248 32.9996 17.4248H12.3884Z" fill="white"/>
</svg>
