<svg width="46" height="39" viewBox="0 0 46 39" fill="none" xmlns="http://www.w3.org/2000/svg">
<path d="M10.2322 26.9464C10.2322 28.413 10.8883 29.7297 11.9145 30.6464V32.7797C11.9145 34.163 13.0417 35.2797 14.4381 35.2797C15.8345 35.2797 16.9616 34.163 16.9616 32.7797V31.9464H30.4206V32.7797C30.4206 34.1464 31.5477 35.2797 32.9441 35.2797C34.3237 35.2797 35.4677 34.163 35.4677 32.7797V30.6464C36.4939 29.7297 37.15 28.413 37.15 26.9464V10.2797C37.15 4.44637 31.1272 3.61304 23.6911 3.61304C16.255 3.61304 10.2322 4.44637 10.2322 10.2797V26.9464ZM16.1205 28.613C14.7241 28.613 13.5969 27.4964 13.5969 26.113C13.5969 24.7297 14.7241 23.613 16.1205 23.613C17.5168 23.613 18.644 24.7297 18.644 26.113C18.644 27.4964 17.5168 28.613 16.1205 28.613ZM31.2617 28.613C29.8654 28.613 28.7382 27.4964 28.7382 26.113C28.7382 24.7297 29.8654 23.613 31.2617 23.613C32.6581 23.613 33.7853 24.7297 33.7853 26.113C33.7853 27.4964 32.6581 28.613 31.2617 28.613ZM33.7853 18.613H13.5969V10.2797H33.7853V18.613Z" fill="white"/>
</svg>
