<svg width="40" height="40" viewBox="0 0 40 40" fill="none" xmlns="http://www.w3.org/2000/svg">
<g clip-path="url(#clip0_0_1458)">
<path d="M23.6243 19.68C23.6243 21.7414 21.9532 23.4124 19.8918 23.4124C17.8304 23.4124 16.1594 21.7414 16.1594 19.68C16.1594 17.6186 17.8304 15.9476 19.8918 15.9476C21.9532 15.9476 23.6243 17.6186 23.6243 19.68Z" fill="#3B5998"/>
<path d="M28.6206 13.0763C28.4412 12.5901 28.155 12.15 27.783 11.7888C27.4218 11.4169 26.982 11.1306 26.4956 10.9512C26.101 10.798 25.5083 10.6156 24.4166 10.5659C23.2356 10.512 22.8816 10.5004 19.8918 10.5004C16.9018 10.5004 16.5477 10.5117 15.367 10.5656C14.2753 10.6156 13.6823 10.798 13.2881 10.9512C12.8016 11.1306 12.3615 11.4169 12.0006 11.7888C11.6287 12.15 11.3424 12.5898 11.1627 13.0763C11.0095 13.4708 10.8271 14.0639 10.7774 15.1555C10.7235 16.3362 10.7119 16.6903 10.7119 19.6803C10.7119 22.6701 10.7235 23.0242 10.7774 24.2051C10.8271 25.2968 11.0095 25.8895 11.1627 26.2841C11.3424 26.7706 11.6284 27.2103 12.0003 27.5716C12.3615 27.9435 12.8013 28.2297 13.2878 28.4092C13.6823 28.5627 14.2753 28.7451 15.367 28.7948C16.5477 28.8486 16.9015 28.8599 19.8915 28.8599C22.8819 28.8599 23.2359 28.8486 24.4163 28.7948C25.508 28.7451 26.101 28.5627 26.4956 28.4092C27.4721 28.0325 28.2439 27.2606 28.6206 26.2841C28.7739 25.8895 28.9563 25.2968 29.0063 24.2051C29.0601 23.0242 29.0714 22.6701 29.0714 19.6803C29.0714 16.6903 29.0601 16.3362 29.0063 15.1555C28.9566 14.0639 28.7742 13.4708 28.6206 13.0763ZM19.8918 25.4298C16.7161 25.4298 14.1417 22.8558 14.1417 19.68C14.1417 16.5043 16.7161 13.9303 19.8918 13.9303C23.0672 13.9303 25.6416 16.5043 25.6416 19.68C25.6416 22.8558 23.0672 25.4298 19.8918 25.4298ZM25.8689 15.0466C25.1268 15.0466 24.5252 14.445 24.5252 13.7029C24.5252 12.9608 25.1268 12.3592 25.8689 12.3592C26.611 12.3592 27.2126 12.9608 27.2126 13.7029C27.2123 14.445 26.611 15.0466 25.8689 15.0466Z" fill="#3B5998"/>
<path d="M19.8918 0.179993C9.12394 0.179993 0.391846 8.91209 0.391846 19.68C0.391846 30.4479 9.12394 39.18 19.8918 39.18C30.6598 39.18 39.3918 30.4479 39.3918 19.68C39.3918 8.91209 30.6598 0.179993 19.8918 0.179993ZM31.0216 24.2964C30.9674 25.4884 30.7779 26.3022 30.5012 27.0145C29.9195 28.5186 28.7305 29.7076 27.2264 30.2893C26.5143 30.566 25.7002 30.7553 24.5086 30.8097C23.3145 30.8642 22.9331 30.8773 19.8921 30.8773C16.8509 30.8773 16.4698 30.8642 15.2754 30.8097C14.0837 30.7553 13.2697 30.566 12.5576 30.2893C11.8102 30.0081 11.1336 29.5675 10.5742 28.9977C10.0047 28.4386 9.56401 27.7617 9.28283 27.0145C9.00611 26.3025 8.81657 25.4884 8.76242 24.2967C8.70737 23.1024 8.69458 22.7209 8.69458 19.68C8.69458 16.6391 8.70737 16.2576 8.76212 15.0636C8.81628 13.8716 9.00552 13.0578 9.28223 12.3455C9.56342 11.5983 10.0044 10.9214 10.5742 10.3623C11.1333 9.79253 11.8102 9.35186 12.5573 9.07068C13.2697 8.79396 14.0834 8.60472 15.2754 8.55027C16.4695 8.49582 16.8509 8.48273 19.8918 8.48273C22.9328 8.48273 23.3142 8.49582 24.5083 8.55057C25.7002 8.60472 26.514 8.79396 27.2264 9.07038C27.9735 9.35156 28.6504 9.79253 29.2098 10.3623C29.7793 10.9217 30.2203 11.5983 30.5012 12.3455C30.7782 13.0578 30.9674 13.8716 31.0219 15.0636C31.0763 16.2576 31.0891 16.6391 31.0891 19.68C31.0891 22.7209 31.0763 23.1024 31.0216 24.2964Z" fill="#3B5998"/>
</g>
<defs>
<clipPath id="clip0_0_1458">
<rect width="39" height="39" fill="white" transform="translate(0.391846 0.179993)"/>
</clipPath>
</defs>
</svg>
