<svg width="40" height="40" viewBox="0 0 40 40" fill="none" xmlns="http://www.w3.org/2000/svg">
<g clip-path="url(#clip0_0_1467)">
<path d="M19.8918 39.179C30.6614 39.179 39.3918 30.4485 39.3918 19.679C39.3918 8.90944 30.6614 0.178993 19.8918 0.178993C9.12229 0.178993 0.391846 8.90944 0.391846 19.679C0.391846 30.4485 9.12229 39.179 19.8918 39.179Z" fill="#007AB9"/>
<path d="M31.5428 21.2487V29.2882H26.8818V21.7875C26.8818 19.9042 26.2088 18.6181 24.5212 18.6181C23.2333 18.6181 22.4682 19.4839 22.1304 20.3224C22.0077 20.622 21.976 21.0381 21.976 21.4584V29.2878H17.3146C17.3146 29.2878 17.3772 16.5842 17.3146 15.2692H21.9764V17.2558C21.967 17.2714 21.9538 17.2867 21.9454 17.3017H21.9764V17.2558C22.5958 16.3027 23.7005 14.94 26.1772 14.94C29.2438 14.94 31.5428 16.9436 31.5428 21.2487ZM12.4384 8.51176C10.8439 8.51176 9.80078 9.55841 9.80078 10.9335C9.80078 12.2795 10.8137 13.3563 12.3772 13.3563H12.4075C14.0332 13.3563 15.0441 12.2795 15.0441 10.9335C15.0131 9.55841 14.0332 8.51176 12.4384 8.51176ZM10.0778 29.2882H14.7375V15.2692H10.0778V29.2882Z" fill="#F1F2F2"/>
</g>
<defs>
<clipPath id="clip0_0_1467">
<rect width="39" height="39" fill="white" transform="translate(0.391846 0.179993)"/>
</clipPath>
</defs>
</svg>
