<svg width="26" height="25" viewBox="0 0 26 25" fill="none" xmlns="http://www.w3.org/2000/svg">
<path d="M19.821 11.18H5.21606C4.06376 11.18 3.12964 12.0754 3.12964 13.18V20.18C3.12964 21.2846 4.06376 22.18 5.21606 22.18H19.821C20.9733 22.18 21.9074 21.2846 21.9074 20.18V13.18C21.9074 12.0754 20.9733 11.18 19.821 11.18Z" stroke="#0AAEB9" stroke-width="2" stroke-linecap="round" stroke-linejoin="round"/>
<path d="M7.30249 11.18V7.17999C7.30249 5.85391 7.85204 4.58214 8.83024 3.64446C9.80843 2.70678 11.1352 2.17999 12.5185 2.17999C13.9019 2.17999 15.2286 2.70678 16.2068 3.64446C17.185 4.58214 17.7346 5.85391 17.7346 7.17999V11.18" stroke="#0AAEB9" stroke-width="2" stroke-linecap="round" stroke-linejoin="round"/>
</svg>
