<svg width="19" height="18" viewBox="0 0 19 18" fill="none" xmlns="http://www.w3.org/2000/svg">
<g clip-path="url(#clip0_1038_1176)">
<path d="M16.5756 13.8987C16.095 13.4703 15.6742 12.9791 15.3247 12.4385C14.943 11.6922 14.7143 10.8772 14.6519 10.0414V7.57947C14.6552 6.2666 14.1789 4.99771 13.3127 4.0112C12.4464 3.0247 11.2497 2.38849 9.94737 2.2221V1.57922C9.94737 1.40277 9.87727 1.23354 9.7525 1.10877C9.62773 0.984005 9.45851 0.91391 9.28206 0.91391C9.10561 0.91391 8.93638 0.984005 8.81161 1.10877C8.68684 1.23354 8.61675 1.40277 8.61675 1.57922V2.23207C7.32612 2.41045 6.14387 3.05051 5.28896 4.03369C4.43406 5.01688 3.96443 6.27658 3.96705 7.57947V10.0414C3.90463 10.8772 3.6759 11.6922 3.29427 12.4385C2.95084 12.9779 2.53686 13.469 2.06332 13.8987C2.01016 13.9454 1.96755 14.0029 1.93834 14.0673C1.90912 14.1318 1.89396 14.2017 1.89388 14.2724V14.9502C1.89388 15.0824 1.94638 15.2091 2.03984 15.3026C2.1333 15.3961 2.26006 15.4486 2.39223 15.4486H16.2466C16.3788 15.4486 16.5056 15.3961 16.599 15.3026C16.6925 15.2091 16.745 15.0824 16.745 14.9502V14.2724C16.7449 14.2017 16.7297 14.1318 16.7005 14.0673C16.6713 14.0029 16.6287 13.9454 16.5756 13.8987ZM2.93046 14.4519C3.39414 14.0039 3.80239 13.502 4.14646 12.9568C4.62718 12.0555 4.90767 11.061 4.96875 10.0414V7.57947C4.94899 6.99541 5.04696 6.41335 5.25683 5.86794C5.4667 5.32253 5.78418 4.82493 6.19036 4.40477C6.59654 3.98461 7.08312 3.65049 7.62112 3.42229C8.15911 3.1941 8.73753 3.0765 9.32193 3.0765C9.90632 3.0765 10.4847 3.1941 11.0227 3.42229C11.5607 3.65049 12.0473 3.98461 12.4535 4.40477C12.8597 4.82493 13.1772 5.32253 13.387 5.86794C13.5969 6.41335 13.6949 6.99541 13.6751 7.57947V10.0414C13.7362 11.061 14.0167 12.0555 14.4974 12.9568C14.8415 13.502 15.2497 14.0039 15.7134 14.4519H2.93046Z" fill="#424242"/>
<path d="M9.34449 17.0835C9.65842 17.0763 9.95968 16.9582 10.195 16.7503C10.4303 16.5424 10.5845 16.2579 10.6303 15.9472H8.00888C8.05596 16.2663 8.21736 16.5575 8.46304 16.7665C8.70872 16.9755 9.02196 17.0882 9.34449 17.0835V17.0835Z" fill="#424242"/>
<circle cx="14.171" cy="4.09391" r="2.61639" fill="#F99A0E" stroke="white" stroke-width="0.74754"/>
</g>
<defs>
<clipPath id="clip0_1038_1176">
<rect width="17.941" height="17.941" fill="white" transform="translate(0.373978 0.0295105)"/>
</clipPath>
</defs>
</svg>
