<svg width="40" height="40" viewBox="0 0 40 40" fill="none" xmlns="http://www.w3.org/2000/svg">
<g clip-path="url(#clip0_0_1462)">
<path d="M19.892 39.1803C30.6613 39.1803 39.3916 30.45 39.3916 19.6806C39.3916 8.91127 30.6613 0.180981 19.892 0.180981C9.12263 0.180981 0.392334 8.91127 0.392334 19.6806C0.392334 30.45 9.12263 39.1803 19.892 39.1803Z" fill="#CB2027"/>
<path d="M21.4657 26.2924C19.9915 26.1783 19.3721 25.4473 18.216 24.7455C17.5806 28.0794 16.804 31.2752 14.504 32.9447C13.7931 27.9059 15.5461 24.1212 16.3601 20.104C14.9725 17.7682 16.527 13.0665 19.4538 14.2251C23.056 15.6495 16.3351 22.9106 20.847 23.8174C25.5573 24.7643 27.4802 15.6443 24.559 12.6779C20.3384 8.39514 12.2738 12.5806 13.2655 18.7116C13.507 20.2104 15.056 20.6654 13.8842 22.7336C11.183 22.1354 10.3773 20.005 10.4808 17.1647C10.648 12.5156 14.6583 9.26031 18.6807 8.80983C23.7678 8.24046 28.5425 10.6778 29.2015 15.4629C29.943 20.8635 26.9049 26.7123 21.4657 26.2924Z" fill="#F1F2F2"/>
</g>
<defs>
<clipPath id="clip0_0_1462">
<rect width="39" height="39" fill="white" transform="translate(0.391846 0.179993)"/>
</clipPath>
</defs>
</svg>
