<svg width="119" height="24" viewBox="0 0 119 24" fill="none" xmlns="http://www.w3.org/2000/svg">
<line x1="5.01733" y1="11.8315" x2="109.142" y2="11.8316" stroke="#CCCCCC" stroke-dasharray="3 3"/>
<path d="M57.8885 21.75H56.5155C56.3775 21.75 56.2418 21.7185 56.1207 21.6585C55.9996 21.5984 55.8969 21.5118 55.8222 21.4064C55.7474 21.301 55.7029 21.1803 55.6928 21.0552C55.6826 20.9302 55.7071 20.8048 55.764 20.6906L59.0887 14.0227L54.0965 13.9219L52.2758 15.9267C51.9287 16.3233 51.6517 16.5 50.9451 16.5H50.0209C49.8745 16.5043 49.7292 16.4764 49.5972 16.4188C49.4652 16.3612 49.3505 16.2755 49.2627 16.1691C49.1399 16.0186 49.0192 15.7636 49.1368 15.3998L50.1591 12.0717C50.1668 12.0469 50.1761 12.022 50.1864 11.9977C50.1869 11.9953 50.1869 11.9929 50.1864 11.9906C50.1758 11.9663 50.1666 11.9414 50.1591 11.9161L49.1358 8.56687C49.0249 8.21016 49.1461 7.96078 49.2678 7.81406C49.3496 7.71549 49.4556 7.63573 49.5774 7.58118C49.6993 7.52664 49.8335 7.49883 49.9693 7.5H50.9451C51.4728 7.5 51.9849 7.71516 52.2861 8.0625L54.0692 10.0336L59.0887 9.96609L55.765 3.30984C55.7081 3.19568 55.6835 3.07036 55.6935 2.94533C55.7036 2.8203 55.748 2.69956 55.8226 2.59414C55.8973 2.48872 55.9998 2.40198 56.1208 2.34186C56.2419 2.28175 56.3776 2.25016 56.5155 2.25H57.9035C58.0971 2.25354 58.2874 2.29667 58.4601 2.3762C58.6329 2.45572 58.7838 2.5696 58.9015 2.70937L65.3512 9.83438L68.3309 9.76312C68.5491 9.75234 69.1535 9.74859 69.2933 9.74859C72.1435 9.75 73.8456 10.5909 73.8456 12C73.8456 12.4434 73.6506 13.2656 72.3462 13.7887C71.5761 14.0981 70.5487 14.2547 69.2923 14.2547C69.1541 14.2547 68.5511 14.2509 68.3299 14.2402L65.3507 14.168L58.885 21.293C58.7672 21.4321 58.6164 21.5454 58.444 21.6246C58.2715 21.7037 58.0817 21.7465 57.8885 21.75Z" fill="#1262AE"/>
<path d="M9.30534 12.3315C9.30534 14.5355 7.5073 16.3315 5.27767 16.3315C3.04804 16.3315 1.25 14.5355 1.25 12.3315C1.25 10.1276 3.04804 8.33154 5.27767 8.33154C7.5073 8.33154 9.30534 10.1276 9.30534 12.3315Z" fill="white" stroke="#1262AE" stroke-width="2"/>
<path d="M117.25 11.9146C117.25 14.1185 115.452 15.9146 113.222 15.9146C110.993 15.9146 109.195 14.1185 109.195 11.9146C109.195 9.71061 110.993 7.91455 113.222 7.91455C115.452 7.91455 117.25 9.71061 117.25 11.9146Z" fill="white" stroke="#1262AE" stroke-width="2"/>
</svg>
