<svg width="119" height="24" viewBox="0 0 119 24" fill="none" xmlns="http://www.w3.org/2000/svg">
<line x1="5.51733" y1="11.8315" x2="109.642" y2="11.8316" stroke="#CCCCCC" stroke-dasharray="3 3"/>
<path d="M58.3885 21.75H57.0155C56.8775 21.75 56.7418 21.7185 56.6207 21.6585C56.4996 21.5984 56.3969 21.5118 56.3222 21.4064C56.2474 21.301 56.2029 21.1803 56.1928 21.0552C56.1826 20.9302 56.2071 20.8048 56.264 20.6906L59.5887 14.0227L54.5965 13.9219L52.7758 15.9267C52.4287 16.3233 52.1517 16.5 51.4451 16.5H50.5209C50.3745 16.5043 50.2292 16.4764 50.0972 16.4188C49.9652 16.3612 49.8505 16.2755 49.7627 16.1691C49.6399 16.0186 49.5192 15.7636 49.6368 15.3998L50.6591 12.0717C50.6668 12.0469 50.6761 12.022 50.6864 11.9977C50.6869 11.9953 50.6869 11.9929 50.6864 11.9906C50.6758 11.9663 50.6666 11.9414 50.6591 11.9161L49.6358 8.56687C49.5249 8.21016 49.6461 7.96078 49.7678 7.81406C49.8496 7.71549 49.9556 7.63573 50.0774 7.58118C50.1993 7.52664 50.3335 7.49883 50.4693 7.5H51.4451C51.9728 7.5 52.4849 7.71516 52.7861 8.0625L54.5692 10.0336L59.5887 9.96609L56.265 3.30984C56.2081 3.19568 56.1835 3.07036 56.1935 2.94533C56.2036 2.8203 56.248 2.69956 56.3226 2.59414C56.3973 2.48872 56.4998 2.40198 56.6208 2.34186C56.7419 2.28175 56.8776 2.25016 57.0155 2.25H58.4035C58.5971 2.25354 58.7874 2.29667 58.9601 2.3762C59.1329 2.45572 59.2838 2.5696 59.4015 2.70937L65.8512 9.83438L68.8309 9.76312C69.0491 9.75234 69.6535 9.74859 69.7933 9.74859C72.6435 9.75 74.3456 10.5909 74.3456 12C74.3456 12.4434 74.1506 13.2656 72.8462 13.7887C72.0761 14.0981 71.0487 14.2547 69.7923 14.2547C69.6541 14.2547 69.0511 14.2509 68.8299 14.2402L65.8507 14.168L59.385 21.293C59.2672 21.4321 59.1164 21.5454 58.944 21.6246C58.7715 21.7037 58.5817 21.7465 58.3885 21.75Z" fill="#1262AE"/>
<path d="M9.80534 12.3315C9.80534 14.5355 8.0073 16.3315 5.77767 16.3315C3.54804 16.3315 1.75 14.5355 1.75 12.3315C1.75 10.1276 3.54804 8.33154 5.77767 8.33154C8.0073 8.33154 9.80534 10.1276 9.80534 12.3315Z" fill="white" stroke="#1262AE" stroke-width="2"/>
<path d="M117.75 11.9146C117.75 14.1185 115.952 15.9146 113.722 15.9146C111.493 15.9146 109.695 14.1185 109.695 11.9146C109.695 9.71061 111.493 7.91455 113.722 7.91455C115.952 7.91455 117.75 9.71061 117.75 11.9146Z" fill="white" stroke="#1262AE" stroke-width="2"/>
</svg>
