<svg width="20" height="21" viewBox="0 0 20 21" fill="none" xmlns="http://www.w3.org/2000/svg">
<path d="M9.99984 6.33342C7.69984 6.33342 5.83317 8.20008 5.83317 10.5001C5.83317 12.8001 7.69984 14.6667 9.99984 14.6667C12.2998 14.6667 14.1665 12.8001 14.1665 10.5001C14.1665 8.20008 12.2998 6.33342 9.99984 6.33342ZM9.99984 2.16675C5.39984 2.16675 1.6665 5.90008 1.6665 10.5001C1.6665 15.1001 5.39984 18.8334 9.99984 18.8334C14.5998 18.8334 18.3332 15.1001 18.3332 10.5001C18.3332 5.90008 14.5998 2.16675 9.99984 2.16675ZM9.99984 17.1667C6.3165 17.1667 3.33317 14.1834 3.33317 10.5001C3.33317 6.81675 6.3165 3.83341 9.99984 3.83341C13.6832 3.83341 16.6665 6.81675 16.6665 10.5001C16.6665 14.1834 13.6832 17.1667 9.99984 17.1667Z" fill="#1262AE"/>
</svg>
