<svg width="17" height="17" viewBox="0 0 17 17" fill="none" xmlns="http://www.w3.org/2000/svg">
<path d="M16.4505 5.98618L11.3543 5.21059L9.07611 0.374144C9.01388 0.241725 8.91152 0.134529 8.78506 0.0693701C8.46793 -0.0945772 8.08254 0.0420455 7.92397 0.374144L5.64581 5.21059L0.549539 5.98618C0.409035 6.0072 0.280575 6.07656 0.182222 6.18166C0.0633192 6.30964 -0.00220171 6.48181 5.64944e-05 6.66035C0.0023147 6.83888 0.0721672 7.00918 0.194265 7.13381L3.88148 10.8983L3.01036 16.214C2.98993 16.3376 3.003 16.4648 3.04808 16.5811C3.09316 16.6973 3.16845 16.7981 3.26541 16.8718C3.36237 16.9456 3.47713 16.9894 3.59666 16.9983C3.7162 17.0072 3.83573 16.9809 3.9417 16.9223L8.50004 14.4127L13.0584 16.9223C13.1828 16.9917 13.3273 17.0148 13.4658 16.9896C13.8151 16.9265 14.0499 16.5797 13.9897 16.214L13.1186 10.8983L16.8058 7.13381C16.9062 7.03082 16.9724 6.8963 16.9925 6.74917C17.0467 6.38134 16.8018 6.04083 16.4505 5.98618Z" fill="#FDBF00"/>
</svg>
