<svg width="24" height="24" viewBox="0 0 24 24" fill="none" xmlns="http://www.w3.org/2000/svg">
<path d="M12 22.5C9.21523 22.5 6.54451 21.3938 4.57538 19.4246C2.60625 17.4555 1.5 14.7848 1.5 12C1.5 9.21523 2.60625 6.54451 4.57538 4.57538C6.54451 2.60625 9.21523 1.5 12 1.5C14.7848 1.5 17.4555 2.60625 19.4246 4.57538C21.3938 6.54451 22.5 9.21523 22.5 12C22.5 14.7848 21.3938 17.4555 19.4246 19.4246C17.4555 21.3938 14.7848 22.5 12 22.5ZM12 24C15.1826 24 18.2348 22.7357 20.4853 20.4853C22.7357 18.2348 24 15.1826 24 12C24 8.8174 22.7357 5.76516 20.4853 3.51472C18.2348 1.26428 15.1826 0 12 0C8.8174 0 5.76516 1.26428 3.51472 3.51472C1.26428 5.76516 0 8.8174 0 12C0 15.1826 1.26428 18.2348 3.51472 20.4853C5.76516 22.7357 8.8174 24 12 24Z" fill="#1262AF"/>
<path d="M9.32118 6.90461C9.46269 6.83174 9.62155 6.79933 9.78029 6.81093C9.93902 6.82253 10.0915 6.87769 10.2209 6.97035L16.2766 11.2959C16.3888 11.3759 16.4802 11.4816 16.5433 11.604C16.6063 11.7265 16.6392 11.8623 16.6392 12.0001C16.6392 12.1378 16.6063 12.2736 16.5433 12.3961C16.4802 12.5186 16.3888 12.6242 16.2766 12.7043L10.2209 17.0298C10.0915 17.1224 9.93914 17.1775 9.78049 17.1891C9.62183 17.2007 9.46305 17.1683 9.32159 17.0956C9.18014 17.0228 9.06149 16.9124 8.9787 16.7766C8.8959 16.6407 8.85217 16.4847 8.8523 16.3256V7.67455C8.85213 7.51551 8.89581 7.35951 8.97852 7.22368C9.06124 7.08785 9.17981 6.97745 9.32118 6.90461Z" fill="#1262AF"/>
</svg>
