<svg width="24" height="24" viewBox="0 0 24 24" fill="none" xmlns="http://www.w3.org/2000/svg">
<path d="M12 22.5C9.21523 22.5 6.54451 21.3938 4.57538 19.4246C2.60625 17.4555 1.5 14.7848 1.5 12C1.5 9.21523 2.60625 6.54451 4.57538 4.57538C6.54451 2.60625 9.21523 1.5 12 1.5C14.7848 1.5 17.4555 2.60625 19.4246 4.57538C21.3938 6.54451 22.5 9.21523 22.5 12C22.5 14.7848 21.3938 17.4555 19.4246 19.4246C17.4555 21.3938 14.7848 22.5 12 22.5ZM12 24C15.1826 24 18.2348 22.7357 20.4853 20.4853C22.7357 18.2348 24 15.1826 24 12C24 8.8174 22.7357 5.76516 20.4853 3.51472C18.2348 1.26428 15.1826 0 12 0C8.8174 0 5.76516 1.26428 3.51472 3.51472C1.26428 5.76516 0 8.8174 0 12C0 15.1826 1.26428 18.2348 3.51472 20.4853C5.76516 22.7357 8.8174 24 12 24Z" fill="#1262AF"/>
<path d="M9.32143 6.90461C9.46293 6.83174 9.62179 6.79933 9.78053 6.81093C9.93927 6.82253 10.0917 6.87769 10.2211 6.97035L16.2769 11.2959C16.389 11.3759 16.4804 11.4816 16.5435 11.604C16.6066 11.7265 16.6395 11.8623 16.6395 12.0001C16.6395 12.1378 16.6066 12.2736 16.5435 12.3961C16.4804 12.5186 16.389 12.6242 16.2769 12.7043L10.2211 17.0298C10.0918 17.1224 9.93939 17.1775 9.78073 17.1891C9.62207 17.2007 9.46329 17.1683 9.32184 17.0956C9.18038 17.0228 9.06174 16.9124 8.97894 16.7766C8.89615 16.6407 8.85241 16.4847 8.85254 16.3256V7.67455C8.85237 7.51551 8.89605 7.35951 8.97877 7.22368C9.06149 7.08785 9.18005 6.97745 9.32143 6.90461Z" fill="#1262AF"/>
</svg>
