<svg width="101" height="101" viewBox="0 0 101 101" fill="none" xmlns="http://www.w3.org/2000/svg">
<path d="M50.4232 91.7058C39.4926 91.7058 29.0098 87.3637 21.2807 79.6346C13.5516 71.9055 9.20946 61.4226 9.20946 50.4921C9.20946 39.5615 13.5516 29.0786 21.2807 21.3495C29.0098 13.6205 39.4926 9.2783 50.4232 9.2783C61.3538 9.2783 71.8366 13.6205 79.5657 21.3495C87.2948 29.0786 91.637 39.5615 91.637 50.4921C91.637 61.4226 87.2948 71.9055 79.5657 79.6346C71.8366 87.3637 61.3538 91.7058 50.4232 91.7058ZM50.4232 97.5935C62.9153 97.5935 74.8957 92.631 83.729 83.7978C92.5622 74.9646 97.5246 62.9841 97.5246 50.4921C97.5246 38 92.5622 26.0195 83.729 17.1863C74.8957 8.35308 62.9153 3.39063 50.4232 3.39062C37.9311 3.39063 25.9507 8.35308 17.1175 17.1863C8.28424 26.0195 3.32178 38 3.32178 50.4921C3.32178 62.9841 8.28424 74.9646 17.1175 83.7978C25.9507 92.631 37.9311 97.5935 50.4232 97.5935Z" fill="#457EFF"/>
<path d="M39.9088 30.492C40.4642 30.206 41.0878 30.0787 41.7108 30.1243C42.3339 30.1698 42.9323 30.3863 43.4403 30.75L67.2098 47.7283C67.6499 48.0424 68.0087 48.4571 68.2563 48.9378C68.5038 49.4186 68.633 49.9515 68.633 50.4923C68.633 51.0331 68.5038 51.566 68.2563 52.0468C68.0087 52.5276 67.6499 52.9422 67.2098 53.2564L43.4403 70.2346C42.9325 70.598 42.3344 70.8143 41.7116 70.8599C41.0889 70.9054 40.4656 70.7783 39.9104 70.4927C39.3552 70.207 38.8895 69.7737 38.5645 69.2406C38.2395 68.7074 38.0679 68.0949 38.0684 67.4705V33.5141C38.0677 32.8899 38.2391 32.2775 38.5638 31.7444C38.8885 31.2112 39.3539 30.7779 39.9088 30.492Z" fill="#457EFF"/>
</svg>
