<svg width="5" height="6" viewBox="0 0 5 6" fill="none" xmlns="http://www.w3.org/2000/svg">
<path d="M1.84801 4.78899L2.46585 3.66513L3.09544 4.78899C3.1229 4.83999 3.15428 4.88314 3.18959 4.91844C3.22882 4.94983 3.26804 4.97336 3.30727 4.98905C3.3465 5.00474 3.38573 5.01259 3.42495 5.01259C3.52694 5.01259 3.61717 4.97336 3.69562 4.89491C3.77408 4.81645 3.8133 4.72231 3.8133 4.61247C3.8133 4.57324 3.80742 4.53402 3.79565 4.49479C3.78388 4.45164 3.76623 4.41045 3.74269 4.37122L3.09544 3.32974L4.43113 3.37093C4.55666 3.37093 4.65277 3.33366 4.71945 3.25913C4.79006 3.1846 4.82537 3.09634 4.82537 2.99434C4.82537 2.89235 4.79006 2.80409 4.71945 2.72956C4.65277 2.65503 4.55666 2.61776 4.43113 2.61776L3.10721 2.66484L3.77211 1.58216C3.79173 1.54686 3.80546 1.51155 3.8133 1.47625C3.82507 1.44094 3.83096 1.40564 3.83096 1.37033C3.83096 1.29972 3.8133 1.23304 3.778 1.17027C3.74269 1.10751 3.69562 1.05848 3.63678 1.02317C3.58186 0.987867 3.52106 0.970215 3.45437 0.970215C3.39161 0.970215 3.32885 0.989829 3.26608 1.02906C3.20332 1.06828 3.1484 1.12712 3.10133 1.20558L2.46585 2.35298L1.83036 1.18793C1.82252 1.17224 1.81271 1.15654 1.80094 1.14085C1.78917 1.12516 1.77741 1.11143 1.76564 1.09967C1.75779 1.0879 1.74799 1.07809 1.73622 1.07024C1.72445 1.05848 1.71268 1.04867 1.70091 1.04082C1.68914 1.02906 1.67541 1.02121 1.65972 1.01729C1.64796 1.00944 1.63423 1.00356 1.61853 0.999635C1.60677 0.99179 1.595 0.987867 1.58323 0.987867C1.57146 0.983944 1.55773 0.981983 1.54204 0.981983C1.53027 0.97806 1.51654 0.976099 1.50085 0.976099C1.39886 0.976099 1.30668 1.01533 1.2243 1.09378C1.14585 1.16831 1.10662 1.2605 1.10662 1.37033C1.10662 1.44879 1.13015 1.52528 1.17723 1.59981L1.83036 2.66484L0.524093 2.61776C0.441715 2.61776 0.369145 2.63738 0.306381 2.6766C0.24754 2.71191 0.20439 2.75702 0.176931 2.81194C0.149472 2.86686 0.135742 2.92766 0.135742 2.99434C0.135742 3.09634 0.169085 3.1846 0.235772 3.25913C0.306381 3.33366 0.402488 3.37093 0.524093 3.37093L1.84801 3.32974L1.17723 4.40653C1.16154 4.43006 1.14781 4.45556 1.13604 4.48302C1.12819 4.50656 1.12231 4.53009 1.11839 4.55363C1.11446 4.57324 1.1125 4.59482 1.1125 4.61836C1.1125 4.72819 1.15173 4.82234 1.23018 4.90079C1.31256 4.97532 1.40475 5.01259 1.50674 5.01259C1.57342 5.01259 1.63619 4.99494 1.69503 4.95963C1.75387 4.92433 1.80486 4.86745 1.84801 4.78899Z" fill="#FF007A"/>
</svg>
