<svg width="5" height="5" viewBox="0 0 5 5" fill="none" xmlns="http://www.w3.org/2000/svg">
<path d="M1.79723 3.94085L2.41506 2.81699L3.04466 3.94085C3.07212 3.99185 3.1035 4.035 3.13881 4.0703C3.17804 4.10168 3.21726 4.12522 3.25649 4.14091C3.29572 4.1566 3.33494 4.16445 3.37417 4.16445C3.47616 4.16445 3.56639 4.12522 3.64484 4.04676C3.7233 3.96831 3.76252 3.87416 3.76252 3.76433C3.76252 3.7251 3.75664 3.68587 3.74487 3.64665C3.7331 3.6035 3.71545 3.56231 3.69191 3.52308L3.04466 2.48159L4.38035 2.52278C4.50588 2.52278 4.60199 2.48552 4.66867 2.41098C4.73928 2.33645 4.77459 2.24819 4.77459 2.1462C4.77459 2.04421 4.73928 1.95595 4.66867 1.88142C4.60199 1.80688 4.50588 1.76962 4.38035 1.76962L3.05643 1.81669L3.72133 0.734017C3.74095 0.698712 3.75468 0.663407 3.76252 0.628103C3.77429 0.592798 3.78017 0.557494 3.78017 0.522189C3.78017 0.45158 3.76252 0.384893 3.72722 0.32213C3.69191 0.259366 3.64484 0.210332 3.586 0.175027C3.53108 0.139723 3.47028 0.12207 3.40359 0.12207C3.34083 0.12207 3.27806 0.141684 3.2153 0.180911C3.15254 0.220139 3.09762 0.27898 3.05055 0.357434L2.41506 1.50483L1.77958 0.339782C1.77174 0.324091 1.76193 0.3084 1.75016 0.292709C1.73839 0.277018 1.72662 0.263289 1.71486 0.25152C1.70701 0.239752 1.6972 0.229945 1.68544 0.2221C1.67367 0.210332 1.6619 0.200525 1.65013 0.192679C1.63836 0.180911 1.62463 0.173066 1.60894 0.169143C1.59717 0.161298 1.58344 0.155414 1.56775 0.151491C1.55599 0.143645 1.54422 0.139723 1.53245 0.139723C1.52068 0.1358 1.50695 0.133839 1.49126 0.133839C1.47949 0.129916 1.46576 0.127954 1.45007 0.127954C1.34808 0.127954 1.2559 0.167182 1.17352 0.245636C1.09506 0.320168 1.05584 0.412353 1.05584 0.522189C1.05584 0.600644 1.07937 0.677137 1.12645 0.751669L1.77958 1.81669L0.473311 1.76962C0.390934 1.76962 0.318364 1.78923 0.2556 1.82846C0.196759 1.86376 0.153609 1.90887 0.12615 1.96379C0.0986905 2.01871 0.0849609 2.07951 0.0849609 2.1462C0.0849609 2.24819 0.118304 2.33645 0.184991 2.41098C0.2556 2.48552 0.351707 2.52278 0.473311 2.52278L1.79723 2.48159L1.12645 3.55838C1.11076 3.58192 1.09703 3.60742 1.08526 3.63488C1.07741 3.65841 1.07153 3.68195 1.06761 3.70549C1.06368 3.7251 1.06172 3.74667 1.06172 3.77021C1.06172 3.88005 1.10095 3.97419 1.1794 4.05265C1.26178 4.12718 1.35396 4.16445 1.45596 4.16445C1.52264 4.16445 1.58541 4.14679 1.64425 4.11149C1.70309 4.07618 1.75408 4.0193 1.79723 3.94085Z" fill="#FF007A"/>
</svg>
