<svg width="5" height="5" viewBox="0 0 5 5" fill="none" xmlns="http://www.w3.org/2000/svg">
<path d="M1.77087 3.94085L2.3887 2.81699L3.0183 3.94085C3.04575 3.99185 3.07714 4.035 3.11244 4.0703C3.15167 4.10168 3.1909 4.12522 3.23012 4.14091C3.26935 4.1566 3.30858 4.16445 3.3478 4.16445C3.4498 4.16445 3.54002 4.12522 3.61847 4.04676C3.69693 3.96831 3.73616 3.87416 3.73616 3.76433C3.73616 3.7251 3.73027 3.68587 3.7185 3.64665C3.70673 3.6035 3.68908 3.56231 3.66555 3.52308L3.0183 2.48159L4.35399 2.52278C4.47951 2.52278 4.57562 2.48552 4.64231 2.41098C4.71292 2.33645 4.74822 2.24819 4.74822 2.1462C4.74822 2.04421 4.71292 1.95595 4.64231 1.88142C4.57562 1.80688 4.47951 1.76962 4.35399 1.76962L3.03006 1.81669L3.69497 0.734017C3.71458 0.698712 3.72831 0.663407 3.73616 0.628103C3.74792 0.592798 3.75381 0.557494 3.75381 0.522189C3.75381 0.45158 3.73616 0.384893 3.70085 0.32213C3.66555 0.259366 3.61847 0.210332 3.55963 0.175027C3.50471 0.139723 3.44391 0.12207 3.37723 0.12207C3.31446 0.12207 3.2517 0.141684 3.18893 0.180911C3.12617 0.220139 3.07125 0.27898 3.02418 0.357434L2.3887 1.50483L1.75321 0.339782C1.74537 0.324091 1.73556 0.3084 1.72379 0.292709C1.71203 0.277018 1.70026 0.263289 1.68849 0.25152C1.68064 0.239752 1.67084 0.229945 1.65907 0.2221C1.6473 0.210332 1.63553 0.200525 1.62376 0.192679C1.612 0.180911 1.59827 0.173066 1.58258 0.169143C1.57081 0.161298 1.55708 0.155414 1.54139 0.151491C1.52962 0.143645 1.51785 0.139723 1.50608 0.139723C1.49431 0.1358 1.48058 0.133839 1.46489 0.133839C1.45313 0.129916 1.4394 0.127954 1.4237 0.127954C1.32171 0.127954 1.22953 0.167182 1.14715 0.245636C1.0687 0.320168 1.02947 0.412353 1.02947 0.522189C1.02947 0.600644 1.05301 0.677137 1.10008 0.751669L1.75321 1.81669L0.446944 1.76962C0.364567 1.76962 0.291996 1.78923 0.229233 1.82846C0.170392 1.86376 0.127242 1.90887 0.0997824 1.96379C0.0723233 2.01871 0.0585938 2.07951 0.0585938 2.1462C0.0585938 2.24819 0.091937 2.33645 0.158623 2.41098C0.229233 2.48552 0.32534 2.52278 0.446944 2.52278L1.77087 2.48159L1.10008 3.55838C1.08439 3.58192 1.07066 3.60742 1.05889 3.63488C1.05105 3.65841 1.04516 3.68195 1.04124 3.70549C1.03732 3.7251 1.03535 3.74667 1.03535 3.77021C1.03535 3.88005 1.07458 3.97419 1.15304 4.05265C1.23541 4.12718 1.3276 4.16445 1.42959 4.16445C1.49628 4.16445 1.55904 4.14679 1.61788 4.11149C1.67672 4.07618 1.72772 4.0193 1.77087 3.94085Z" fill="#FF007A"/>
</svg>
