<svg width="5" height="5" viewBox="0 0 5 5" fill="none" xmlns="http://www.w3.org/2000/svg">
<path d="M1.74548 3.94085L2.36331 2.81699L2.9929 3.94085C3.02036 3.99185 3.05175 4.035 3.08705 4.0703C3.12628 4.10168 3.1655 4.12522 3.20473 4.14091C3.24396 4.1566 3.28319 4.16445 3.32241 4.16445C3.42441 4.16445 3.51463 4.12522 3.59308 4.04676C3.67154 3.96831 3.71076 3.87416 3.71076 3.76433C3.71076 3.7251 3.70488 3.68587 3.69311 3.64665C3.68134 3.6035 3.66369 3.56231 3.64016 3.52308L2.9929 2.48159L4.32859 2.52278C4.45412 2.52278 4.55023 2.48552 4.61692 2.41098C4.68752 2.33645 4.72283 2.24819 4.72283 2.1462C4.72283 2.04421 4.68752 1.95595 4.61692 1.88142C4.55023 1.80688 4.45412 1.76962 4.32859 1.76962L3.00467 1.81669L3.66958 0.734017C3.68919 0.698712 3.70292 0.663407 3.71076 0.628103C3.72253 0.592798 3.72842 0.557494 3.72842 0.522189C3.72842 0.45158 3.71076 0.384893 3.67546 0.32213C3.64016 0.259366 3.59308 0.210332 3.53424 0.175027C3.47932 0.139723 3.41852 0.12207 3.35183 0.12207C3.28907 0.12207 3.22631 0.141684 3.16354 0.180911C3.10078 0.220139 3.04586 0.27898 2.99879 0.357434L2.36331 1.50483L1.72782 0.339782C1.71998 0.324091 1.71017 0.3084 1.6984 0.292709C1.68663 0.277018 1.67487 0.263289 1.6631 0.25152C1.65525 0.239752 1.64545 0.229945 1.63368 0.2221C1.62191 0.210332 1.61014 0.200525 1.59837 0.192679C1.58661 0.180911 1.57288 0.173066 1.55718 0.169143C1.54542 0.161298 1.53169 0.155414 1.516 0.151491C1.50423 0.143645 1.49246 0.139723 1.48069 0.139723C1.46892 0.1358 1.45519 0.133839 1.4395 0.133839C1.42773 0.129916 1.414 0.127954 1.39831 0.127954C1.29632 0.127954 1.20414 0.167182 1.12176 0.245636C1.04331 0.320168 1.00408 0.412353 1.00408 0.522189C1.00408 0.600644 1.02762 0.677137 1.07469 0.751669L1.72782 1.81669L0.421554 1.76962C0.339176 1.76962 0.266606 1.78923 0.203842 1.82846C0.145001 1.86376 0.101851 1.90887 0.0743918 1.96379C0.0469327 2.01871 0.0332031 2.07951 0.0332031 2.1462C0.0332031 2.24819 0.0665464 2.33645 0.133233 2.41098C0.203842 2.48552 0.299949 2.52278 0.421554 2.52278L1.74548 2.48159L1.07469 3.55838C1.059 3.58192 1.04527 3.60742 1.0335 3.63488C1.02565 3.65841 1.01977 3.68195 1.01585 3.70549C1.01192 3.7251 1.00996 3.74667 1.00996 3.77021C1.00996 3.88005 1.04919 3.97419 1.12765 4.05265C1.21002 4.12718 1.30221 4.16445 1.4042 4.16445C1.47088 4.16445 1.53365 4.14679 1.59249 4.11149C1.65133 4.07618 1.70233 4.0193 1.74548 3.94085Z" fill="#FF007A"/>
</svg>
