<svg width="5" height="5" viewBox="0 0 5 5" fill="none" xmlns="http://www.w3.org/2000/svg">
<path d="M1.72009 3.94085L2.33792 2.81699L2.96751 3.94085C2.99497 3.99185 3.02635 4.035 3.06166 4.0703C3.10089 4.10168 3.14011 4.12522 3.17934 4.14091C3.21857 4.1566 3.2578 4.16445 3.29702 4.16445C3.39901 4.16445 3.48924 4.12522 3.56769 4.04676C3.64615 3.96831 3.68537 3.87416 3.68537 3.76433C3.68537 3.7251 3.67949 3.68587 3.66772 3.64665C3.65595 3.6035 3.6383 3.56231 3.61476 3.52308L2.96751 2.48159L4.3032 2.52278C4.42873 2.52278 4.52484 2.48552 4.59153 2.41098C4.66213 2.33645 4.69744 2.24819 4.69744 2.1462C4.69744 2.04421 4.66213 1.95595 4.59153 1.88142C4.52484 1.80688 4.42873 1.76962 4.3032 1.76962L2.97928 1.81669L3.64419 0.734017C3.6638 0.698712 3.67753 0.663407 3.68537 0.628103C3.69714 0.592798 3.70303 0.557494 3.70303 0.522189C3.70303 0.45158 3.68537 0.384893 3.65007 0.32213C3.61476 0.259366 3.56769 0.210332 3.50885 0.175027C3.45393 0.139723 3.39313 0.12207 3.32644 0.12207C3.26368 0.12207 3.20092 0.141684 3.13815 0.180911C3.07539 0.220139 3.02047 0.27898 2.9734 0.357434L2.33792 1.50483L1.70243 0.339782C1.69459 0.324091 1.68478 0.3084 1.67301 0.292709C1.66124 0.277018 1.64948 0.263289 1.63771 0.25152C1.62986 0.239752 1.62006 0.229945 1.60829 0.2221C1.59652 0.210332 1.58475 0.200525 1.57298 0.192679C1.56121 0.180911 1.54748 0.173066 1.53179 0.169143C1.52003 0.161298 1.5063 0.155414 1.49061 0.151491C1.47884 0.143645 1.46707 0.139723 1.4553 0.139723C1.44353 0.1358 1.4298 0.133839 1.41411 0.133839C1.40234 0.129916 1.38861 0.127954 1.37292 0.127954C1.27093 0.127954 1.17875 0.167182 1.09637 0.245636C1.01792 0.320168 0.978689 0.412353 0.978689 0.522189C0.978689 0.600644 1.00223 0.677137 1.0493 0.751669L1.70243 1.81669L0.396163 1.76962C0.313786 1.76962 0.241215 1.78923 0.178451 1.82846C0.11961 1.86376 0.0764603 1.90887 0.0490012 1.96379C0.0215421 2.01871 0.0078125 2.07951 0.0078125 2.1462C0.0078125 2.24819 0.0411557 2.33645 0.107842 2.41098C0.178451 2.48552 0.274558 2.52278 0.396163 2.52278L1.72009 2.48159L1.0493 3.55838C1.03361 3.58192 1.01988 3.60742 1.00811 3.63488C1.00026 3.65841 0.99438 3.68195 0.990457 3.70549C0.986534 3.7251 0.984573 3.74667 0.984573 3.77021C0.984573 3.88005 1.0238 3.97419 1.10225 4.05265C1.18463 4.12718 1.27682 4.16445 1.37881 4.16445C1.44549 4.16445 1.50826 4.14679 1.5671 4.11149C1.62594 4.07618 1.67694 4.0193 1.72009 3.94085Z" fill="#FF007A"/>
</svg>
