<svg width="5" height="6" viewBox="0 0 5 6" fill="none" xmlns="http://www.w3.org/2000/svg">
<path d="M1.82262 4.78899L2.44045 3.66513L3.07005 4.78899C3.09751 4.83999 3.12889 4.88314 3.1642 4.91844C3.20343 4.94983 3.24265 4.97336 3.28188 4.98905C3.32111 5.00474 3.36034 5.01259 3.39956 5.01259C3.50155 5.01259 3.59178 4.97336 3.67023 4.89491C3.74869 4.81645 3.78791 4.72231 3.78791 4.61247C3.78791 4.57324 3.78203 4.53402 3.77026 4.49479C3.75849 4.45164 3.74084 4.41045 3.7173 4.37122L3.07005 3.32974L4.40574 3.37093C4.53127 3.37093 4.62738 3.33366 4.69406 3.25913C4.76467 3.1846 4.79998 3.09634 4.79998 2.99434C4.79998 2.89235 4.76467 2.80409 4.69406 2.72956C4.62738 2.65503 4.53127 2.61776 4.40574 2.61776L3.08182 2.66484L3.74672 1.58216C3.76634 1.54686 3.78007 1.51155 3.78791 1.47625C3.79968 1.44094 3.80557 1.40564 3.80557 1.37033C3.80557 1.29972 3.78791 1.23304 3.75261 1.17027C3.7173 1.10751 3.67023 1.05848 3.61139 1.02317C3.55647 0.987867 3.49567 0.970215 3.42898 0.970215C3.36622 0.970215 3.30346 0.989829 3.24069 1.02906C3.17793 1.06828 3.12301 1.12712 3.07594 1.20558L2.44045 2.35298L1.80497 1.18793C1.79713 1.17224 1.78732 1.15654 1.77555 1.14085C1.76378 1.12516 1.75202 1.11143 1.74025 1.09967C1.7324 1.0879 1.72259 1.07809 1.71083 1.07024C1.69906 1.05848 1.68729 1.04867 1.67552 1.04082C1.66375 1.02906 1.65002 1.02121 1.63433 1.01729C1.62256 1.00944 1.60884 1.00356 1.59314 0.999635C1.58138 0.99179 1.56961 0.987867 1.55784 0.987867C1.54607 0.983944 1.53234 0.981983 1.51665 0.981983C1.50488 0.97806 1.49115 0.976099 1.47546 0.976099C1.37347 0.976099 1.28129 1.01533 1.19891 1.09378C1.12046 1.16831 1.08123 1.2605 1.08123 1.37033C1.08123 1.44879 1.10476 1.52528 1.15184 1.59981L1.80497 2.66484L0.498702 2.61776C0.416325 2.61776 0.343754 2.63738 0.28099 2.6766C0.222149 2.71191 0.178999 2.75702 0.15154 2.81194C0.124081 2.86686 0.110352 2.92766 0.110352 2.99434C0.110352 3.09634 0.143695 3.1846 0.210381 3.25913C0.28099 3.33366 0.377097 3.37093 0.498702 3.37093L1.82262 3.32974L1.15184 4.40653C1.13615 4.43006 1.12242 4.45556 1.11065 4.48302C1.1028 4.50656 1.09692 4.53009 1.093 4.55363C1.08907 4.57324 1.08711 4.59482 1.08711 4.61836C1.08711 4.72819 1.12634 4.82234 1.20479 4.90079C1.28717 4.97532 1.37936 5.01259 1.48135 5.01259C1.54803 5.01259 1.6108 4.99494 1.66964 4.95963C1.72848 4.92433 1.77947 4.86745 1.82262 4.78899Z" fill="#FF007A"/>
</svg>
