<svg width="5" height="6" viewBox="0 0 5 6" fill="none" xmlns="http://www.w3.org/2000/svg">
<path d="M1.79723 4.78899L2.41506 3.66513L3.04466 4.78899C3.07212 4.83999 3.1035 4.88314 3.13881 4.91844C3.17804 4.94983 3.21726 4.97336 3.25649 4.98905C3.29572 5.00474 3.33494 5.01259 3.37417 5.01259C3.47616 5.01259 3.56639 4.97336 3.64484 4.89491C3.7233 4.81645 3.76252 4.72231 3.76252 4.61247C3.76252 4.57324 3.75664 4.53402 3.74487 4.49479C3.7331 4.45164 3.71545 4.41045 3.69191 4.37122L3.04466 3.32974L4.38035 3.37093C4.50588 3.37093 4.60199 3.33366 4.66867 3.25913C4.73928 3.1846 4.77459 3.09634 4.77459 2.99434C4.77459 2.89235 4.73928 2.80409 4.66867 2.72956C4.60199 2.65503 4.50588 2.61776 4.38035 2.61776L3.05643 2.66484L3.72133 1.58216C3.74095 1.54686 3.75468 1.51155 3.76252 1.47625C3.77429 1.44094 3.78017 1.40564 3.78017 1.37033C3.78017 1.29972 3.76252 1.23304 3.72722 1.17027C3.69191 1.10751 3.64484 1.05848 3.586 1.02317C3.53108 0.987867 3.47028 0.970215 3.40359 0.970215C3.34083 0.970215 3.27806 0.989829 3.2153 1.02906C3.15254 1.06828 3.09762 1.12712 3.05055 1.20558L2.41506 2.35298L1.77958 1.18793C1.77174 1.17224 1.76193 1.15654 1.75016 1.14085C1.73839 1.12516 1.72662 1.11143 1.71486 1.09967C1.70701 1.0879 1.6972 1.07809 1.68544 1.07024C1.67367 1.05848 1.6619 1.04867 1.65013 1.04082C1.63836 1.02906 1.62463 1.02121 1.60894 1.01729C1.59717 1.00944 1.58344 1.00356 1.56775 0.999635C1.55599 0.99179 1.54422 0.987867 1.53245 0.987867C1.52068 0.983944 1.50695 0.981983 1.49126 0.981983C1.47949 0.97806 1.46576 0.976099 1.45007 0.976099C1.34808 0.976099 1.2559 1.01533 1.17352 1.09378C1.09506 1.16831 1.05584 1.2605 1.05584 1.37033C1.05584 1.44879 1.07937 1.52528 1.12645 1.59981L1.77958 2.66484L0.473311 2.61776C0.390934 2.61776 0.318364 2.63738 0.2556 2.6766C0.196759 2.71191 0.153609 2.75702 0.12615 2.81194C0.0986905 2.86686 0.0849609 2.92766 0.0849609 2.99434C0.0849609 3.09634 0.118304 3.1846 0.184991 3.25913C0.2556 3.33366 0.351707 3.37093 0.473311 3.37093L1.79723 3.32974L1.12645 4.40653C1.11076 4.43006 1.09703 4.45556 1.08526 4.48302C1.07741 4.50656 1.07153 4.53009 1.06761 4.55363C1.06368 4.57324 1.06172 4.59482 1.06172 4.61836C1.06172 4.72819 1.10095 4.82234 1.1794 4.90079C1.26178 4.97532 1.35396 5.01259 1.45596 5.01259C1.52264 5.01259 1.58541 4.99494 1.64425 4.95963C1.70309 4.92433 1.75408 4.86745 1.79723 4.78899Z" fill="#FF007A"/>
</svg>
