<svg width="5" height="6" viewBox="0 0 5 6" fill="none" xmlns="http://www.w3.org/2000/svg">
<path d="M1.77087 4.78899L2.3887 3.66513L3.0183 4.78899C3.04575 4.83999 3.07714 4.88314 3.11244 4.91844C3.15167 4.94983 3.1909 4.97336 3.23012 4.98905C3.26935 5.00474 3.30858 5.01259 3.3478 5.01259C3.4498 5.01259 3.54002 4.97336 3.61847 4.89491C3.69693 4.81645 3.73616 4.72231 3.73616 4.61247C3.73616 4.57324 3.73027 4.53402 3.7185 4.49479C3.70673 4.45164 3.68908 4.41045 3.66555 4.37122L3.0183 3.32974L4.35399 3.37093C4.47951 3.37093 4.57562 3.33366 4.64231 3.25913C4.71292 3.1846 4.74822 3.09634 4.74822 2.99434C4.74822 2.89235 4.71292 2.80409 4.64231 2.72956C4.57562 2.65503 4.47951 2.61776 4.35399 2.61776L3.03006 2.66484L3.69497 1.58216C3.71458 1.54686 3.72831 1.51155 3.73616 1.47625C3.74792 1.44094 3.75381 1.40564 3.75381 1.37033C3.75381 1.29972 3.73616 1.23304 3.70085 1.17027C3.66555 1.10751 3.61847 1.05848 3.55963 1.02317C3.50471 0.987867 3.44391 0.970215 3.37723 0.970215C3.31446 0.970215 3.2517 0.989829 3.18893 1.02906C3.12617 1.06828 3.07125 1.12712 3.02418 1.20558L2.3887 2.35298L1.75321 1.18793C1.74537 1.17224 1.73556 1.15654 1.72379 1.14085C1.71203 1.12516 1.70026 1.11143 1.68849 1.09967C1.68064 1.0879 1.67084 1.07809 1.65907 1.07024C1.6473 1.05848 1.63553 1.04867 1.62376 1.04082C1.612 1.02906 1.59827 1.02121 1.58258 1.01729C1.57081 1.00944 1.55708 1.00356 1.54139 0.999635C1.52962 0.99179 1.51785 0.987867 1.50608 0.987867C1.49431 0.983944 1.48058 0.981983 1.46489 0.981983C1.45313 0.97806 1.4394 0.976099 1.4237 0.976099C1.32171 0.976099 1.22953 1.01533 1.14715 1.09378C1.0687 1.16831 1.02947 1.2605 1.02947 1.37033C1.02947 1.44879 1.05301 1.52528 1.10008 1.59981L1.75321 2.66484L0.446944 2.61776C0.364567 2.61776 0.291996 2.63738 0.229233 2.6766C0.170392 2.71191 0.127242 2.75702 0.0997824 2.81194C0.0723233 2.86686 0.0585938 2.92766 0.0585938 2.99434C0.0585938 3.09634 0.091937 3.1846 0.158623 3.25913C0.229233 3.33366 0.32534 3.37093 0.446944 3.37093L1.77087 3.32974L1.10008 4.40653C1.08439 4.43006 1.07066 4.45556 1.05889 4.48302C1.05105 4.50656 1.04516 4.53009 1.04124 4.55363C1.03732 4.57324 1.03535 4.59482 1.03535 4.61836C1.03535 4.72819 1.07458 4.82234 1.15304 4.90079C1.23541 4.97532 1.3276 5.01259 1.42959 5.01259C1.49628 5.01259 1.55904 4.99494 1.61788 4.95963C1.67672 4.92433 1.72772 4.86745 1.77087 4.78899Z" fill="#FF007A"/>
</svg>
