<svg width="5" height="6" viewBox="0 0 5 6" fill="none" xmlns="http://www.w3.org/2000/svg">
<path d="M1.74548 4.78899L2.36331 3.66513L2.9929 4.78899C3.02036 4.83999 3.05175 4.88314 3.08705 4.91844C3.12628 4.94983 3.1655 4.97336 3.20473 4.98905C3.24396 5.00474 3.28319 5.01259 3.32241 5.01259C3.42441 5.01259 3.51463 4.97336 3.59308 4.89491C3.67154 4.81645 3.71076 4.72231 3.71076 4.61247C3.71076 4.57324 3.70488 4.53402 3.69311 4.49479C3.68134 4.45164 3.66369 4.41045 3.64016 4.37122L2.9929 3.32974L4.32859 3.37093C4.45412 3.37093 4.55023 3.33366 4.61692 3.25913C4.68752 3.1846 4.72283 3.09634 4.72283 2.99434C4.72283 2.89235 4.68752 2.80409 4.61692 2.72956C4.55023 2.65503 4.45412 2.61776 4.32859 2.61776L3.00467 2.66484L3.66958 1.58216C3.68919 1.54686 3.70292 1.51155 3.71076 1.47625C3.72253 1.44094 3.72842 1.40564 3.72842 1.37033C3.72842 1.29972 3.71076 1.23304 3.67546 1.17027C3.64016 1.10751 3.59308 1.05848 3.53424 1.02317C3.47932 0.987867 3.41852 0.970215 3.35183 0.970215C3.28907 0.970215 3.22631 0.989829 3.16354 1.02906C3.10078 1.06828 3.04586 1.12712 2.99879 1.20558L2.36331 2.35298L1.72782 1.18793C1.71998 1.17224 1.71017 1.15654 1.6984 1.14085C1.68663 1.12516 1.67487 1.11143 1.6631 1.09967C1.65525 1.0879 1.64545 1.07809 1.63368 1.07024C1.62191 1.05848 1.61014 1.04867 1.59837 1.04082C1.58661 1.02906 1.57288 1.02121 1.55718 1.01729C1.54542 1.00944 1.53169 1.00356 1.516 0.999635C1.50423 0.99179 1.49246 0.987867 1.48069 0.987867C1.46892 0.983944 1.45519 0.981983 1.4395 0.981983C1.42773 0.97806 1.414 0.976099 1.39831 0.976099C1.29632 0.976099 1.20414 1.01533 1.12176 1.09378C1.04331 1.16831 1.00408 1.2605 1.00408 1.37033C1.00408 1.44879 1.02762 1.52528 1.07469 1.59981L1.72782 2.66484L0.421554 2.61776C0.339176 2.61776 0.266606 2.63738 0.203842 2.6766C0.145001 2.71191 0.101851 2.75702 0.0743918 2.81194C0.0469327 2.86686 0.0332031 2.92766 0.0332031 2.99434C0.0332031 3.09634 0.0665464 3.1846 0.133233 3.25913C0.203842 3.33366 0.299949 3.37093 0.421554 3.37093L1.74548 3.32974L1.07469 4.40653C1.059 4.43006 1.04527 4.45556 1.0335 4.48302C1.02565 4.50656 1.01977 4.53009 1.01585 4.55363C1.01192 4.57324 1.00996 4.59482 1.00996 4.61836C1.00996 4.72819 1.04919 4.82234 1.12765 4.90079C1.21002 4.97532 1.30221 5.01259 1.4042 5.01259C1.47088 5.01259 1.53365 4.99494 1.59249 4.95963C1.65133 4.92433 1.70233 4.86745 1.74548 4.78899Z" fill="#FF007A"/>
</svg>
