<svg width="5" height="6" viewBox="0 0 5 6" fill="none" xmlns="http://www.w3.org/2000/svg">
<path d="M1.72009 4.78899L2.33792 3.66513L2.96751 4.78899C2.99497 4.83999 3.02635 4.88314 3.06166 4.91844C3.10089 4.94983 3.14011 4.97336 3.17934 4.98905C3.21857 5.00474 3.2578 5.01259 3.29702 5.01259C3.39901 5.01259 3.48924 4.97336 3.56769 4.89491C3.64615 4.81645 3.68537 4.72231 3.68537 4.61247C3.68537 4.57324 3.67949 4.53402 3.66772 4.49479C3.65595 4.45164 3.6383 4.41045 3.61476 4.37122L2.96751 3.32974L4.3032 3.37093C4.42873 3.37093 4.52484 3.33366 4.59153 3.25913C4.66213 3.1846 4.69744 3.09634 4.69744 2.99434C4.69744 2.89235 4.66213 2.80409 4.59153 2.72956C4.52484 2.65503 4.42873 2.61776 4.3032 2.61776L2.97928 2.66484L3.64419 1.58216C3.6638 1.54686 3.67753 1.51155 3.68537 1.47625C3.69714 1.44094 3.70303 1.40564 3.70303 1.37033C3.70303 1.29972 3.68537 1.23304 3.65007 1.17027C3.61476 1.10751 3.56769 1.05848 3.50885 1.02317C3.45393 0.987867 3.39313 0.970215 3.32644 0.970215C3.26368 0.970215 3.20092 0.989829 3.13815 1.02906C3.07539 1.06828 3.02047 1.12712 2.9734 1.20558L2.33792 2.35298L1.70243 1.18793C1.69459 1.17224 1.68478 1.15654 1.67301 1.14085C1.66124 1.12516 1.64948 1.11143 1.63771 1.09967C1.62986 1.0879 1.62006 1.07809 1.60829 1.07024C1.59652 1.05848 1.58475 1.04867 1.57298 1.04082C1.56121 1.02906 1.54748 1.02121 1.53179 1.01729C1.52003 1.00944 1.5063 1.00356 1.49061 0.999635C1.47884 0.99179 1.46707 0.987867 1.4553 0.987867C1.44353 0.983944 1.4298 0.981983 1.41411 0.981983C1.40234 0.97806 1.38861 0.976099 1.37292 0.976099C1.27093 0.976099 1.17875 1.01533 1.09637 1.09378C1.01792 1.16831 0.978689 1.2605 0.978689 1.37033C0.978689 1.44879 1.00223 1.52528 1.0493 1.59981L1.70243 2.66484L0.396163 2.61776C0.313786 2.61776 0.241215 2.63738 0.178451 2.6766C0.11961 2.71191 0.0764603 2.75702 0.0490012 2.81194C0.0215421 2.86686 0.0078125 2.92766 0.0078125 2.99434C0.0078125 3.09634 0.0411557 3.1846 0.107842 3.25913C0.178451 3.33366 0.274558 3.37093 0.396163 3.37093L1.72009 3.32974L1.0493 4.40653C1.03361 4.43006 1.01988 4.45556 1.00811 4.48302C1.00026 4.50656 0.99438 4.53009 0.990457 4.55363C0.986534 4.57324 0.984573 4.59482 0.984573 4.61836C0.984573 4.72819 1.0238 4.82234 1.10225 4.90079C1.18463 4.97532 1.27682 5.01259 1.37881 5.01259C1.44549 5.01259 1.50826 4.99494 1.5671 4.95963C1.62594 4.92433 1.67694 4.86745 1.72009 4.78899Z" fill="#FF007A"/>
</svg>
