<svg width="5" height="5" viewBox="0 0 5 5" fill="none" xmlns="http://www.w3.org/2000/svg">
<path d="M1.87341 3.94085L2.49124 2.81699L3.12083 3.94085C3.14829 3.99185 3.17968 4.035 3.21498 4.0703C3.25421 4.10168 3.29343 4.12522 3.33266 4.14091C3.37189 4.1566 3.41112 4.16445 3.45034 4.16445C3.55233 4.16445 3.64256 4.12522 3.72101 4.04676C3.79947 3.96831 3.83869 3.87416 3.83869 3.76433C3.83869 3.7251 3.83281 3.68587 3.82104 3.64665C3.80927 3.6035 3.79162 3.56231 3.76809 3.52308L3.12083 2.48159L4.45652 2.52278C4.58205 2.52278 4.67816 2.48552 4.74485 2.41098C4.81545 2.33645 4.85076 2.24819 4.85076 2.1462C4.85076 2.04421 4.81545 1.95595 4.74485 1.88142C4.67816 1.80688 4.58205 1.76962 4.45652 1.76962L3.1326 1.81669L3.79751 0.734017C3.81712 0.698712 3.83085 0.663407 3.83869 0.628103C3.85046 0.592798 3.85635 0.557494 3.85635 0.522189C3.85635 0.45158 3.83869 0.384893 3.80339 0.32213C3.76809 0.259366 3.72101 0.210332 3.66217 0.175027C3.60725 0.139723 3.54645 0.12207 3.47976 0.12207C3.417 0.12207 3.35424 0.141684 3.29147 0.180911C3.22871 0.220139 3.17379 0.27898 3.12672 0.357434L2.49124 1.50483L1.85575 0.339782C1.84791 0.324091 1.8381 0.3084 1.82633 0.292709C1.81456 0.277018 1.8028 0.263289 1.79103 0.25152C1.78318 0.239752 1.77338 0.229945 1.76161 0.2221C1.74984 0.210332 1.73807 0.200525 1.7263 0.192679C1.71453 0.180911 1.70081 0.173066 1.68511 0.169143C1.67335 0.161298 1.65962 0.155414 1.64393 0.151491C1.63216 0.143645 1.62039 0.139723 1.60862 0.139723C1.59685 0.1358 1.58312 0.133839 1.56743 0.133839C1.55566 0.129916 1.54193 0.127954 1.52624 0.127954C1.42425 0.127954 1.33207 0.167182 1.24969 0.245636C1.17124 0.320168 1.13201 0.412353 1.13201 0.522189C1.13201 0.600644 1.15555 0.677137 1.20262 0.751669L1.85575 1.81669L0.549483 1.76962C0.467106 1.76962 0.394535 1.78923 0.331772 1.82846C0.272931 1.86376 0.229781 1.90887 0.202322 1.96379C0.174862 2.01871 0.161133 2.07951 0.161133 2.1462C0.161133 2.24819 0.194476 2.33645 0.261162 2.41098C0.331772 2.48552 0.427879 2.52278 0.549483 2.52278L1.87341 2.48159L1.20262 3.55838C1.18693 3.58192 1.1732 3.60742 1.16143 3.63488C1.15358 3.65841 1.1477 3.68195 1.14378 3.70549C1.13985 3.7251 1.13789 3.74667 1.13789 3.77021C1.13789 3.88005 1.17712 3.97419 1.25558 4.05265C1.33795 4.12718 1.43014 4.16445 1.53213 4.16445C1.59881 4.16445 1.66158 4.14679 1.72042 4.11149C1.77926 4.07618 1.83026 4.0193 1.87341 3.94085Z" fill="#FF007A"/>
</svg>
