<svg width="5" height="5" viewBox="0 0 5 5" fill="none" xmlns="http://www.w3.org/2000/svg">
<path d="M1.84801 3.94085L2.46585 2.81699L3.09544 3.94085C3.1229 3.99185 3.15428 4.035 3.18959 4.0703C3.22882 4.10168 3.26804 4.12522 3.30727 4.14091C3.3465 4.1566 3.38573 4.16445 3.42495 4.16445C3.52694 4.16445 3.61717 4.12522 3.69562 4.04676C3.77408 3.96831 3.8133 3.87416 3.8133 3.76433C3.8133 3.7251 3.80742 3.68587 3.79565 3.64665C3.78388 3.6035 3.76623 3.56231 3.74269 3.52308L3.09544 2.48159L4.43113 2.52278C4.55666 2.52278 4.65277 2.48552 4.71945 2.41098C4.79006 2.33645 4.82537 2.24819 4.82537 2.1462C4.82537 2.04421 4.79006 1.95595 4.71945 1.88142C4.65277 1.80688 4.55666 1.76962 4.43113 1.76962L3.10721 1.81669L3.77211 0.734017C3.79173 0.698712 3.80546 0.663407 3.8133 0.628103C3.82507 0.592798 3.83096 0.557494 3.83096 0.522189C3.83096 0.45158 3.8133 0.384893 3.778 0.32213C3.74269 0.259366 3.69562 0.210332 3.63678 0.175027C3.58186 0.139723 3.52106 0.12207 3.45437 0.12207C3.39161 0.12207 3.32885 0.141684 3.26608 0.180911C3.20332 0.220139 3.1484 0.27898 3.10133 0.357434L2.46585 1.50483L1.83036 0.339782C1.82252 0.324091 1.81271 0.3084 1.80094 0.292709C1.78917 0.277018 1.77741 0.263289 1.76564 0.25152C1.75779 0.239752 1.74799 0.229945 1.73622 0.2221C1.72445 0.210332 1.71268 0.200525 1.70091 0.192679C1.68914 0.180911 1.67541 0.173066 1.65972 0.169143C1.64796 0.161298 1.63423 0.155414 1.61853 0.151491C1.60677 0.143645 1.595 0.139723 1.58323 0.139723C1.57146 0.1358 1.55773 0.133839 1.54204 0.133839C1.53027 0.129916 1.51654 0.127954 1.50085 0.127954C1.39886 0.127954 1.30668 0.167182 1.2243 0.245636C1.14585 0.320168 1.10662 0.412353 1.10662 0.522189C1.10662 0.600644 1.13015 0.677137 1.17723 0.751669L1.83036 1.81669L0.524093 1.76962C0.441715 1.76962 0.369145 1.78923 0.306381 1.82846C0.24754 1.86376 0.20439 1.90887 0.176931 1.96379C0.149472 2.01871 0.135742 2.07951 0.135742 2.1462C0.135742 2.24819 0.169085 2.33645 0.235772 2.41098C0.306381 2.48552 0.402488 2.52278 0.524093 2.52278L1.84801 2.48159L1.17723 3.55838C1.16154 3.58192 1.14781 3.60742 1.13604 3.63488C1.12819 3.65841 1.12231 3.68195 1.11839 3.70549C1.11446 3.7251 1.1125 3.74667 1.1125 3.77021C1.1125 3.88005 1.15173 3.97419 1.23018 4.05265C1.31256 4.12718 1.40475 4.16445 1.50674 4.16445C1.57342 4.16445 1.63619 4.14679 1.69503 4.11149C1.75387 4.07618 1.80486 4.0193 1.84801 3.94085Z" fill="#FF007A"/>
</svg>
