<svg width="5" height="5" viewBox="0 0 5 5" fill="none" xmlns="http://www.w3.org/2000/svg">
<path d="M1.82262 3.94085L2.44045 2.81699L3.07005 3.94085C3.09751 3.99185 3.12889 4.035 3.1642 4.0703C3.20343 4.10168 3.24265 4.12522 3.28188 4.14091C3.32111 4.1566 3.36034 4.16445 3.39956 4.16445C3.50155 4.16445 3.59178 4.12522 3.67023 4.04676C3.74869 3.96831 3.78791 3.87416 3.78791 3.76433C3.78791 3.7251 3.78203 3.68587 3.77026 3.64665C3.75849 3.6035 3.74084 3.56231 3.7173 3.52308L3.07005 2.48159L4.40574 2.52278C4.53127 2.52278 4.62738 2.48552 4.69406 2.41098C4.76467 2.33645 4.79998 2.24819 4.79998 2.1462C4.79998 2.04421 4.76467 1.95595 4.69406 1.88142C4.62738 1.80688 4.53127 1.76962 4.40574 1.76962L3.08182 1.81669L3.74672 0.734017C3.76634 0.698712 3.78007 0.663407 3.78791 0.628103C3.79968 0.592798 3.80557 0.557494 3.80557 0.522189C3.80557 0.45158 3.78791 0.384893 3.75261 0.32213C3.7173 0.259366 3.67023 0.210332 3.61139 0.175027C3.55647 0.139723 3.49567 0.12207 3.42898 0.12207C3.36622 0.12207 3.30346 0.141684 3.24069 0.180911C3.17793 0.220139 3.12301 0.27898 3.07594 0.357434L2.44045 1.50483L1.80497 0.339782C1.79713 0.324091 1.78732 0.3084 1.77555 0.292709C1.76378 0.277018 1.75202 0.263289 1.74025 0.25152C1.7324 0.239752 1.72259 0.229945 1.71083 0.2221C1.69906 0.210332 1.68729 0.200525 1.67552 0.192679C1.66375 0.180911 1.65002 0.173066 1.63433 0.169143C1.62256 0.161298 1.60884 0.155414 1.59314 0.151491C1.58138 0.143645 1.56961 0.139723 1.55784 0.139723C1.54607 0.1358 1.53234 0.133839 1.51665 0.133839C1.50488 0.129916 1.49115 0.127954 1.47546 0.127954C1.37347 0.127954 1.28129 0.167182 1.19891 0.245636C1.12046 0.320168 1.08123 0.412353 1.08123 0.522189C1.08123 0.600644 1.10476 0.677137 1.15184 0.751669L1.80497 1.81669L0.498702 1.76962C0.416325 1.76962 0.343754 1.78923 0.28099 1.82846C0.222149 1.86376 0.178999 1.90887 0.15154 1.96379C0.124081 2.01871 0.110352 2.07951 0.110352 2.1462C0.110352 2.24819 0.143695 2.33645 0.210381 2.41098C0.28099 2.48552 0.377097 2.52278 0.498702 2.52278L1.82262 2.48159L1.15184 3.55838C1.13615 3.58192 1.12242 3.60742 1.11065 3.63488C1.1028 3.65841 1.09692 3.68195 1.093 3.70549C1.08907 3.7251 1.08711 3.74667 1.08711 3.77021C1.08711 3.88005 1.12634 3.97419 1.20479 4.05265C1.28717 4.12718 1.37936 4.16445 1.48135 4.16445C1.54803 4.16445 1.6108 4.14679 1.66964 4.11149C1.72848 4.07618 1.77947 4.0193 1.82262 3.94085Z" fill="#FF007A"/>
</svg>
