<svg width="260" height="58" viewBox="0 0 260 58" fill="none" xmlns="http://www.w3.org/2000/svg">
<g clip-path="url(#clip0_3_466)">
<path d="M104.325 33.4113L99.7992 21.0311C99.6145 20.5248 98.9087 20.5248 98.7236 21.0311L94.1985 33.4121C94.1664 33.5001 94.1557 33.5947 94.1674 33.6878C94.1791 33.7809 94.2128 33.8697 94.2656 33.9467C94.3184 34.0238 94.3889 34.0867 94.4709 34.1301C94.5528 34.1735 94.644 34.1962 94.7364 34.1962H103.787C103.88 34.1962 103.971 34.1735 104.053 34.13C104.135 34.0865 104.205 34.0235 104.258 33.9465C104.311 33.8694 104.344 33.7805 104.356 33.6874C104.368 33.5943 104.357 33.4997 104.325 33.4117M106.416 40.37H92.1082C91.9911 40.37 91.8768 40.4064 91.7807 40.4742C91.6846 40.542 91.6113 40.6381 91.5706 40.7494L88.7538 48.4527C88.713 48.5641 88.6397 48.6601 88.5436 48.7279C88.4475 48.7958 88.3332 48.8321 88.2162 48.8322H82.0148C81.9211 48.8321 81.8287 48.8088 81.7459 48.7642C81.6632 48.7196 81.5924 48.655 81.5399 48.5762C81.4873 48.4974 81.4547 48.4068 81.4447 48.3122C81.4347 48.2176 81.4477 48.122 81.4826 48.0337L95.76 11.9416C95.8028 11.8338 95.8763 11.7414 95.9713 11.6764C96.0662 11.6114 96.1781 11.5767 96.2926 11.5768H102.231C102.465 11.5768 102.675 11.7212 102.763 11.9416L117.04 48.0333C117.075 48.1216 117.088 48.2173 117.078 48.312C117.068 48.4067 117.036 48.4975 116.983 48.5764C116.93 48.6553 116.86 48.7199 116.777 48.7646C116.694 48.8092 116.601 48.8326 116.508 48.8325H110.307C110.19 48.8325 110.076 48.7961 109.98 48.7282C109.884 48.6603 109.81 48.5641 109.77 48.4527L106.953 40.7494C106.912 40.6381 106.839 40.542 106.742 40.4742C106.646 40.4064 106.532 40.37 106.415 40.37M119.945 24.2433H125.249C125.401 24.2433 125.547 24.3047 125.655 24.4138C125.762 24.523 125.823 24.671 125.823 24.8253V48.2502C125.823 48.4045 125.762 48.5526 125.655 48.6617C125.547 48.7708 125.401 48.8322 125.249 48.8322H119.945C119.793 48.8322 119.647 48.7708 119.54 48.6617C119.432 48.5526 119.372 48.4045 119.372 48.2502V24.8249C119.372 24.6706 119.432 24.5226 119.54 24.4134C119.647 24.3043 119.793 24.243 119.945 24.243M145.167 29.9414C145.167 30.0958 145.106 30.2438 144.999 30.353C144.891 30.4621 144.745 30.5234 144.593 30.5234H144.433C141.81 30.5234 139.887 31.1621 138.663 32.4394C137.439 33.7166 136.828 35.8281 136.828 38.773V48.2502C136.828 48.4045 136.767 48.5526 136.66 48.6617C136.552 48.7708 136.406 48.8322 136.254 48.8322H131.002C130.85 48.8322 130.704 48.7708 130.597 48.6617C130.489 48.5526 130.429 48.4045 130.429 48.2502V24.8249C130.429 24.6706 130.489 24.5226 130.597 24.4134C130.704 24.3043 130.85 24.243 131.002 24.243H136.201C136.354 24.243 136.499 24.3043 136.607 24.4134C136.715 24.5226 136.775 24.6706 136.775 24.8249V29.4584H136.88C137.51 27.5425 138.506 26.0708 139.87 25.0411C141.233 24.0125 142.912 23.4976 144.905 23.4976H145.167V29.9411V29.9414ZM159.67 29.7249C159.517 29.7249 159.372 29.7863 159.264 29.8954C159.156 30.0045 159.096 30.1526 159.096 30.3069V40.0503C159.096 41.0439 159.287 41.7536 159.673 42.1792C160.057 42.6048 160.721 42.8178 161.665 42.8178H162.193C162.346 42.8178 162.491 42.8792 162.599 42.9883C162.707 43.0975 162.767 43.2455 162.767 43.3998V48.3029C162.767 48.4573 162.707 48.6053 162.599 48.7145C162.491 48.8236 162.346 48.8849 162.193 48.8849H159.935C157.592 48.8849 155.791 48.2731 154.533 47.0489C153.274 45.8248 152.644 44.0071 152.644 41.5937V30.3069C152.644 30.1526 152.584 30.0045 152.476 29.8954C152.369 29.7863 152.223 29.7249 152.071 29.7249H148.76C148.608 29.7249 148.462 29.6636 148.354 29.5545C148.247 29.4453 148.186 29.2973 148.186 29.1429V24.8249C148.186 24.6706 148.247 24.5226 148.354 24.4134C148.462 24.3043 148.608 24.243 148.76 24.243H152.071C152.223 24.243 152.369 24.1816 152.477 24.0725C152.584 23.9633 152.645 23.8153 152.645 23.661V14.9788C152.645 14.8244 152.705 14.6764 152.813 14.5673C152.92 14.4581 153.066 14.3968 153.218 14.3968H158.522C158.674 14.3968 158.82 14.4581 158.928 14.5673C159.035 14.6764 159.096 14.8244 159.096 14.9788V23.661C159.096 23.8153 159.156 23.9633 159.264 24.0725C159.371 24.1816 159.517 24.243 159.669 24.243H163.505C163.657 24.243 163.803 24.3043 163.91 24.4134C164.018 24.5226 164.078 24.6706 164.078 24.8249V29.1433C164.078 29.2977 164.018 29.4457 163.91 29.5549C163.803 29.664 163.657 29.7253 163.505 29.7253H159.67V29.7249ZM183.957 41.5406C185.163 40.2633 185.766 38.5957 185.766 36.5374C185.766 34.4802 185.163 32.8118 183.957 31.5346C182.751 30.2573 181.168 29.6186 179.21 29.6186C177.252 29.6186 175.67 30.2573 174.464 31.5346C173.258 32.8118 172.654 34.4802 172.654 36.5374C172.654 38.5957 173.258 40.2633 174.464 41.5406C175.67 42.8178 177.252 43.4565 179.21 43.4565C181.168 43.4565 182.751 42.8178 183.957 41.5406ZM171.71 48.0868C169.927 47.0582 168.519 45.5586 167.488 43.5896C166.456 41.6205 165.941 39.27 165.941 36.5374C165.941 33.8059 166.456 31.4546 167.488 29.4855C168.519 27.5165 169.927 26.018 171.71 24.9883C173.494 23.9593 175.451 23.4448 177.584 23.4448C179.472 23.4448 181.089 23.8173 182.436 24.5623C183.781 25.3072 184.857 26.3544 185.661 27.7027H185.766V24.8249C185.766 24.6706 185.827 24.5226 185.934 24.4134C186.042 24.3043 186.188 24.243 186.34 24.243H191.591C191.744 24.243 191.889 24.3043 191.997 24.4134C192.105 24.5226 192.165 24.6706 192.165 24.8249V48.2498C192.165 48.4041 192.105 48.5522 191.997 48.6613C191.889 48.7705 191.744 48.8318 191.591 48.8318H186.34C186.188 48.8318 186.042 48.7705 185.934 48.6613C185.827 48.5522 185.766 48.4041 185.766 48.2498V45.3724H185.661C184.857 46.7215 183.781 47.7675 182.436 48.5125C181.089 49.2574 179.473 49.6299 177.584 49.6299C175.451 49.6299 173.494 49.1154 171.71 48.0868M214.006 41.5406C215.212 40.2633 215.815 38.5957 215.815 36.5374C215.815 34.4802 215.212 32.8118 214.006 31.5346C212.8 30.2573 211.218 29.6186 209.26 29.6186C207.301 29.6186 205.719 30.2573 204.513 31.5346C203.307 32.8118 202.703 34.4802 202.703 36.5374C202.703 38.5957 203.307 40.2633 204.513 41.5406C205.719 42.8178 207.301 43.4565 209.26 43.4565C211.218 43.4565 212.8 42.8178 214.006 41.5406ZM206.034 48.5125C204.688 47.7675 203.612 46.7215 202.809 45.3724H202.703V48.2498C202.703 48.4041 202.643 48.5522 202.535 48.6613C202.428 48.7705 202.282 48.8318 202.13 48.8318H196.826C196.674 48.8318 196.528 48.7705 196.42 48.6613C196.313 48.5522 196.252 48.4041 196.252 48.2498V12.1577C196.252 12.0033 196.313 11.8553 196.42 11.7461C196.528 11.637 196.674 11.5757 196.826 11.5757H202.13C202.282 11.5757 202.428 11.637 202.535 11.7461C202.643 11.8553 202.703 12.0033 202.703 12.1577V27.7023H202.809C203.612 26.354 204.688 25.3072 206.034 24.5623C207.38 23.8169 208.997 23.4445 210.886 23.4445C213.018 23.4445 214.976 23.9589 216.76 24.9879C218.543 26.0176 219.95 27.5161 220.982 29.4848C222.013 31.455 222.53 33.8063 222.53 36.5378C222.53 39.2704 222.013 41.6205 220.982 43.59C219.951 45.559 218.543 47.0586 216.76 48.0868C214.977 49.1158 213.018 49.6307 210.886 49.6307C208.998 49.6307 207.38 49.2582 206.034 48.5128M231.466 48.8322H226.162C226.01 48.8322 225.864 48.7708 225.756 48.6617C225.649 48.5526 225.588 48.4045 225.588 48.2502V12.1588C225.588 12.0045 225.649 11.8565 225.756 11.7473C225.864 11.6382 226.01 11.5768 226.162 11.5768H231.466C231.618 11.5768 231.764 11.6382 231.871 11.7473C231.979 11.8565 232.039 12.0045 232.039 12.1588V48.2502C232.039 48.4045 231.979 48.5526 231.871 48.6617C231.764 48.7708 231.618 48.8322 231.466 48.8322M243.977 29.9383C243.098 30.6344 242.504 31.6393 242.197 32.9538C242.112 33.3162 242.391 33.6639 242.758 33.6639H252.852C253.202 33.6639 253.478 33.3457 253.421 32.995C253.219 31.7514 252.694 30.7601 251.844 30.0183C250.848 29.1492 249.545 28.7146 247.937 28.7146C246.328 28.7146 245.008 29.1224 243.977 29.9383M256.906 26.8778C258.968 29.167 260 32.4048 260 36.5909V37.2862C260 37.4405 259.94 37.5886 259.832 37.6977C259.725 37.8069 259.579 37.8682 259.427 37.8682H242.563C242.479 37.8684 242.396 37.8871 242.32 37.9232C242.244 37.9593 242.177 38.0118 242.123 38.077C242.069 38.1422 242.029 38.2187 242.007 38.3009C241.985 38.3832 241.981 38.4694 241.995 38.5534C242.265 40.1085 242.943 41.3438 244.03 42.2591C245.27 43.3067 246.836 43.8293 248.724 43.8293C251.161 43.8293 253.418 42.864 255.492 40.933C255.746 40.6971 256.148 40.7471 256.344 41.0338L258.923 44.7896C259.003 44.9065 259.039 45.0493 259.023 45.1911C259.007 45.3329 258.94 45.4637 258.835 45.5586C257.569 46.6829 256.162 47.6316 254.65 48.3798C252.972 49.2132 250.996 49.6307 248.724 49.6307C246.102 49.6307 243.811 49.089 241.853 48.0073C239.894 46.9256 238.373 45.4 237.29 43.4301C236.206 41.461 235.664 39.1816 235.664 36.5909C235.664 34.0014 236.189 31.713 237.237 29.7253C238.286 27.7388 239.755 26.1953 241.643 25.095C243.531 23.9958 245.734 23.4452 248.252 23.4452C251.957 23.4452 254.842 24.5898 256.906 26.8778M126.516 15.5833C126.516 17.7786 124.762 19.5583 122.598 19.5583C120.434 19.5583 118.68 17.7786 118.68 15.5829C118.68 13.3872 120.434 11.6075 122.598 11.6075C124.762 11.6075 126.516 13.3872 126.516 15.5829" fill="#333333"/>
<path d="M30.2049 1.07948L4.98494 11.669C3.58247 12.258 3.597 14.2799 5.00827 14.8475L30.3334 25.0386C32.5585 25.9341 35.0365 25.9341 37.2616 25.0386L62.5872 14.8471C63.9981 14.2799 64.0134 12.2584 62.6101 11.6694L37.3909 1.07909C35.09 0.11296 32.5054 0.11296 30.2046 1.07909" fill="#FCB400"/>
<path d="M36.0459 30.6031V56.0622C36.0459 57.2728 37.2492 58.1023 38.3584 57.6561L66.5783 46.5408C66.893 46.4142 67.163 46.1946 67.3533 45.9104C67.5435 45.6261 67.6451 45.2905 67.6451 44.9469V19.4882C67.6451 18.2773 66.4418 17.4481 65.3326 17.8943L37.1127 29.0096C36.798 29.1363 36.5281 29.356 36.3378 29.6402C36.1476 29.9244 36.0459 30.26 36.0459 30.6035" fill="#18BFFF"/>
<path d="M29.4557 31.9171L21.0806 36.0205L20.2303 36.4376L2.55106 45.0337C1.43076 45.5823 0 44.7535 0 43.4902V19.5951C0 19.1381 0.230941 18.7435 0.540647 18.4467C0.667703 18.3183 0.811847 18.2086 0.968882 18.1207C1.391 17.8635 1.99359 17.7948 2.50594 18.0005L29.315 28.7798C30.6777 29.3284 30.7848 31.266 29.4557 31.9175" fill="#F82B60"/>
<path d="M29.4551 31.9171L21.08 36.0205L0.540039 18.4463C0.66712 18.318 0.811263 18.2084 0.968274 18.1207C1.39039 17.8635 1.99298 17.7948 2.50533 18.0005L29.3144 28.7798C30.6771 29.3284 30.7842 31.266 29.4551 31.9175" fill="black" fill-opacity="0.25"/>
</g>
<defs>
<clipPath id="clip0_3_466">
<rect width="260" height="57.4233" fill="white" transform="translate(0 0.35498)"/>
</clipPath>
</defs>
</svg>
