<svg width="260" height="79" viewBox="0 0 260 79" fill="none" xmlns="http://www.w3.org/2000/svg">
<g clip-path="url(#clip0_3_514)">
<path fill-rule="evenodd" clip-rule="evenodd" d="M161.299 61.4678C146.19 72.5912 124.29 78.526 105.435 78.526C78.9973 78.526 55.1963 68.7591 37.1899 52.5147C35.7752 51.2373 37.0428 49.4965 38.7404 50.4913C58.1728 61.7843 82.2002 68.5782 107.02 68.5782C123.759 68.5782 142.172 65.1191 159.103 57.9408C161.661 56.8556 163.8 59.6139 161.299 61.4678" fill="#FF9900"/>
<path fill-rule="evenodd" clip-rule="evenodd" d="M167.58 54.2895C165.656 51.8252 154.813 53.1252 149.947 53.7017C148.464 53.8826 148.238 52.5939 149.573 51.6669C158.209 45.5965 172.378 47.3487 174.031 49.3834C175.683 51.4295 173.601 65.6165 165.486 72.3878C164.241 73.4278 163.053 72.8739 163.607 71.4947C165.429 66.9504 169.515 56.7652 167.58 54.2895" fill="#FF9900"/>
<path fill-rule="evenodd" clip-rule="evenodd" d="M150.286 8.81198V2.91112C150.286 2.01807 150.966 1.41895 151.78 1.41895H178.23C179.079 1.41895 179.758 2.02938 179.758 2.91112V7.96416C179.746 8.81198 179.033 9.91981 177.766 11.672L164.06 31.2172C169.153 31.0928 174.529 31.8502 179.146 34.4502C180.188 35.0381 180.471 35.8972 180.55 36.745V43.0415C180.55 43.9007 179.599 44.9067 178.603 44.3867C170.466 40.125 159.657 39.6615 150.66 44.432C149.743 44.9294 148.781 43.9346 148.781 43.0754V37.0954C148.781 36.1346 148.793 34.4954 149.755 33.0372L165.633 10.2929H151.814C150.966 10.2929 150.286 9.69373 150.286 8.81198" fill="black"/>
<path fill-rule="evenodd" clip-rule="evenodd" d="M53.8045 45.6303H45.7577C44.9881 45.5738 44.3769 44.9972 44.3203 44.2625V3.01293C44.3203 2.18771 45.0107 1.53206 45.8708 1.53206H53.3744C54.1553 1.56595 54.7778 2.1651 54.8344 2.91118V8.30336H54.9815C56.9395 3.09205 60.6177 0.661621 65.5748 0.661621C70.6112 0.661621 73.7575 3.09205 76.021 8.30336C77.9676 3.09205 82.3928 0.661621 87.1349 0.661621C90.5076 0.661621 94.1971 2.05205 96.4493 5.17205C98.9958 8.64248 98.4752 13.6842 98.4752 18.1042L98.4639 44.1381C98.4639 44.9633 97.7735 45.6303 96.9134 45.6303H88.8778C88.0743 45.5738 87.4292 44.9294 87.4292 44.1381V22.2755C87.4292 20.5347 87.5876 16.1938 87.2028 14.5433C86.603 11.7738 84.8035 10.9938 82.4721 10.9938C80.5254 10.9938 78.4883 12.2938 77.6621 14.3738C76.8359 16.4538 76.9151 19.9355 76.9151 22.2755V44.1381C76.9151 44.9633 76.2247 45.6303 75.3646 45.6303H67.3291C66.5142 45.5738 65.8804 44.9294 65.8804 44.1381L65.8691 22.2755C65.8691 17.6747 66.6274 10.9034 60.912 10.9034C55.1287 10.9034 55.355 17.5051 55.355 22.2755V44.1381C55.355 44.9633 54.6646 45.6303 53.8045 45.6303" fill="black"/>
<path fill-rule="evenodd" clip-rule="evenodd" d="M202.529 0.661621C214.469 0.661621 220.932 10.9034 220.932 23.926C220.932 36.5077 213.79 46.4894 202.529 46.4894C190.804 46.4894 184.421 36.2477 184.421 23.4851C184.421 10.6434 190.883 0.661621 202.529 0.661621M202.597 9.08336C196.667 9.08336 196.293 17.1546 196.293 22.1851C196.293 27.2268 196.214 37.9886 202.529 37.9886C208.765 37.9886 209.059 29.3068 209.059 24.0164C209.059 20.5347 208.912 16.3747 207.86 13.0738C206.954 10.2025 205.155 9.08336 202.597 9.08336" fill="black"/>
<path fill-rule="evenodd" clip-rule="evenodd" d="M236.414 45.6303H228.401C227.598 45.5738 226.953 44.9294 226.953 44.1381L226.941 2.87727C227.009 2.11988 227.677 1.53206 228.492 1.53206H235.95C236.652 1.56595 237.229 2.04075 237.388 2.6851V8.99292H237.535C239.787 3.35206 242.945 0.661621 248.501 0.661621C252.112 0.661621 255.632 1.96162 257.895 5.52249C260 8.82335 260 14.3738 260 18.3642V44.3303C259.91 45.0538 259.242 45.6303 258.45 45.6303H250.38C249.645 45.5738 249.033 45.0312 248.954 44.3303V21.9251C248.954 17.4147 249.475 10.8129 243.918 10.8129C241.96 10.8129 240.16 12.1242 239.266 14.1138C238.135 16.6347 237.987 19.1442 237.987 21.9251V44.1381C237.976 44.9633 237.274 45.6303 236.414 45.6303" fill="black"/>
<path fill-rule="evenodd" clip-rule="evenodd" d="M129.202 25.927C129.202 29.0583 129.281 31.6696 127.696 34.4504C126.418 36.7113 124.38 38.1017 122.128 38.1017C119.038 38.1017 117.228 35.7504 117.228 32.28C117.228 25.4296 123.373 24.1861 129.202 24.1861V25.927M137.316 45.5174C136.784 45.9922 136.015 46.0261 135.415 45.7096C132.744 43.4939 132.257 42.4652 130.797 40.3513C126.384 44.8504 123.249 46.1956 117.533 46.1956C110.754 46.1956 105.491 42.0243 105.491 33.6704C105.491 27.1478 109.022 22.7052 114.07 20.5348C118.439 18.6131 124.539 18.2739 129.202 17.7426V16.7026C129.202 14.7922 129.349 12.5313 128.217 10.8809C127.244 9.40002 125.365 8.78959 123.701 8.78959C120.634 8.78959 117.907 10.3609 117.239 13.6165C117.103 14.34 116.571 15.0522 115.836 15.0861L108.038 14.2496C107.381 14.1026 106.646 13.5713 106.838 12.5652C108.626 3.11481 117.182 0.266113 124.833 0.266113C128.749 0.266113 133.865 1.30611 136.954 4.26785C140.87 7.91915 140.497 12.7913 140.497 18.0931V30.6183C140.497 34.3826 142.058 36.033 143.53 38.0678C144.039 38.7913 144.152 39.6617 143.496 40.2043C141.855 41.5722 138.935 44.1157 137.328 45.54L137.316 45.5174" fill="black"/>
<path fill-rule="evenodd" clip-rule="evenodd" d="M23.7104 25.927C23.7104 29.0583 23.7897 31.6696 22.2052 34.4504C20.9263 36.7113 18.9004 38.1017 16.6369 38.1017C13.5472 38.1017 11.7477 35.7504 11.7477 32.28C11.7477 25.4296 17.8932 24.1861 23.7104 24.1861V25.927M31.8252 45.5174C31.2933 45.9922 30.5236 46.0261 29.9238 45.7096C27.2529 43.4939 26.7775 42.4652 25.3062 40.3513C20.8923 44.8504 17.7687 46.1956 12.042 46.1956C5.27401 46.1956 0 42.0243 0 33.6704C0 27.1478 3.54242 22.7052 8.57876 20.5348C12.9474 18.6131 19.0476 18.2739 23.7104 17.7426V16.7026C23.7104 14.7922 23.8576 12.5313 22.7371 10.8809C21.7525 9.40002 19.8738 8.78959 18.2214 8.78959C15.1543 8.78959 12.4154 10.3609 11.7477 13.6165C11.6119 14.34 11.08 15.0522 10.3556 15.0861L2.54647 14.2496C1.89004 14.1026 1.16571 13.5713 1.3468 12.5652C3.1463 3.11481 11.6911 0.266113 19.3418 0.266113C23.2577 0.266113 28.3733 1.30611 31.463 4.26785C35.3789 7.91915 35.0054 12.7913 35.0054 18.0931V30.6183C35.0054 34.3826 36.5673 36.033 38.0386 38.0678C38.5592 38.7913 38.6723 39.6617 38.0159 40.2043C36.3749 41.5722 33.4549 44.1157 31.8478 45.54L31.8252 45.5174" fill="black"/>
</g>
<defs>
<clipPath id="clip0_3_514">
<rect width="260" height="78.26" fill="white" transform="translate(0 0.266113)"/>
</clipPath>
</defs>
</svg>
