<svg width="148" height="149" viewBox="0 0 148 149" fill="none" xmlns="http://www.w3.org/2000/svg">
<path d="M148 74.0742C148 114.943 114.869 148.074 74 148.074C33.1309 148.074 0 114.943 0 74.0742C0 33.2051 33.1309 0.0742188 74 0.0742188C114.869 0.0742188 148 33.2051 148 74.0742ZM13.3094 74.0742C13.3094 107.593 40.4815 134.765 74 134.765C107.518 134.765 134.691 107.593 134.691 74.0742C134.691 40.5557 107.518 13.3837 74 13.3837C40.4815 13.3837 13.3094 40.5557 13.3094 74.0742Z" fill="#EBEBEB"/>
<path d="M132.828 74.0742C132.828 106.564 106.49 132.902 74.0002 132.902C41.5108 132.902 15.1729 106.564 15.1729 74.0742C15.1729 41.5847 41.5108 15.2468 74.0002 15.2468C106.49 15.2468 132.828 41.5847 132.828 74.0742ZM28.4823 74.0742C28.4823 99.213 48.8614 119.592 74.0002 119.592C99.1391 119.592 119.518 99.213 119.518 74.0742C119.518 48.9353 99.1391 28.5563 74.0002 28.5563C48.8614 28.5563 28.4823 48.9353 28.4823 74.0742Z" fill="#EBEBEB"/>
<path d="M117.654 74.0744C117.654 98.1842 98.1093 117.729 73.9994 117.729C49.8896 117.729 30.3447 98.1842 30.3447 74.0744C30.3447 49.9646 49.8896 30.4197 73.9994 30.4197C98.1093 30.4197 117.654 49.9646 117.654 74.0744ZM43.6542 74.0744C43.6542 90.8336 57.2402 104.42 73.9994 104.42C90.7587 104.42 104.345 90.8336 104.345 74.0744C104.345 57.3152 90.7587 43.7291 73.9994 43.7291C57.2402 43.7291 43.6542 57.3152 43.6542 74.0744Z" fill="#EBEBEB"/>
</svg>
