<svg width="148" height="149" viewBox="0 0 148 149" fill="none" xmlns="http://www.w3.org/2000/svg">
<path d="M148 74.8745C148 115.744 114.869 148.875 74 148.875C33.1309 148.875 0 115.744 0 74.8745C0 34.0054 33.1309 0.874512 74 0.874512C114.869 0.874512 148 34.0054 148 74.8745ZM13.3094 74.8745C13.3094 108.393 40.4815 135.565 74 135.565C107.518 135.565 134.691 108.393 134.691 74.8745C134.691 41.356 107.518 14.1839 74 14.1839C40.4815 14.1839 13.3094 41.356 13.3094 74.8745Z" fill="#EBEBEB"/>
<path d="M132.828 74.8745C132.828 107.364 106.49 133.702 74.0002 133.702C41.5108 133.702 15.1729 107.364 15.1729 74.8745C15.1729 42.385 41.5108 16.0471 74.0002 16.0471C106.49 16.0471 132.828 42.385 132.828 74.8745ZM28.4823 74.8745C28.4823 100.013 48.8614 120.392 74.0002 120.392C99.1391 120.392 119.518 100.013 119.518 74.8745C119.518 49.7356 99.1391 29.3566 74.0002 29.3566C48.8614 29.3566 28.4823 49.7356 28.4823 74.8745Z" fill="#EBEBEB"/>
<path d="M117.654 74.8747C117.654 98.9845 98.1093 118.529 73.9994 118.529C49.8896 118.529 30.3447 98.9845 30.3447 74.8747C30.3447 50.7649 49.8896 31.22 73.9994 31.22C98.1093 31.22 117.654 50.7649 117.654 74.8747ZM43.6542 74.8747C43.6542 91.6339 57.2402 105.22 73.9994 105.22C90.7587 105.22 104.345 91.6339 104.345 74.8747C104.345 58.1155 90.7587 44.5294 73.9994 44.5294C57.2402 44.5294 43.6542 58.1155 43.6542 74.8747Z" fill="#EBEBEB"/>
</svg>
