<svg width="25" height="24" viewBox="0 0 25 24" fill="none" xmlns="http://www.w3.org/2000/svg">
<path d="M20.7378 7.41388L10.3963 17.7553C10.3047 17.8477 10.18 17.8996 10.05 17.8996C9.91988 17.8996 9.7952 17.8477 9.70361 17.7553L4.44507 12.4968C4.35272 12.4053 4.30078 12.2806 4.30078 12.1504C4.30078 12.0204 4.35272 11.8957 4.44507 11.8041L5.128 11.1212C5.21959 11.0289 5.34427 10.9769 5.47434 10.9769C5.60441 10.9769 5.72909 11.0289 5.82068 11.1212L10.0451 15.3456L19.3621 6.02852C19.5551 5.84141 19.8619 5.84141 20.0548 6.02852L20.7378 6.7212C20.8301 6.81279 20.882 6.93747 20.882 7.06754C20.882 7.19761 20.8301 7.32228 20.7378 7.41388Z" fill="#3D3A41"/>
</svg>
