<svg width="24" height="24" viewBox="0 0 24 24" fill="none" xmlns="http://www.w3.org/2000/svg">
<path d="M20.4047 7.41388L10.0633 17.7553C9.9717 17.8477 9.84701 17.8996 9.71694 17.8996C9.58688 17.8996 9.46219 17.8477 9.3706 17.7553L4.11207 12.4968C4.01972 12.4053 3.96777 12.2806 3.96777 12.1504C3.96777 12.0204 4.01972 11.8957 4.11207 11.8041L4.79499 11.1212C4.88658 11.0289 5.01127 10.9769 5.14133 10.9769C5.2714 10.9769 5.39609 11.0289 5.48768 11.1212L9.71207 15.3456L19.0291 6.02852C19.2221 5.84141 19.5288 5.84141 19.7218 6.02852L20.4047 6.7212C20.4971 6.81279 20.549 6.93747 20.549 7.06754C20.549 7.19761 20.4971 7.32228 20.4047 7.41388Z" fill="#3D3A41"/>
</svg>
