<svg width="24" height="24" viewBox="0 0 24 24" fill="none" xmlns="http://www.w3.org/2000/svg">
<path d="M20.0708 7.41388L9.7293 17.7553C9.63771 17.8477 9.51303 17.8996 9.38296 17.8996C9.25289 17.8996 9.12821 17.8477 9.03662 17.7553L3.77808 12.4968C3.68573 12.4053 3.63379 12.2806 3.63379 12.1504C3.63379 12.0204 3.68573 11.8957 3.77808 11.8041L4.46101 11.1212C4.5526 11.0289 4.67728 10.9769 4.80735 10.9769C4.93742 10.9769 5.0621 11.0289 5.15369 11.1212L9.37808 15.3456L18.6952 6.02852C18.8881 5.84141 19.1949 5.84141 19.3878 6.02852L20.0708 6.7212C20.1632 6.81279 20.2151 6.93747 20.2151 7.06754C20.2151 7.19761 20.1632 7.32228 20.0708 7.41388Z" fill="#3D3A41"/>
</svg>
