<svg width="260" height="39" viewBox="0 0 260 39" fill="none" xmlns="http://www.w3.org/2000/svg">
<g clip-path="url(#clip0_3_507)">
<path d="M260 25.3054C260 21.742 258.258 20.1355 254.775 19.3469C251.291 18.5583 249.216 18.1493 249.216 15.3746C249.216 13.3884 250.599 12.1909 253.058 12.1909C256.183 12.1909 257.234 13.7681 257.234 15.7543L257.592 16.1632H258.976L259.334 15.7543C259.334 11.7819 256.542 10.2047 253.058 10.2047C249.216 10.2047 247.141 12.5706 247.141 15.3746C247.141 18.5583 249.242 20.1355 252.7 20.9241C256.183 21.7128 257.925 22.1217 257.925 25.2762C257.925 27.2623 256.875 28.8396 253.391 28.8396C250.266 28.8396 248.857 26.8534 248.857 24.4875L248.499 24.0786H247.115L246.757 24.4875C246.757 28.051 249.19 30.8257 253.366 30.8257C257.9 30.855 260 28.4891 260 25.3054ZM245.041 21.333L245.374 20.9241V19.7266C245.374 14.177 242.581 10.2047 237.714 10.2047C232.847 10.2047 230.055 14.177 230.055 19.7266V20.5152C230.055 26.0648 232.489 30.8257 238.047 30.8257C242.914 30.8257 244.656 27.2623 245.015 24.8673L244.656 24.4583H243.273L242.914 24.8673C242.223 27.2623 240.814 28.8396 238.047 28.8396C233.513 28.8396 232.13 24.0786 232.13 21.7128L232.489 21.3038H245.041V21.333ZM242.94 19.3469H232.489L232.13 18.938C232.13 16.1632 233.513 12.1909 237.689 12.1909C241.864 12.1909 243.247 16.1632 243.247 18.938L242.94 19.3469ZM227.647 30.0663V11.0225L227.289 10.6136H225.906L225.547 11.0225V30.0663L225.906 30.4752H227.289L227.647 30.0663ZM227.647 7.05019V4.68432L227.289 4.2754H225.906L225.547 4.68432V7.05019L225.906 7.45911H227.289L227.647 7.05019ZM214.404 28.8688C210.92 28.8688 208.846 26.094 208.846 20.5444C208.846 14.9948 210.946 12.2201 214.404 12.2201C217.888 12.2201 219.963 14.9948 219.963 20.5444C219.988 26.094 217.888 28.8688 214.404 28.8688ZM219.988 27.6712C219.988 32.8411 218.938 36.7842 214.763 36.7842C211.638 36.7842 210.587 35.207 210.229 33.2208L209.87 32.8119H208.487L208.128 33.2208C208.487 36.4045 210.562 38.7704 214.737 38.7704C219.271 38.7704 222.038 35.5867 222.038 27.6712V11.0225L221.679 10.6136H220.629L220.27 11.0225L219.912 13.4176H219.553C218.861 11.8404 217.119 10.2339 213.994 10.2339C209.127 10.2339 206.694 14.6151 206.694 20.5444C206.694 26.5029 209.127 30.855 213.994 30.855C217.119 30.855 218.861 29.2777 219.553 27.6712H219.988V27.6712ZM197.37 12.2201C200.853 12.2201 203.287 15.4038 203.287 20.5444C203.287 25.6851 200.853 28.8688 197.37 28.8688C193.886 28.8688 191.452 25.6851 191.452 20.5444C191.452 15.3746 193.886 12.2201 197.37 12.2201ZM197.37 30.855C201.904 30.855 205.362 27.2915 205.362 20.5444C205.362 13.7973 201.878 10.2339 197.37 10.2339C192.836 10.2339 189.378 13.7973 189.378 20.5444C189.352 27.2915 192.836 30.855 197.37 30.855ZM186.918 30.0663V3.07786L186.56 2.66895H185.177L184.818 3.07786V30.0663L185.177 30.4752H186.56L186.918 30.0663ZM174.392 12.2201C177.876 12.2201 180.31 15.4038 180.31 20.5444C180.31 25.6851 177.876 28.8688 174.392 28.8688C170.909 28.8688 168.475 25.6851 168.475 20.5444C168.475 15.4038 170.909 12.2201 174.392 12.2201ZM174.392 30.855C178.926 30.855 182.384 27.2915 182.384 20.5444C182.384 13.7973 178.901 10.2339 174.392 10.2339C169.884 10.2339 166.4 13.7973 166.4 20.5444C166.375 27.2915 169.858 30.855 174.392 30.855ZM164.3 30.0663V18.1493C164.3 12.9795 161.866 10.2047 158.024 10.2047C155.59 10.2047 153.49 11.4022 152.465 13.3884H152.107L151.774 10.9933L151.415 10.5844H150.365L150.006 10.9933V30.0371L150.365 30.446H151.748L152.081 30.0371V19.3469C152.081 14.9656 153.823 12.1909 157.64 12.1909C160.432 12.1909 162.174 14.177 162.174 18.1493V30.0663L162.532 30.4752H163.915L164.3 30.0663ZM146.548 30.0663V18.1493C146.548 12.9795 144.114 10.2047 140.272 10.2047C137.839 10.2047 135.738 11.4022 134.713 13.3884H134.355V3.07786L133.996 2.66895H132.613L132.254 3.07786V30.0663L132.613 30.4752H133.996L134.355 30.0663V19.3469C134.355 14.9656 136.097 12.1909 139.913 12.1909C142.706 12.1909 144.447 14.177 144.447 18.1493V30.0663L144.806 30.4752H146.189L146.548 30.0663ZM116.629 20.5444C116.629 14.9948 119.062 12.2201 122.546 12.2201C126.03 12.2201 127.413 14.6151 127.772 16.981L128.13 17.3899H129.513L129.872 16.981C129.513 13.0087 126.747 10.2339 122.572 10.2339C118.038 10.2339 114.579 13.4176 114.579 20.5444C114.579 27.7005 118.063 30.855 122.572 30.855C126.747 30.855 129.539 28.0802 129.872 24.1078L129.513 23.6989H128.13L127.772 24.1078C127.413 26.5029 126.03 28.8688 122.546 28.8688C119.062 28.8688 116.629 26.094 116.629 20.5444ZM112.786 21.333L113.145 20.9241V19.7266C113.145 14.177 110.353 10.2047 105.486 10.2047C100.619 10.2047 97.8268 14.177 97.8268 19.7266V20.5152C97.8268 26.0648 100.26 30.8257 105.819 30.8257C110.686 30.8257 112.428 27.2623 112.786 24.8673L112.428 24.4583H111.045L110.686 24.8673C109.994 27.2623 108.611 28.8396 105.819 28.8396C101.285 28.8396 99.9017 24.0786 99.9017 21.7128L100.26 21.3038H112.786V21.333ZM110.712 19.3469H100.26L99.9017 18.938C99.9017 16.1632 101.285 12.1909 105.46 12.1909C109.636 12.1909 111.019 16.1632 111.019 18.938L110.712 19.3469ZM101.336 4.2754V3.07786L100.978 2.66895H82.8928L82.5342 3.07786V4.2754L82.8928 4.68432H90.5519L90.9105 5.09323V30.0955L91.2691 30.5045H92.6524L93.011 30.0955V5.06403L93.3696 4.65511H101.029L101.336 4.2754Z" fill="#0076CE"/>
<path d="M82.534 24.9551V30.4754H66.8059V2.66914H72.3389V24.9259C72.3645 24.9259 82.534 24.9259 82.534 24.9551ZM9.86207 30.4754C15.5232 30.4754 20.2877 26.065 21.6453 20.0773L35.4266 32.3448L49.2079 20.0773V30.4754H64.9103V24.9551H54.7153V2.66914H49.1823V13.0673L35.9645 24.8382L33.0187 22.2095L39.3714 16.5723L46.2621 10.4385L42.3429 6.93355L29.1251 18.7045L26.1793 16.0757L39.3714 4.3048L35.4522 0.799805L21.6709 13.0673C20.3133 7.07959 15.5488 2.66914 9.88768 2.66914H0V30.4462C0 30.4462 9.86207 30.4462 9.86207 30.4754ZM5.53301 24.9551V8.21871H9.88768C13.5507 8.21871 16.5222 11.9574 16.5222 16.5723C16.5222 21.1872 13.5507 24.9551 9.86207 24.9551H5.53301Z" fill="#0076CE"/>
</g>
<defs>
<clipPath id="clip0_3_507">
<rect width="260" height="38" fill="white" transform="translate(0 0.799805)"/>
</clipPath>
</defs>
</svg>
