<svg width="118" height="118" viewBox="0 0 118 118" fill="none" xmlns="http://www.w3.org/2000/svg">
<path d="M59.0002 6.70184C59.0002 3.02654 61.9892 0.00820152 65.641 0.423068C76.3155 1.63575 86.5004 5.75537 95.0559 12.3917C105.372 20.3935 112.733 31.5995 115.979 44.2447C119.226 56.89 118.174 70.256 112.989 82.2376C107.804 94.2193 98.781 104.136 87.3405 110.425C75.9 116.715 62.6923 119.02 49.7976 116.978C36.9029 114.935 25.054 108.662 16.1169 99.1446C7.17987 89.6276 1.66255 77.4081 0.433929 64.4106C-0.585046 53.631 1.39396 42.8242 6.08972 33.1617C7.69618 29.8561 11.8462 28.9497 14.9494 30.919V30.919C18.0526 32.8883 18.9212 36.9869 17.425 40.3438C14.2505 47.4659 12.9435 55.3213 13.6843 63.1581C14.6349 73.2149 18.904 82.6698 25.8191 90.0336C32.7341 97.3974 41.9023 102.252 51.8796 103.832C61.8569 105.412 72.0765 103.629 80.9286 98.7621C89.7808 93.8956 96.7626 86.2227 100.774 76.9518C104.786 67.681 105.6 57.3389 103.088 47.5546C100.576 37.7703 94.8804 29.0997 86.8985 22.9083C80.6786 18.0836 73.3457 14.9781 65.6314 13.8421C61.9953 13.3067 59.0002 10.3771 59.0002 6.70184V6.70184Z" fill="#4FD399"/>
</svg>
