<svg width="118" height="118" viewBox="0 0 118 118" fill="none" xmlns="http://www.w3.org/2000/svg">
<path d="M59.0002 6.90154C59.0002 3.22625 61.9892 0.207909 65.641 0.622775C76.3155 1.83546 86.5004 5.95508 95.0559 12.5915C105.372 20.5932 112.733 31.7992 115.979 44.4444C119.226 57.0897 118.174 70.4557 112.989 82.4373C107.804 94.419 98.781 104.336 87.3405 110.625C75.9 116.914 62.6923 119.22 49.7976 117.177C36.9029 115.135 25.054 108.861 16.1169 99.3443C7.17987 89.8273 1.66255 77.6078 0.433929 64.6103C-0.585046 53.8307 1.39396 43.0239 6.08972 33.3614C7.69618 30.0558 11.8462 29.1494 14.9494 31.1187V31.1187C18.0526 33.088 18.9212 37.1866 17.425 40.5435C14.2505 47.6656 12.9435 55.521 13.6843 63.3578C14.6349 73.4146 18.904 82.8695 25.8191 90.2333C32.7341 97.5972 41.9023 102.451 51.8796 104.032C61.8569 105.612 72.0765 103.828 80.9286 98.9618C89.7808 94.0953 96.7626 86.4224 100.774 77.1515C104.786 67.8807 105.6 57.5387 103.088 47.7543C100.576 37.97 94.8804 29.2994 86.8985 23.108C80.6786 18.2833 73.3457 15.1778 65.6314 14.0418C61.9953 13.5064 59.0002 10.5768 59.0002 6.90154V6.90154Z" fill="#4FD399"/>
</svg>
