<svg width="144" height="30" viewBox="0 0 144 30" fill="none" xmlns="http://www.w3.org/2000/svg">
<g clip-path="url(#clip0_3_423)">
<path d="M43.2656 22.5356V7.87646H46.0299V20.0226H52.7312V22.5356H43.2656Z" fill="white"/>
<path d="M58.6997 22.8289C57.6666 22.8289 56.7382 22.6195 55.9145 22.2006C55.0907 21.7818 54.4415 21.1745 53.9669 20.3787C53.4922 19.583 53.2549 18.6266 53.2549 17.5097V17.1746C53.2549 16.0577 53.4922 15.1014 53.9669 14.3056C54.4415 13.5098 55.0907 12.9025 55.9145 12.4837C56.7382 12.0649 57.6666 11.8555 58.6997 11.8555C59.7328 11.8555 60.6613 12.0649 61.4849 12.4837C62.3086 12.9025 62.9578 13.5098 63.4325 14.3056C63.9072 15.1014 64.1445 16.0577 64.1445 17.1746V17.5097C64.1445 18.6266 63.9072 19.583 63.4325 20.3787C62.9578 21.1745 62.3086 21.7818 61.4849 22.2006C60.6613 22.6195 59.7328 22.8289 58.6997 22.8289ZM58.6997 20.4834C59.5094 20.4834 60.1796 20.2251 60.7101 19.7086C61.2406 19.1781 61.5059 18.4241 61.5059 17.4469V17.2375C61.5059 16.2602 61.2406 15.5132 60.7101 14.9966C60.1935 14.4662 59.5234 14.2009 58.6997 14.2009C57.89 14.2009 57.2198 14.4662 56.6893 14.9966C56.1587 15.5132 55.8935 16.2602 55.8935 17.2375V17.4469C55.8935 18.4241 56.1587 19.1781 56.6893 19.7086C57.2198 20.2251 57.89 20.4834 58.6997 20.4834Z" fill="white"/>
<path d="M65.1348 17.3841V17.049C65.1348 15.96 65.3511 15.0316 65.7839 14.2637C66.2167 13.4819 66.7891 12.8886 67.5011 12.4837C68.2272 12.0649 69.0159 11.8555 69.8676 11.8555C70.8169 11.8555 71.5359 12.023 72.0245 12.358C72.5132 12.6931 72.8692 13.0421 73.0926 13.4051H73.4696V12.1486H76.0663V24.3785C76.0663 25.0906 75.8569 25.656 75.4381 26.0748C75.0192 26.5076 74.4608 26.724 73.7627 26.724H66.8101V24.4205H72.8413C73.2322 24.4205 73.4276 24.211 73.4276 23.7922V21.0907H73.0507C72.9111 21.3141 72.7156 21.5444 72.4644 21.7818C72.2131 22.0051 71.878 22.1937 71.4592 22.3472C71.0403 22.5008 70.5098 22.5776 69.8676 22.5776C69.0159 22.5776 68.2272 22.3751 67.5011 21.9703C66.7891 21.5514 66.2167 20.9581 65.7839 20.1902C65.3511 19.4084 65.1348 18.473 65.1348 17.3841ZM70.6215 20.274C71.4313 20.274 72.1083 20.0157 72.6528 19.4992C73.1973 18.9826 73.4696 18.2566 73.4696 17.3213V17.1118C73.4696 16.1624 73.1973 15.4365 72.6528 14.9338C72.1223 14.4173 71.4452 14.159 70.6215 14.159C69.8117 14.159 69.1346 14.4173 68.5901 14.9338C68.0456 15.4365 67.7734 16.1624 67.7734 17.1118V17.3213C67.7734 18.2566 68.0456 18.9826 68.5901 19.4992C69.1346 20.0157 69.8117 20.274 70.6215 20.274Z" fill="white"/>
<path d="M82.9918 22.8289C81.9587 22.8289 81.0302 22.6195 80.2065 22.2006C79.3828 21.7818 78.7336 21.1745 78.259 20.3787C77.7843 19.583 77.5469 18.6266 77.5469 17.5097V17.1746C77.5469 16.0577 77.7843 15.1014 78.259 14.3056C78.7336 13.5098 79.3828 12.9025 80.2065 12.4837C81.0302 12.0649 81.9587 11.8555 82.9918 11.8555C84.0249 11.8555 84.9532 12.0649 85.777 12.4837C86.6007 12.9025 87.2499 13.5098 87.7246 14.3056C88.1993 15.1014 88.4366 16.0577 88.4366 17.1746V17.5097C88.4366 18.6266 88.1993 19.583 87.7246 20.3787C87.2499 21.1745 86.6007 21.7818 85.777 22.2006C84.9532 22.6195 84.0249 22.8289 82.9918 22.8289ZM82.9918 20.4834C83.8015 20.4834 84.4717 20.2251 85.0021 19.7086C85.5327 19.1781 85.7979 18.4241 85.7979 17.4469V17.2375C85.7979 16.2602 85.5327 15.5132 85.0021 14.9966C84.4856 14.4662 83.8155 14.2009 82.9918 14.2009C82.182 14.2009 81.5119 14.4662 80.9814 14.9966C80.4508 15.5132 80.1856 16.2602 80.1856 17.2375V17.4469C80.1856 18.4241 80.4508 19.1781 80.9814 19.7086C81.5119 20.2251 82.182 20.4834 82.9918 20.4834Z" fill="white"/>
<path d="M89.9297 22.5353V12.1483H92.5685V22.5353H89.9297ZM91.2491 10.9337C90.7739 10.9337 90.3698 10.7801 90.0341 10.4729C89.7133 10.1658 89.5527 9.76093 89.5527 9.25834C89.5527 8.75574 89.7133 8.35087 90.0341 8.04373C90.3698 7.73658 90.7739 7.58301 91.2491 7.58301C91.7378 7.58301 92.1428 7.73658 92.4632 8.04373C92.7845 8.35087 92.9456 8.75574 92.9456 9.25834C92.9456 9.76093 92.7845 10.1658 92.4632 10.4729C92.1428 10.7801 91.7378 10.9337 91.2491 10.9337Z" fill="white"/>
<path d="M94.5498 26.724V12.1486H97.1463V13.4051H97.5234C97.7601 13.0003 98.13 12.6442 98.6331 12.3371C99.1353 12.016 99.8544 11.8555 100.79 11.8555C101.627 11.8555 102.402 12.0649 103.114 12.4837C103.827 12.8886 104.399 13.4889 104.831 14.2847C105.264 15.0804 105.481 16.0438 105.481 17.1746V17.5097C105.481 18.6406 105.264 19.6038 104.831 20.3996C104.399 21.1954 103.827 21.8027 103.114 22.2216C102.402 22.6264 101.627 22.8289 100.79 22.8289C100.162 22.8289 99.6312 22.7521 99.1983 22.5985C98.7798 22.4589 98.4378 22.2774 98.1723 22.054C97.9212 21.8167 97.7187 21.5793 97.5648 21.342H97.1877V26.724H94.5498ZM99.9939 20.5253C100.818 20.5253 101.495 20.267 102.025 19.7504C102.57 19.2199 102.842 18.4521 102.842 17.4469V17.2375C102.842 16.2323 102.57 15.4714 102.025 14.9548C101.481 14.4242 100.804 14.159 99.9939 14.159C99.1848 14.159 98.5071 14.4242 97.9626 14.9548C97.4181 15.4714 97.1463 16.2323 97.1463 17.2375V17.4469C97.1463 18.4521 97.4181 19.2199 97.9626 19.7504C98.5071 20.267 99.1848 20.5253 99.9939 20.5253Z" fill="white"/>
<path d="M111.276 22.8289C109.922 22.8289 108.812 22.5357 107.946 21.9493C107.082 21.363 106.558 20.5253 106.376 19.4363L108.805 18.8081C108.903 19.2968 109.063 19.6806 109.287 19.9599C109.524 20.2391 109.81 20.4416 110.146 20.5672C110.494 20.6789 110.871 20.7347 111.276 20.7347C111.891 20.7347 112.345 20.63 112.637 20.4206C112.931 20.1972 113.077 19.925 113.077 19.6038C113.077 19.2827 112.938 19.0385 112.659 18.8709C112.379 18.6894 111.933 18.5428 111.319 18.4311L110.732 18.3264C110.006 18.1868 109.343 17.9983 108.743 17.761C108.142 17.5097 107.66 17.1676 107.298 16.7348C106.935 16.3021 106.753 15.7436 106.753 15.0596C106.753 14.0264 107.13 13.2376 107.884 12.6931C108.638 12.1346 109.629 11.8555 110.858 11.8555C112.016 11.8555 112.98 12.1137 113.748 12.6303C114.516 13.1469 115.018 13.8239 115.255 14.6617L112.806 15.4155C112.694 14.885 112.464 14.508 112.114 14.2847C111.779 14.0613 111.36 13.9496 110.858 13.9496C110.355 13.9496 109.971 14.0404 109.706 14.2218C109.44 14.3894 109.308 14.6267 109.308 14.9338C109.308 15.2689 109.448 15.5203 109.727 15.6878C110.006 15.8413 110.383 15.96 110.858 16.0438L111.444 16.1485C112.226 16.2881 112.931 16.4766 113.559 16.7139C114.201 16.9373 114.704 17.2654 115.067 17.6982C115.443 18.117 115.632 18.6894 115.632 19.4154C115.632 20.5044 115.235 21.349 114.439 21.9493C113.657 22.5357 112.603 22.8289 111.276 22.8289Z" fill="white"/>
<path d="M120.96 22.7031C120.15 22.7031 119.438 22.5216 118.823 22.1586C118.223 21.7817 117.756 21.2651 117.42 20.6089C117.085 19.9527 116.918 19.1989 116.918 18.3472V12.1484H119.557V18.1378C119.557 18.9196 119.745 19.5059 120.122 19.8969C120.513 20.2878 121.064 20.4832 121.776 20.4832C122.586 20.4832 123.214 20.218 123.661 19.6875C124.108 19.143 124.331 18.389 124.331 17.4258V12.1484H126.97V22.5355H124.373V21.1744H123.996C123.829 21.5234 123.514 21.8654 123.054 22.2004C122.593 22.5355 121.895 22.7031 120.96 22.7031Z" fill="white"/>
<path d="M128.964 22.5355V12.1484H131.56V13.2793H131.937C132.119 12.9303 132.42 12.6301 132.838 12.3788C133.257 12.1135 133.809 11.981 134.493 11.981C135.232 11.981 135.826 12.1276 136.273 12.4207C136.719 12.7 137.061 13.0699 137.299 13.5307H137.676C137.913 13.0839 138.248 12.7139 138.681 12.4207C139.114 12.1276 139.728 11.981 140.523 11.981C141.166 11.981 141.746 12.1205 142.262 12.3998C142.792 12.665 143.212 13.0769 143.519 13.6353C143.84 14.1798 144 14.8709 144 15.7086V22.5355H141.361V15.897C141.361 15.3246 141.215 14.8988 140.922 14.6196C140.629 14.3264 140.217 14.1798 139.686 14.1798C139.086 14.1798 138.618 14.3752 138.283 14.7662C137.962 15.1431 137.802 15.6876 137.802 16.3996V22.5355H135.163V15.897C135.163 15.3246 135.016 14.8988 134.723 14.6196C134.43 14.3264 134.018 14.1798 133.487 14.1798C132.887 14.1798 132.419 14.3752 132.084 14.7662C131.763 15.1431 131.603 15.6876 131.603 16.3996V22.5355H128.964Z" fill="white"/>
<path d="M34.9033 14.6826C34.9033 10.9798 33.4324 7.42867 30.8141 4.8104C28.1958 2.19212 24.6447 0.721192 20.9419 0.721191C17.2391 0.721191 13.688 2.19212 11.0697 4.8104C8.4514 7.42867 6.98047 10.9798 6.98047 14.6826H11.3435C12.7892 14.6826 13.9168 13.471 14.4463 12.1257C14.794 11.2425 15.3216 10.4308 16.0057 9.74648C17.3149 8.43736 19.0905 7.7019 20.9419 7.7019C22.7933 7.7019 24.5689 8.43736 25.878 9.74648C27.1872 11.0556 27.9226 12.8312 27.9226 14.6826H34.9033Z" fill="url(#paint0_linear_3_423)"/>
<path d="M26.8598 20.0254C27.5614 18.3315 27.9226 16.516 27.9226 14.6826H34.9025C34.9025 22.3933 28.6518 28.644 20.9411 28.644C19.7336 28.644 18.5618 28.4907 17.4443 28.2025C18.0766 28.0396 18.698 27.8322 19.3039 27.5812C20.9978 26.8796 22.5369 25.8513 23.8333 24.5548C25.1298 23.2584 26.1582 21.7193 26.8598 20.0254Z" fill="#FBCF8E"/>
<path d="M0 14.6826C-2.6229e-07 16.5161 0.361122 18.3316 1.06275 20.0255C1.76438 21.7194 2.79276 23.2584 4.0892 24.5549C5.38564 25.8513 6.92474 26.8797 8.61861 27.5813C10.3125 28.283 12.128 28.644 13.9614 28.644C15.7948 28.644 17.6103 28.283 19.3042 27.5813C20.9981 26.8797 22.5372 25.8513 23.8336 24.5549C25.1301 23.2584 26.1584 21.7194 26.8601 20.0255C27.5617 18.3316 27.9229 16.5161 27.9229 14.6826H23.5598C22.1141 14.6826 20.9866 15.8942 20.457 17.2394C20.442 17.2778 20.4265 17.3159 20.4107 17.3541C20.0599 18.201 19.5458 18.9706 18.8975 19.6188C18.2493 20.2669 17.4797 20.7812 16.6328 21.132C15.7859 21.4828 14.8782 21.6634 13.9614 21.6634C13.0447 21.6634 12.137 21.4828 11.2901 21.132C10.4431 20.7812 9.67356 20.2669 9.02529 19.6188C8.37708 18.9706 7.8629 18.201 7.51208 17.3541C7.16126 16.5071 6.98071 15.5994 6.98071 14.6826H0Z" fill="url(#paint1_linear_3_423)"/>
<path d="M0.00195312 14.6826C0.00195312 6.97191 6.25267 0.721191 13.9633 0.721191C15.1706 0.721191 16.342 0.874413 17.4594 1.16248C15.0618 1.7801 12.8502 3.03001 11.0697 4.8104C8.45145 7.42865 6.98054 10.9798 6.98054 14.6826H0.00195312Z" fill="#73E5E2"/>
</g>
<defs>
<linearGradient id="paint0_linear_3_423" x1="34.9033" y1="7.7019" x2="6.98047" y2="7.7019" gradientUnits="userSpaceOnUse">
<stop stop-color="#73E5E2"/>
<stop offset="1" stop-color="#394F87"/>
</linearGradient>
<linearGradient id="paint1_linear_3_423" x1="9.15408e-07" y1="21.6634" x2="27.9229" y2="21.6634" gradientUnits="userSpaceOnUse">
<stop stop-color="#FBDC8E"/>
<stop offset="1" stop-color="#FB958E"/>
</linearGradient>
<clipPath id="clip0_3_423">
<rect width="144" height="28.8" fill="white" transform="translate(0 0.721191)"/>
</clipPath>
</defs>
</svg>
