<svg width="260" height="91" viewBox="0 0 260 91" fill="none" xmlns="http://www.w3.org/2000/svg">
<g clip-path="url(#clip0_3_472)">
<path d="M5.47672 3.88771L55.3437 0.144156C61.3969 -0.431776 62.9823 0.000173062 66.8736 2.73585L82.8714 13.9665C85.4656 15.8383 86.3304 16.4142 86.3304 18.574V80.0547C86.3304 83.9422 84.8891 86.246 79.9889 86.5339L22.051 89.9895C18.3038 90.1335 16.5743 89.7016 14.7007 87.2538L3.02661 72.1356C0.864745 69.256 0 67.2402 0 64.7925V10.079C0 6.91136 1.44124 4.17568 5.47672 3.88771Z" fill="white"/>
<path fill-rule="evenodd" clip-rule="evenodd" d="M55.3437 0.143933L5.47672 3.88749C1.44124 4.17546 0 6.91113 0 10.0788V64.7923C0 67.24 0.864745 69.3997 3.02661 72.1354L14.7007 87.3976C16.5743 89.8453 18.4479 90.4212 22.051 90.1333L79.9889 86.6777C84.8891 86.3897 86.3304 84.086 86.3304 80.1985V18.5738C86.3304 16.558 85.6098 15.9821 83.1596 14.2543C83.0155 14.1103 82.8714 14.1103 82.7273 13.9663L66.8736 2.87961C63.1264 -5.03489e-05 61.541 -0.288016 55.3437 0.143933ZM23.3481 17.5659C18.592 17.8538 17.5831 17.9978 14.8448 15.6941L8.07095 10.3667C7.35033 9.64681 7.63858 8.78291 9.51219 8.63893L57.5055 5.18334C61.541 4.89537 63.5588 6.19122 65.1441 7.48706L73.3592 13.3904C73.7916 13.5343 74.6563 14.5422 73.5033 14.5422L23.9246 17.5659H23.3481ZM17.8714 79.6225V27.3567C17.8714 25.053 18.592 24.0451 20.6098 23.9011L77.5388 20.5895C79.4124 20.4455 80.2772 21.5974 80.2772 23.9011V75.735C80.2772 78.0387 79.8448 79.9105 76.8182 80.0545L22.3392 83.2221C19.3126 83.5101 17.8714 82.3582 17.8714 79.6225ZM71.6297 30.2364C71.918 31.8202 71.6297 33.404 70.0443 33.548L67.4501 34.1239V72.7113C65.1441 74.0072 63.1264 74.5831 61.3969 74.5831C58.6585 74.5831 57.9379 73.7192 55.7761 71.1275L38.4812 44.0587V70.1196L43.9579 71.4155C43.9579 71.4155 43.9579 74.5831 39.6341 74.5831L27.5277 75.303C27.2395 74.5831 27.5277 72.8553 28.6807 72.5674L31.8514 71.7035V37.1476L27.5277 36.7156C27.2395 35.1318 28.1042 32.8281 30.5543 32.6841L43.5255 31.8202L61.3969 59.1769V34.9878L56.7849 34.4119C56.4967 32.5401 57.7938 31.1003 59.5233 30.9563L71.6297 30.2364Z" fill="black"/>
<path d="M124.667 63.9284V40.1712H125.1L142.251 63.9284H147.727V28.9406H141.674V52.6978H141.242L124.091 28.9406H118.614V63.9284H124.667V63.9284ZM164.59 64.3604C172.517 64.3604 177.273 59.177 177.273 50.538C177.273 42.043 172.373 36.7157 164.59 36.7157C156.663 36.7157 151.907 41.899 151.907 50.538C151.763 59.177 156.663 64.3604 164.59 64.3604ZM164.59 59.321C160.41 59.321 157.96 56.1533 157.96 50.538C157.96 45.0667 160.41 41.7551 164.59 41.7551C168.769 41.7551 171.22 44.9227 171.22 50.538C171.075 56.1533 168.769 59.321 164.59 59.321ZM182.75 30.9563V37.5796H178.57V42.331H182.75V56.7293C182.75 61.9127 185.2 63.9284 191.253 63.9284C192.406 63.9284 193.559 63.7844 194.424 63.6405V59.033C193.703 59.177 193.271 59.177 192.406 59.177C189.956 59.177 188.803 58.0251 188.803 55.4334V42.475H194.424V37.7235H188.803V31.1003H182.75V30.9563ZM198.027 63.9284H204.08V37.4356H198.027V63.9284ZM201.053 32.9721C203.071 32.9721 204.656 31.3883 204.656 29.3725C204.656 27.3568 203.071 25.7729 201.053 25.7729C199.036 25.7729 197.45 27.3568 197.45 29.3725C197.45 31.3883 199.036 32.9721 201.053 32.9721ZM220.51 64.3604C228.437 64.3604 233.193 59.177 233.193 50.538C233.193 42.043 228.293 36.7157 220.51 36.7157C212.583 36.7157 207.827 41.899 207.827 50.538C207.683 59.177 212.583 64.3604 220.51 64.3604ZM220.51 59.321C216.33 59.321 213.88 56.1533 213.88 50.538C213.88 45.0667 216.33 41.7551 220.51 41.7551C224.69 41.7551 227.14 44.9227 227.14 50.538C226.996 56.1533 224.69 59.321 220.51 59.321ZM236.796 63.9284H242.849V48.3783C242.849 44.4907 245.155 42.043 248.614 42.043C252.217 42.043 253.947 44.0588 253.947 48.0903V63.7844H260V46.6505C260 40.3152 256.829 36.7157 250.92 36.7157C247.029 36.7157 244.291 38.5874 242.993 41.4671H242.561V37.4356H236.796V63.9284V63.9284Z" fill="black"/>
</g>
<defs>
<clipPath id="clip0_3_472">
<rect width="260" height="90.1333" fill="white"/>
</clipPath>
</defs>
</svg>
