<svg width="148" height="149" viewBox="0 0 148 149" fill="none" xmlns="http://www.w3.org/2000/svg">
<path d="M74 6.72894C74 3.05364 76.9855 0.0431277 80.6459 0.373136C95.8685 1.74553 110.354 7.80721 122.059 17.8042C135.457 29.2472 144.333 45.0954 147.089 62.4981C149.845 79.9008 146.302 97.7159 137.095 112.739C127.889 127.762 113.625 139.008 96.8673 144.452C80.11 149.897 61.9598 149.184 45.6814 142.441C29.403 135.699 16.0647 123.369 8.06551 107.67C0.0663688 91.9703 -2.0686 73.932 2.04463 56.7992C5.63806 41.8315 13.7943 28.4131 25.3029 18.3552C28.0703 15.9366 32.2552 16.6174 34.4154 19.5907V19.5907C36.5757 22.5641 35.8872 26.7005 33.168 29.1731C24.2004 37.3278 17.8396 48.0216 14.9863 59.9063C11.6129 73.9576 13.3639 88.7516 19.9243 101.627C26.4847 114.503 37.4241 124.615 50.7747 130.145C64.1253 135.675 79.0111 136.26 92.7544 131.794C106.498 127.329 118.197 118.106 125.747 105.785C133.298 93.4638 136.204 78.8528 133.943 64.5801C131.683 50.3074 124.404 37.3097 113.415 27.9248C104.121 19.9869 92.6897 15.0743 80.6416 13.748C76.9884 13.3459 74 10.4042 74 6.72894V6.72894Z" fill="#42A8DF"/>
</svg>
