<svg width="148" height="148" viewBox="0 0 148 148" fill="none" xmlns="http://www.w3.org/2000/svg">
<path d="M74 6.52923C74 2.85393 76.9855 -0.156579 80.6459 0.173429C95.8685 1.54582 110.354 7.6075 122.059 17.6045C135.457 29.0475 144.333 44.8957 147.089 62.2984C149.845 79.7011 146.302 97.5162 137.095 112.539C127.889 127.563 113.625 138.808 96.8673 144.253C80.11 149.697 61.9598 148.984 45.6814 142.242C29.403 135.499 16.0647 123.169 8.06551 107.47C0.0663688 91.7706 -2.0686 73.7323 2.04463 56.5995C5.63806 41.6318 13.7943 28.2134 25.3029 18.1555C28.0703 15.7369 32.2552 16.4176 34.4154 19.391V19.391C36.5757 22.3644 35.8872 26.5008 33.168 28.9734C24.2004 37.1281 17.8396 47.8219 14.9863 59.7066C11.6129 73.7579 13.3639 88.5519 19.9243 101.427C26.4847 114.303 37.4241 124.415 50.7747 129.945C64.1253 135.475 79.0111 136.06 92.7544 131.595C106.498 127.129 118.197 117.906 125.747 105.585C133.298 93.2641 136.204 78.6531 133.943 64.3804C131.683 50.1077 124.404 37.11 113.415 27.725C104.121 19.7872 92.6897 14.8746 80.6416 13.5483C76.9884 13.1462 74 10.2045 74 6.52923V6.52923Z" fill="#42A8DF"/>
</svg>
