<svg width="214" height="82" viewBox="0 0 214 82" fill="none" xmlns="http://www.w3.org/2000/svg">
<path d="M3.08595 80.8135C4.09629 80.8135 4.9139 79.9933 4.9139 78.9834C4.9139 77.9735 4.09629 77.1534 3.08595 77.1534C2.07562 77.1534 1.258 77.9735 1.258 78.9834C1.258 79.9933 2.07562 80.8135 3.08595 80.8135Z" fill="white" stroke="#0E9CFF" stroke-width="1.04454"/>
<path d="M37.7295 55.5995C38.7398 55.5995 39.5575 54.7794 39.5575 53.7694C39.5575 52.7595 38.7398 51.9394 37.7295 51.9394C36.7192 51.9394 35.9016 52.7595 35.9016 53.7694C35.9016 54.7794 36.7192 55.5995 37.7295 55.5995Z" fill="white" stroke="#0E9CFF" stroke-width="1.04454"/>
<path d="M72.3731 30.385C73.3834 30.385 74.201 29.5649 74.201 28.555C74.201 27.545 73.3834 26.7249 72.3731 26.7249C71.3627 26.7249 70.5451 27.545 70.5451 28.555C70.5451 29.5649 71.3627 30.385 72.3731 30.385Z" fill="white" stroke="#0E9CFF" stroke-width="1.04454"/>
<path d="M107.018 5.17187C108.028 5.17187 108.846 4.35174 108.846 3.34183C108.846 2.33191 108.028 1.51179 107.018 1.51179C106.007 1.51179 105.19 2.33191 105.19 3.34183C105.19 4.35174 106.007 5.17187 107.018 5.17187Z" fill="white" stroke="#0E9CFF" stroke-width="1.04454"/>
<path d="M141.661 68.2067C142.671 68.2067 143.489 67.3865 143.489 66.3766C143.489 65.3667 142.671 64.5466 141.661 64.5466C140.651 64.5466 139.833 65.3667 139.833 66.3766C139.833 67.3865 140.651 68.2067 141.661 68.2067Z" fill="white" stroke="#0E9CFF" stroke-width="1.04454"/>
<path d="M176.305 42.9927C177.315 42.9927 178.133 42.1725 178.133 41.1626C178.133 40.1527 177.315 39.3326 176.305 39.3326C175.294 39.3326 174.477 40.1527 174.477 41.1626C174.477 42.1725 175.294 42.9927 176.305 42.9927Z" fill="white" stroke="#0E9CFF" stroke-width="1.04454"/>
<path d="M210.95 17.7787C211.961 17.7787 212.778 16.9586 212.778 15.9486C212.778 14.9387 211.961 14.1186 210.95 14.1186C209.94 14.1186 209.122 14.9387 209.122 15.9486C209.122 16.9586 209.94 17.7787 210.95 17.7787Z" fill="white" stroke="#0E9CFF" stroke-width="1.04454"/>
</svg>
