<svg width="260" height="47" viewBox="0 0 260 47" fill="none" xmlns="http://www.w3.org/2000/svg">
<g clip-path="url(#clip0_3_512)">
<path d="M208.813 30.598H208.618L200.322 1.74085H186.94V38.1205H195.805L195.306 8.2665H195.501L204.409 38.1205H217.249V1.73906H208.325L208.813 30.598ZM38.5575 1.73906L31.8816 38.5036H41.6235L46.5598 5.13254H46.7656L51.5713 38.5053H61.2559L54.6104 1.73906H38.5575ZM93.0501 1.74264L88.5971 29.8516H88.3948L83.9633 1.74264H69.2564L68.4581 38.5036H77.4752L77.7007 5.44397H77.9048L83.9275 38.5036H93.0734L99.0979 5.4547L99.2984 5.44397L99.5328 38.5036H108.553L107.757 1.74264H93.0501ZM9.54114 11.1964C9.37111 10.4447 9.41227 9.69298 9.50355 9.27774C9.76308 8.09646 10.5434 6.80243 12.8004 6.80243C14.9159 6.80243 16.1473 8.13763 16.1473 10.1315V12.4027H25.1519V9.83616C25.1519 1.81602 18.0964 0.564941 12.9883 0.564941C6.579 0.564941 1.3456 2.73598 0.38089 8.73364C0.117788 10.3445 0.085571 11.8211 0.46859 13.6825C2.03467 21.1961 14.8443 23.3725 16.704 28.1244C17.053 29.0104 16.9402 30.1595 16.7684 30.8539C16.4767 32.0567 15.6659 33.3077 13.2586 33.3077C11.007 33.3077 9.63242 31.9922 9.63242 29.9858L9.62705 26.4188H-0.0415056L-0.046875 29.261C-0.046875 37.4619 6.2819 39.9265 13.0599 39.9265C19.5927 39.9265 24.9478 37.6749 25.8141 31.5376C26.2544 28.3553 25.9304 26.2684 25.7747 25.4898C24.248 17.7883 10.5703 15.5117 9.54114 11.1964ZM126.863 11.2823C126.686 10.5485 126.736 9.80394 126.82 9.39766C127.073 8.22354 127.846 6.94383 130.083 6.94383C132.174 6.94383 133.401 8.25934 133.401 10.2263V12.4815H142.309V9.93818C142.309 2.01648 135.318 0.76898 130.276 0.76898C123.923 0.76898 118.734 2.89169 117.791 8.85176C117.528 10.4554 117.486 11.9213 117.873 13.7558C119.425 21.1907 132.107 23.351 133.953 28.0511C134.289 28.937 134.187 30.0664 134.022 30.7555C133.729 31.9672 132.918 33.1807 130.545 33.1807C128.304 33.1807 126.955 31.8848 126.955 29.8999L126.947 26.3597H117.365V29.1769C117.365 37.2936 123.638 39.7296 130.35 39.7296C136.802 39.7296 142.112 37.4977 142.963 31.4249C143.399 28.2837 143.077 26.2147 142.925 25.4397C141.413 17.8205 127.866 15.5564 126.863 11.2823ZM167.759 28.9281C167.766 29.3952 167.751 29.9357 167.674 30.3295C167.496 31.2441 166.724 32.9748 164.217 32.9748C161.718 32.9748 160.938 31.2441 160.759 30.3295C160.682 29.9357 160.664 29.3952 160.667 28.9281V1.73548H151.554V28.0851C151.539 28.767 151.606 30.1469 151.638 30.5138C152.257 37.367 157.584 39.581 164.215 39.581C170.839 39.581 176.164 37.367 176.803 30.5138C176.835 30.1469 176.905 28.7652 176.894 28.0851V1.73548H167.757V28.9281H167.759ZM239.512 17.8348V23.2186H243.204V28.5504C243.215 29.014 243.197 29.5259 243.12 29.9465C242.959 30.9362 242.039 32.6061 239.439 32.6061C236.831 32.6061 235.915 30.9344 235.746 29.9465C235.677 29.5259 235.655 29.014 235.666 28.5504V11.7298C235.666 11.132 235.703 10.4787 235.813 10.0044C236.004 9.09876 236.781 7.3358 239.403 7.3358C242.161 7.3358 242.843 9.1972 243.008 10.0044C243.113 10.5145 243.12 11.3933 243.12 11.3897V13.4605H252.209V12.2327C252.205 12.2327 252.241 10.9763 252.136 9.829C251.468 2.91496 245.864 0.738553 239.478 0.738553C233.088 0.738553 227.617 2.93286 226.824 9.829C226.747 10.4232 226.667 11.5794 226.667 12.2327L226.663 27.7003C226.667 28.3929 226.688 28.9048 226.788 30.129C227.383 36.8229 233.088 39.2213 239.471 39.2213C245.857 39.2213 251.563 36.8229 252.161 30.129C252.259 28.903 252.273 28.3911 252.275 27.7003V17.8348H239.512Z" fill="#1428A0"/>
</g>
<defs>
<clipPath id="clip0_3_512">
<rect width="260" height="45.8824" fill="white" transform="translate(0 0.455078)"/>
</clipPath>
</defs>
</svg>
