<svg width="260" height="79" viewBox="0 0 260 79" fill="none" xmlns="http://www.w3.org/2000/svg">
<g clip-path="url(#clip0_3_495)">
<path d="M63.0736 35.4367C50.6939 28.0768 30.2739 27.4 18.4559 30.9908C16.558 31.567 14.5512 30.4945 13.9762 28.5946C13.4011 26.6939 14.4713 24.6862 16.3704 24.1086C29.9367 19.9857 52.4884 20.7823 66.7402 29.2516C68.4476 30.2658 69.0076 32.4728 67.9954 34.1793C66.9828 35.8879 64.7765 36.4512 63.0736 35.4367V35.4367ZM62.6682 46.3381C61.8001 47.7492 59.9574 48.1913 58.5499 47.3254C48.2289 40.9741 32.4906 39.1342 20.2801 42.8447C18.6967 43.3237 17.0242 42.43 16.5433 40.8477C16.0661 39.2625 16.9593 37.5911 18.5399 37.1091C32.4888 32.8718 49.829 34.9242 61.6831 42.2171C63.0906 43.0848 63.5336 44.9306 62.6682 46.3381V46.3381ZM57.9688 56.8075C57.2791 57.9402 55.8051 58.2955 54.6779 57.605C45.659 52.087 34.3075 50.8404 20.939 53.8976C19.6506 54.1934 18.3668 53.3849 18.0729 52.0956C17.7778 50.806 18.582 49.5209 19.8733 49.2266C34.5028 45.8784 47.0521 47.3195 57.175 53.5121C58.3036 54.202 58.6591 55.6782 57.9688 56.8075V56.8075ZM40.3558 1.35183C19.1454 1.35183 1.9502 18.5652 1.9502 39.7992C1.9502 61.0351 19.1454 78.248 40.3558 78.248C61.5671 78.248 78.7613 61.0351 78.7613 39.7992C78.7613 18.5652 61.5671 1.35183 40.3558 1.35183" fill="#1ED760"/>
<path d="M106.439 36.8457C99.808 35.2626 98.6271 34.1514 98.6271 31.8174C98.6271 29.6113 100.702 28.1275 103.786 28.1275C106.777 28.1275 109.741 29.2546 112.85 31.575C112.944 31.6452 113.062 31.6732 113.178 31.6549C113.294 31.6374 113.396 31.5741 113.464 31.4777L116.702 26.9085C116.835 26.7207 116.799 26.4609 116.62 26.3171C112.92 23.3453 108.754 21.9004 103.885 21.9004C96.7248 21.9004 91.7236 26.2015 91.7236 32.3564C91.7236 38.9565 96.0378 41.2931 103.493 43.0969C109.838 44.5602 110.909 45.7859 110.909 47.9776C110.909 50.4058 108.744 51.9154 105.259 51.9154C101.388 51.9154 98.2308 50.6102 94.6991 47.5482C94.6115 47.4729 94.4913 47.4381 94.3803 47.4444C94.2639 47.4541 94.157 47.5083 94.0827 47.5977L90.4523 51.9232C90.3001 52.1027 90.3193 52.3708 90.495 52.5259C94.6046 56.1985 99.658 58.1387 105.112 58.1387C112.827 58.1387 117.813 53.918 117.813 47.3861C117.813 41.8658 114.518 38.8128 106.439 36.8457" fill="#1ED760"/>
<path d="M140.868 44.2445C140.868 48.906 138 52.1587 133.893 52.1587C129.833 52.1587 126.77 48.7582 126.77 44.2445C126.77 39.7315 129.833 36.3304 133.893 36.3304C137.934 36.3304 140.868 39.6579 140.868 44.2445ZM135.268 30.2987C131.923 30.2987 129.18 31.6173 126.919 34.3193V31.278C126.919 31.0379 126.724 30.8423 126.484 30.8423H120.547C120.307 30.8423 120.113 31.0379 120.113 31.278V65.0702C120.113 65.3104 120.307 65.5059 120.547 65.5059H126.484C126.724 65.5059 126.919 65.3104 126.919 65.0702V54.404C129.181 56.9456 131.924 58.187 135.268 58.187C141.481 58.187 147.772 53.3984 147.772 44.2445C147.772 35.0886 141.481 30.2987 135.268 30.2987" fill="#1ED760"/>
<path d="M163.896 52.2078C159.639 52.2078 156.43 48.784 156.43 44.2447C156.43 39.6863 159.528 36.3783 163.797 36.3783C168.081 36.3783 171.312 39.8018 171.312 44.3442C171.312 48.9021 168.193 52.2078 163.896 52.2078V52.2078ZM163.896 30.299C155.893 30.299 149.624 36.4678 149.624 44.3442C149.624 52.1351 155.85 58.2393 163.797 58.2393C171.828 58.2393 178.117 52.0912 178.117 44.2447C178.117 36.4246 171.871 30.299 163.896 30.299Z" fill="#1ED760"/>
<path d="M195.204 30.8426H188.67V24.155C188.67 23.9149 188.477 23.7198 188.237 23.7198H182.3C182.06 23.7198 181.864 23.9149 181.864 24.155V30.8426H179.01C178.77 30.8426 178.577 31.0382 178.577 31.2783V36.3868C178.577 36.6268 178.77 36.8222 179.01 36.8222H181.864V50.0411C181.864 55.3831 184.52 58.0913 189.758 58.0913C191.888 58.0913 193.655 57.651 195.32 56.7057C195.455 56.63 195.54 56.484 195.54 56.3287V51.464C195.54 51.3137 195.461 51.1724 195.333 51.0935C195.204 51.0123 195.043 51.0081 194.911 51.0738C193.767 51.6498 192.661 51.9158 191.425 51.9158C189.521 51.9158 188.67 51.0503 188.67 49.1096V36.8222H195.204C195.444 36.8222 195.637 36.6268 195.637 36.3868V31.2783C195.637 31.0382 195.444 30.8426 195.204 30.8426Z" fill="#1ED760"/>
<path d="M217.968 30.8686V30.0472C217.968 27.6309 218.894 26.5533 220.969 26.5533C222.207 26.5533 223.201 26.7994 224.315 27.1713C224.452 27.2145 224.595 27.1929 224.706 27.1107C224.821 27.0285 224.886 26.8968 224.886 26.7572V21.7482C224.886 21.5567 224.763 21.3873 224.579 21.3313C223.403 20.981 221.897 20.621 219.644 20.621C214.159 20.621 211.261 23.7128 211.261 29.5587V30.8167H208.408C208.169 30.8167 207.973 31.0118 207.973 31.252V36.3866C207.973 36.6266 208.169 36.8221 208.408 36.8221H211.261V57.2115C211.261 57.4517 211.454 57.6468 211.694 57.6468H217.631C217.871 57.6468 218.066 57.4517 218.066 57.2115V36.8221H223.61L232.102 57.2061C231.138 59.3478 230.19 59.774 228.896 59.774C227.85 59.774 226.748 59.4612 225.622 58.8443C225.516 58.7858 225.391 58.7763 225.276 58.8116C225.163 58.852 225.067 58.9361 225.019 59.0467L223.007 63.4666C222.911 63.6754 222.993 63.9208 223.193 64.0291C225.294 65.1681 227.191 65.6543 229.535 65.6543C233.919 65.6543 236.342 63.6094 238.479 58.1091L248.78 31.4618C248.831 31.3277 248.816 31.1767 248.734 31.0573C248.652 30.9398 248.521 30.8686 248.377 30.8686H242.196C242.011 30.8686 241.845 30.9861 241.784 31.1601L235.452 49.2669L228.517 31.1482C228.453 30.9797 228.291 30.8686 228.111 30.8686H217.968" fill="#1ED760"/>
<path d="M204.772 30.8426H198.834C198.594 30.8426 198.399 31.0382 198.399 31.2783V57.2117C198.399 57.4518 198.594 57.647 198.834 57.647H204.772C205.011 57.647 205.207 57.4518 205.207 57.2117V31.2783C205.207 31.0382 205.011 30.8426 204.772 30.8426Z" fill="#1ED760"/>
<path d="M201.833 19.0342C199.481 19.0342 197.572 20.9409 197.572 23.2953C197.572 25.6515 199.481 27.5601 201.833 27.5601C204.185 27.5601 206.091 25.6515 206.091 23.2953C206.091 20.9409 204.185 19.0342 201.833 19.0342Z" fill="#1ED760"/>
<path d="M254.092 33.4223H253.005V34.8111H254.092C254.635 34.8111 254.96 34.5452 254.96 34.1163C254.96 33.6646 254.635 33.4223 254.092 33.4223ZM254.798 35.4035L255.98 37.0603H254.983L253.919 35.5407H253.005V37.0603H252.17V32.669H254.126C255.145 32.669 255.815 33.1911 255.815 34.0697C255.815 34.7894 255.4 35.2293 254.798 35.4035V35.4035ZM253.871 31.2081C251.731 31.2081 250.111 32.911 250.111 34.9971C250.111 37.0818 251.72 38.7622 253.849 38.7622C255.989 38.7622 257.61 37.0603 257.61 34.9732C257.61 32.8885 256.001 31.2081 253.871 31.2081V31.2081ZM253.849 39.1807C251.499 39.1807 249.671 37.2912 249.671 34.9971C249.671 32.7025 251.523 30.7917 253.871 30.7917C256.221 30.7917 258.05 32.6809 258.05 34.9732C258.05 37.2678 256.199 39.1807 253.849 39.1807Z" fill="#1ED760"/>
</g>
<defs>
<clipPath id="clip0_3_495">
<rect width="260" height="78.0688" fill="white" transform="translate(0 0.765625)"/>
</clipPath>
</defs>
</svg>
