<svg width="260" height="77" viewBox="0 0 260 77" fill="none" xmlns="http://www.w3.org/2000/svg">
<g clip-path="url(#clip0_3_478)">
<path d="M49.6868 27.5119C54.5784 31.0143 60.5709 33.075 67.0431 33.075V20.6005C65.8182 20.6007 64.5965 20.4728 63.3982 20.2185V30.0377C56.9265 30.0377 50.9348 27.977 46.0418 24.4749V49.9318C46.0418 62.6667 35.7349 72.9896 23.0215 72.9896C18.2778 72.9896 13.8687 71.5531 10.2061 69.0896C14.3863 73.3707 20.2161 76.0266 26.6656 76.0266C39.3799 76.0266 49.6873 65.7037 49.6873 52.9683V27.5119H49.6868V27.5119ZM54.1832 14.9266C51.6833 12.1911 50.042 8.65587 49.6868 4.74756V3.14307H46.2327C47.1021 8.11053 50.0677 12.3544 54.1832 14.9266ZM18.2473 59.3172C16.8506 57.4829 16.0958 55.239 16.0992 52.9318C16.0992 47.1074 20.8135 42.3849 26.6297 42.3849C27.7137 42.3846 28.7911 42.5508 29.8241 42.8791V30.1258C28.6169 29.9601 27.3986 29.8897 26.1807 29.9155V39.8421C25.147 39.5138 24.069 39.3471 22.9848 39.3481C17.1686 39.3481 12.4545 44.0701 12.4545 49.8953C12.4545 54.0142 14.8109 57.5801 18.2473 59.3172Z" fill="#FF004F"/>
<path d="M46.0414 24.4746C50.9344 27.9767 56.9261 30.0375 63.3977 30.0375V20.2182C59.7853 19.4475 56.5873 17.5567 54.1828 14.9266C50.067 12.3542 47.1017 8.11027 46.2323 3.14307H37.1593V52.9678C37.1388 58.7763 32.4325 63.4796 26.6288 63.4796C23.2088 63.4796 20.1704 61.8467 18.2461 59.3172C14.81 57.5801 12.4536 54.0139 12.4536 49.8956C12.4536 44.0709 17.1677 39.3484 22.9839 39.3484C24.0982 39.3484 25.1723 39.5222 26.1798 39.8424V29.9158C13.6896 30.1743 3.64453 40.3963 3.64453 52.9681C3.64453 59.2438 6.14599 64.933 10.2059 69.0898C13.8685 71.5531 18.2776 72.9898 23.0213 72.9898C35.735 72.9898 46.0417 62.6664 46.0417 49.9318V24.4746H46.0414Z" fill="black"/>
<path d="M63.3979 20.2184V17.5633C60.1403 17.5683 56.9468 16.6545 54.183 14.9265C56.6296 17.6094 59.8512 19.4594 63.3979 20.2184ZM46.2324 3.1432C46.1495 2.66847 46.0858 2.19062 46.0416 1.71094V0.106445H33.5143V49.9317C33.4942 55.7394 28.7882 60.4427 22.984 60.4427C21.28 60.4427 19.6711 60.0375 18.2463 59.3176C20.1705 61.8468 23.2089 63.4795 26.6289 63.4795C32.4321 63.4795 37.1392 58.7767 37.1595 52.9682V3.1432H46.2324ZM26.1804 29.9159V27.0894C25.1337 26.9461 24.0783 26.8742 23.0217 26.8747C10.3069 26.8745 0 37.1979 0 49.9317C0 57.9151 4.0508 64.9508 10.2063 69.0894C6.1464 64.9328 3.64494 59.2434 3.64494 52.9679C3.64494 40.3964 13.6898 30.1744 26.1804 29.9159Z" fill="#00F2EA"/>
<path d="M208.553 62.5507C217.65 62.5507 225.025 55.2198 225.025 46.1775C225.025 37.1355 217.65 29.8032 208.553 29.8032H206.071C215.169 29.8032 222.544 37.1352 222.544 46.1775C222.544 55.2198 215.169 62.5507 206.071 62.5507H208.553Z" fill="#FF004F"/>
<path d="M205.847 29.8032H203.366C194.269 29.8032 186.893 37.1352 186.893 46.1775C186.893 55.2198 194.269 62.5507 203.366 62.5507H205.847C196.749 62.5507 189.374 55.2198 189.374 46.1775C189.374 37.1355 196.749 29.8032 205.847 29.8032Z" fill="#00F2EA"/>
<path d="M80.6162 22.4023V30.7018H90.3171V62.3263H100.022V30.9259H107.919L110.626 22.4026H80.6162V22.4023ZM160.042 22.4023V30.7018H169.742V62.3263H179.447V30.9259H187.344L190.051 22.4026H160.042V22.4023ZM112.433 27.1121C112.433 24.5115 114.551 22.4023 117.168 22.4023C119.787 22.4023 121.907 24.5115 121.907 27.1121C121.907 29.713 119.788 31.8222 117.168 31.8222C114.551 31.8209 112.433 29.713 112.433 27.1121ZM112.433 35.1875H121.907V62.3263H112.433V35.1875ZM125.969 22.4023V62.326H135.447V52.0096L138.38 49.3158L147.63 62.5501H157.783L144.469 43.2613L156.429 31.5968H144.921L135.447 41.0166V22.4023H125.969ZM228.182 22.4023V62.326H237.661V52.0096L240.593 49.3158L249.846 62.5501H260L246.686 43.2613L258.645 31.5968H247.138L237.661 41.0166V22.4023H228.182Z" fill="black"/>
<path d="M206.07 62.5507C215.167 62.5507 222.543 55.2198 222.543 46.1775C222.543 37.1355 215.167 29.8032 206.07 29.8032H205.845C196.748 29.8032 189.373 37.1352 189.373 46.1775C189.373 55.2198 196.748 62.5507 205.845 62.5507H206.07ZM197.947 46.1775C197.947 41.7791 201.535 38.2163 205.96 38.2163C210.381 38.2163 213.969 41.7791 213.969 46.1775C213.969 50.5759 210.381 54.1408 205.96 54.1408C201.535 54.14 197.947 50.5759 197.947 46.1775Z" fill="black"/>
</g>
<defs>
<clipPath id="clip0_3_478">
<rect width="260" height="75.92" fill="white" transform="translate(0 0.106445)"/>
</clipPath>
</defs>
</svg>
