<svg width="20" height="19" viewBox="0 0 20 19" fill="none" xmlns="http://www.w3.org/2000/svg">
<path d="M9.48366 0.990585C9.81373 0.206588 10.9379 0.206589 11.268 0.990587L13.2161 5.61788C13.3554 5.94839 13.67 6.17422 14.0312 6.20282L19.0878 6.60332C19.9445 6.67117 20.2919 7.72743 19.6392 8.27982L15.7866 11.5401C15.5114 11.773 15.3912 12.1384 15.4752 12.4866L16.6523 17.3614C16.8517 18.1873 15.9422 18.8402 15.2087 18.3976L10.8795 15.7852C10.5703 15.5986 10.1814 15.5986 9.87217 15.7852L5.54294 18.3976C4.80943 18.8402 3.89994 18.1873 4.09936 17.3614L5.27641 12.4866C5.36048 12.1384 5.2403 11.773 4.96513 11.5401L1.11246 8.27982C0.45971 7.72743 0.807111 6.67117 1.66386 6.60332L6.72055 6.20282C7.08173 6.17422 7.39636 5.94839 7.53551 5.61788L9.48366 0.990585Z" fill="#42A8DF"/>
</svg>
