<svg width="20" height="19" viewBox="0 0 20 19" fill="none" xmlns="http://www.w3.org/2000/svg">
<path d="M9.28639 0.990585C9.61647 0.206588 10.7407 0.206589 11.0708 0.990587L13.0189 5.61788C13.1581 5.94839 13.4727 6.17422 13.8339 6.20282L18.8905 6.60332C19.7473 6.67117 20.0947 7.72743 19.4419 8.27982L15.5893 11.5401C15.3141 11.773 15.1939 12.1384 15.278 12.4866L16.455 17.3614C16.6544 18.1873 15.745 18.8402 15.0115 18.3976L10.6823 15.7852C10.373 15.5986 9.98412 15.5986 9.67491 15.7852L5.34567 18.3976C4.61217 18.8402 3.70267 18.1873 3.90209 17.3614L5.07914 12.4866C5.16322 12.1384 5.04304 11.773 4.76787 11.5401L0.915196 8.27982C0.262444 7.72743 0.609845 6.67117 1.46659 6.60332L6.52328 6.20282C6.88447 6.17422 7.1991 5.94839 7.33825 5.61788L9.28639 0.990585Z" fill="#42A8DF"/>
</svg>
