<svg width="21" height="19" viewBox="0 0 21 19" fill="none" xmlns="http://www.w3.org/2000/svg">
<path d="M9.57448 0.990829C9.90455 0.206832 11.0288 0.206833 11.3588 0.990831L13.3069 5.61812C13.4462 5.94864 13.7608 6.17446 14.122 6.20307L19.1786 6.60356C20.0353 6.67142 20.3827 7.72767 19.73 8.28007L15.8774 11.5403C15.6022 11.7732 15.482 12.1387 15.5661 12.4868L16.7431 17.3616C16.9425 18.1875 16.0331 18.8404 15.2995 18.3978L10.9703 15.7855C10.6611 15.5988 10.2722 15.5988 9.96299 15.7855L5.63376 18.3978C4.90025 18.8404 3.99076 18.1875 4.19018 17.3616L5.36723 12.4868C5.4513 12.1387 5.33112 11.7732 5.05595 11.5403L1.20328 8.28007C0.55053 7.72767 0.897931 6.67142 1.75468 6.60356L6.81137 6.20307C7.17255 6.17446 7.48718 5.94864 7.62633 5.61812L9.57448 0.990829Z" fill="#42A8DF"/>
</svg>
