<svg width="20" height="19" viewBox="0 0 20 19" fill="none" xmlns="http://www.w3.org/2000/svg">
<path d="M8.77077 0.990585C9.10084 0.206588 10.2251 0.206589 10.5551 0.990587L12.5032 5.61788C12.6425 5.94839 12.9571 6.17422 13.3183 6.20282L18.3749 6.60332C19.2316 6.67117 19.579 7.72743 18.9263 8.27982L15.0737 11.5401C14.7985 11.773 14.6783 12.1384 14.7624 12.4866L15.9394 17.3614C16.1388 18.1873 15.2294 18.8402 14.4958 18.3976L10.1666 15.7852C9.8574 15.5986 9.4685 15.5986 9.15928 15.7852L4.83005 18.3976C4.09654 18.8402 3.18705 18.1873 3.38647 17.3614L4.56352 12.4866C4.64759 12.1384 4.52741 11.773 4.25224 11.5401L0.399571 8.27982C-0.253181 7.72743 0.0942204 6.67117 0.950969 6.60332L6.00765 6.20282C6.36884 6.17422 6.68347 5.94839 6.82262 5.61788L8.77077 0.990585Z" fill="#42A8DF"/>
</svg>
