<svg width="20" height="19" viewBox="0 0 20 19" fill="none" xmlns="http://www.w3.org/2000/svg">
<path d="M9.37819 0.990585C9.70827 0.206588 10.8325 0.206589 11.1625 0.990587L13.1107 5.61788C13.2499 5.94839 13.5645 6.17422 13.9257 6.20282L18.9823 6.60332C19.8391 6.67117 20.1864 7.72743 19.5337 8.27982L15.6811 11.5401C15.4059 11.773 15.2857 12.1384 15.3698 12.4866L16.5468 17.3614C16.7462 18.1873 15.8368 18.8402 15.1033 18.3976L10.774 15.7852C10.4648 15.5986 10.0759 15.5986 9.7667 15.7852L5.43747 18.3976C4.70396 18.8402 3.79447 18.1873 3.99389 17.3614L5.17094 12.4866C5.25501 12.1384 5.13483 11.773 4.85966 11.5401L1.00699 8.27982C0.354241 7.72743 0.701642 6.67117 1.55839 6.60332L6.61508 6.20282C6.97627 6.17422 7.29089 5.94839 7.43004 5.61788L9.37819 0.990585Z" fill="#42A8DF"/>
</svg>
