<svg width="20" height="19" viewBox="0 0 20 19" fill="none" xmlns="http://www.w3.org/2000/svg">
<path d="M8.90749 0.990585C9.23756 0.206588 10.3618 0.206589 10.6918 0.990587L12.6399 5.61788C12.7792 5.94839 13.0938 6.17422 13.455 6.20282L18.5116 6.60332C19.3684 6.67117 19.7157 7.72743 19.063 8.27982L15.2104 11.5401C14.9352 11.773 14.815 12.1384 14.8991 12.4866L16.0761 17.3614C16.2755 18.1873 15.3661 18.8402 14.6326 18.3976L10.3033 15.7852C9.99412 15.5986 9.60522 15.5986 9.296 15.7852L4.96677 18.3976C4.23326 18.8402 3.32376 18.1873 3.52319 17.3614L4.70024 12.4866C4.78431 12.1384 4.66413 11.773 4.38896 11.5401L0.53629 8.27982C-0.116462 7.72743 0.230939 6.67117 1.08769 6.60332L6.14437 6.20282C6.50556 6.17422 6.82019 5.94839 6.95934 5.61788L8.90749 0.990585Z" fill="#42A8DF"/>
</svg>
