<svg width="20" height="19" viewBox="0 0 20 19" fill="none" xmlns="http://www.w3.org/2000/svg">
<path d="M8.95338 0.990585C9.28346 0.206588 10.4077 0.206589 10.7377 0.990587L12.6858 5.61788C12.8251 5.94839 13.1397 6.17422 13.5009 6.20282L18.5575 6.60332C19.4142 6.67117 19.7616 7.72743 19.1089 8.27982L15.2563 11.5401C14.9811 11.773 14.8609 12.1384 14.945 12.4866L16.122 17.3614C16.3214 18.1873 15.412 18.8402 14.6785 18.3976L10.3492 15.7852C10.04 15.5986 9.65112 15.5986 9.3419 15.7852L5.01267 18.3976C4.27916 18.8402 3.36966 18.1873 3.56908 17.3614L4.74614 12.4866C4.83021 12.1384 4.71003 11.773 4.43486 11.5401L0.582189 8.27982C-0.0705634 7.72743 0.276838 6.67117 1.13359 6.60332L6.19027 6.20282C6.55146 6.17422 6.86609 5.94839 7.00524 5.61788L8.95338 0.990585Z" fill="#42A8DF"/>
</svg>
