<svg width="21" height="19" viewBox="0 0 21 19" fill="none" xmlns="http://www.w3.org/2000/svg">
<path d="M9.52956 0.990585C9.85963 0.206588 10.9838 0.206589 11.3139 0.990587L13.262 5.61788C13.4013 5.94839 13.7159 6.17422 14.077 6.20282L19.1337 6.60332C19.9904 6.67117 20.3378 7.72743 19.6851 8.27982L15.8325 11.5401C15.5573 11.773 15.4371 12.1384 15.5211 12.4866L16.6982 17.3614C16.8976 18.1873 15.9881 18.8402 15.2546 18.3976L10.9254 15.7852C10.6162 15.5986 10.2273 15.5986 9.91807 15.7852L5.58884 18.3976C4.85533 18.8402 3.94583 18.1873 4.14526 17.3614L5.32231 12.4866C5.40638 12.1384 5.2862 11.773 5.01103 11.5401L1.15836 8.27982C0.505608 7.72743 0.85301 6.67117 1.70976 6.60332L6.76644 6.20282C7.12763 6.17422 7.44226 5.94839 7.58141 5.61788L9.52956 0.990585Z" fill="#42A8DF"/>
</svg>
