<svg width="20" height="19" viewBox="0 0 20 19" fill="none" xmlns="http://www.w3.org/2000/svg">
<path d="M9.33229 0.990585C9.66237 0.206588 10.7866 0.206589 11.1167 0.990587L13.0648 5.61788C13.204 5.94839 13.5186 6.17422 13.8798 6.20282L18.9364 6.60332C19.7932 6.67117 20.1405 7.72743 19.4878 8.27982L15.6352 11.5401C15.36 11.773 15.2398 12.1384 15.3239 12.4866L16.5009 17.3614C16.7003 18.1873 15.7909 18.8402 15.0574 18.3976L10.7281 15.7852C10.4189 15.5986 10.03 15.5986 9.7208 15.7852L5.39157 18.3976C4.65807 18.8402 3.74857 18.1873 3.94799 17.3614L5.12504 12.4866C5.20912 12.1384 5.08894 11.773 4.81376 11.5401L0.961095 8.27982C0.308343 7.72743 0.655744 6.67117 1.51249 6.60332L6.56918 6.20282C6.93037 6.17422 7.245 5.94839 7.38414 5.61788L9.33229 0.990585Z" fill="#42A8DF"/>
</svg>
