<svg width="20" height="19" viewBox="0 0 20 19" fill="none" xmlns="http://www.w3.org/2000/svg">
<path d="M9.43776 0.990585C9.76784 0.206588 10.892 0.206589 11.2221 0.990587L13.1702 5.61788C13.3095 5.94839 13.6241 6.17422 13.9853 6.20282L19.0419 6.60332C19.8986 6.67117 20.246 7.72743 19.5933 8.27982L15.7407 11.5401C15.4655 11.773 15.3453 12.1384 15.4293 12.4866L16.6064 17.3614C16.8058 18.1873 15.8963 18.8402 15.1628 18.3976L10.8336 15.7852C10.5244 15.5986 10.1355 15.5986 9.82627 15.7852L5.49704 18.3976C4.76353 18.8402 3.85404 18.1873 4.05346 17.3614L5.23051 12.4866C5.31458 12.1384 5.19441 11.773 4.91923 11.5401L1.06656 8.27982C0.413812 7.72743 0.761213 6.67117 1.61796 6.60332L6.67465 6.20282C7.03584 6.17422 7.35046 5.94839 7.48961 5.61788L9.43776 0.990585Z" fill="#42A8DF"/>
</svg>
