<svg width="20" height="19" viewBox="0 0 20 19" fill="none" xmlns="http://www.w3.org/2000/svg">
<path d="M9.46901 0.990585C9.79909 0.206588 10.9233 0.206589 11.2534 0.990587L13.2015 5.61788C13.3407 5.94839 13.6553 6.17422 14.0165 6.20282L19.0731 6.60332C19.9299 6.67117 20.2773 7.72743 19.6245 8.27982L15.7719 11.5401C15.4968 11.773 15.3765 12.1384 15.4606 12.4866L16.6376 17.3614C16.837 18.1873 15.9276 18.8402 15.1941 18.3976L10.8649 15.7852C10.5556 15.5986 10.1667 15.5986 9.85752 15.7852L5.52829 18.3976C4.79478 18.8402 3.88529 18.1873 4.08471 17.3614L5.26176 12.4866C5.34583 12.1384 5.22566 11.773 4.95048 11.5401L1.09781 8.27982C0.445062 7.72743 0.792463 6.67117 1.64921 6.60332L6.7059 6.20282C7.06709 6.17422 7.38171 5.94839 7.52086 5.61788L9.46901 0.990585Z" fill="#42A8DF"/>
</svg>
