<svg width="20" height="19" viewBox="0 0 20 19" fill="none" xmlns="http://www.w3.org/2000/svg">
<path d="M9.42311 0.990585C9.75319 0.206588 10.8774 0.206589 11.2075 0.990587L13.1556 5.61788C13.2948 5.94839 13.6094 6.17422 13.9706 6.20282L19.0272 6.60332C19.884 6.67117 20.2314 7.72743 19.5786 8.27982L15.726 11.5401C15.4509 11.773 15.3306 12.1384 15.4147 12.4866L16.5917 17.3614C16.7912 18.1873 15.8817 18.8402 15.1482 18.3976L10.819 15.7852C10.5097 15.5986 10.1208 15.5986 9.81162 15.7852L5.48239 18.3976C4.74889 18.8402 3.83939 18.1873 4.03881 17.3614L5.21586 12.4866C5.29994 12.1384 5.17976 11.773 4.90458 11.5401L1.05192 8.27982C0.399163 7.72743 0.746564 6.67117 1.60331 6.60332L6.66 6.20282C7.02119 6.17422 7.33582 5.94839 7.47497 5.61788L9.42311 0.990585Z" fill="#42A8DF"/>
</svg>
