<svg width="20" height="19" viewBox="0 0 20 19" fill="none" xmlns="http://www.w3.org/2000/svg">
<path d="M8.86256 0.990829C9.19264 0.206832 10.3168 0.206833 10.6469 0.990831L12.595 5.61812C12.7343 5.94864 13.0489 6.17446 13.4101 6.20307L18.4667 6.60356C19.3234 6.67142 19.6708 7.72767 19.0181 8.28007L15.1655 11.5403C14.8903 11.7732 14.7701 12.1387 14.8542 12.4868L16.0312 17.3616C16.2306 18.1875 15.3211 18.8404 14.5876 18.3978L10.2584 15.7855C9.94919 15.5988 9.5603 15.5988 9.25108 15.7855L4.92185 18.3978C4.18834 18.8404 3.27884 18.1875 3.47826 17.3616L4.65531 12.4868C4.73939 12.1387 4.61921 11.7732 4.34404 11.5403L0.491368 8.28007C-0.161384 7.72767 0.186017 6.67142 1.04277 6.60356L6.09945 6.20307C6.46064 6.17446 6.77527 5.94864 6.91442 5.61812L8.86256 0.990829Z" fill="#42A8DF"/>
</svg>
