<svg width="21" height="19" viewBox="0 0 21 19" fill="none" xmlns="http://www.w3.org/2000/svg">
<path d="M9.62038 0.990585C9.95045 0.206588 11.0747 0.206589 11.4047 0.990587L13.3528 5.61788C13.4921 5.94839 13.8067 6.17422 14.1679 6.20282L19.2245 6.60332C20.0812 6.67117 20.4286 7.72743 19.7759 8.27982L15.9233 11.5401C15.6481 11.773 15.5279 12.1384 15.612 12.4866L16.789 17.3614C16.9884 18.1873 16.079 18.8402 15.3454 18.3976L11.0162 15.7852C10.707 15.5986 10.3181 15.5986 10.0089 15.7852L5.67966 18.3976C4.94615 18.8402 4.03666 18.1873 4.23608 17.3614L5.41313 12.4866C5.4972 12.1384 5.37702 11.773 5.10185 11.5401L1.24918 8.27982C0.596429 7.72743 0.94383 6.67117 1.80058 6.60332L6.85726 6.20282C7.21845 6.17422 7.53308 5.94839 7.67223 5.61788L9.62038 0.990585Z" fill="#42A8DF"/>
</svg>
