<svg width="20" height="19" viewBox="0 0 20 19" fill="none" xmlns="http://www.w3.org/2000/svg">
<path d="M8.81667 0.990585C9.14674 0.206588 10.2709 0.206589 10.601 0.990587L12.5491 5.61788C12.6884 5.94839 13.003 6.17422 13.3642 6.20282L18.4208 6.60332C19.2775 6.67117 19.6249 7.72743 18.9722 8.27982L15.1196 11.5401C14.8444 11.773 14.7242 12.1384 14.8083 12.4866L15.9853 17.3614C16.1847 18.1873 15.2753 18.8402 14.5417 18.3976L10.2125 15.7852C9.90329 15.5986 9.5144 15.5986 9.20518 15.7852L4.87595 18.3976C4.14244 18.8402 3.23294 18.1873 3.43236 17.3614L4.60942 12.4866C4.69349 12.1384 4.57331 11.773 4.29814 11.5401L0.44547 8.27982C-0.207282 7.72743 0.140119 6.67117 0.996867 6.60332L6.05355 6.20282C6.41474 6.17422 6.72937 5.94839 6.86852 5.61788L8.81667 0.990585Z" fill="#42A8DF"/>
</svg>
