<svg width="260" height="66" viewBox="0 0 260 66" fill="none" xmlns="http://www.w3.org/2000/svg">
<g clip-path="url(#clip0_3_464)">
<path d="M83.954 25.985C83.954 21.349 79.4185 16.4252 71.57 16.4252C62.7564 16.4252 53.0744 22.8517 51.5947 35.6726C50.0829 48.6215 58.1888 54.3765 66.359 54.3765C74.5293 54.3765 78.8074 51.2113 83.182 46.9909C79.4185 42.2909 74.5614 44.4651 73.6286 44.9447C72.5993 45.4562 71.2805 46.1596 68.5785 46.1596C65.4262 46.1596 62.2096 44.7528 62.2096 38.9019C82.41 36.9196 83.954 30.621 83.954 25.985ZM73.9503 26.7523C73.8216 28.1911 73.2426 30.653 63.0137 32.0278C65.1689 24.4183 69.2862 23.8428 71.184 23.8428C72.9531 23.8428 74.0789 25.2177 73.9503 26.7523ZM39.7254 27.9993C39.7254 27.9993 35.3829 41.5556 35.0291 42.6746C34.9004 41.5236 31.7159 17.1926 31.7159 17.1926C24.3177 17.1926 20.3613 22.4361 18.2704 27.9673C18.2704 27.9673 12.9952 41.5556 12.5448 42.7066C12.5127 41.6515 11.7407 28.1271 11.7407 28.1271C11.2904 21.349 5.05011 17.2245 0 17.2245L6.11159 54.0888C13.8637 54.0568 18.0453 48.8453 20.2326 43.3141C20.2326 43.3141 24.8967 31.3244 25.0897 30.7809C25.1219 31.2924 28.435 54.0888 28.435 54.0888C36.2192 54.0888 40.4008 49.197 42.6525 43.8576L53.5568 17.2245C45.8691 17.2245 41.8162 22.4361 39.7254 27.9993ZM112.518 16.3613C107.725 16.3613 104.058 18.9511 100.97 22.7558V22.7238L103.736 0.566895C97.3673 0.566895 92.1885 6.06616 91.1914 14.2511L86.3664 53.801C90.0334 53.801 93.9255 52.7459 96.0163 50.0603C97.882 52.4582 100.68 54.3765 104.83 54.3765C115.573 54.3765 122.94 41.9712 122.94 30.3332C122.875 19.7184 117.696 16.3613 112.518 16.3613ZM111.52 35.3849C110.395 41.8753 106.76 46.2875 103.254 46.2875C99.7155 46.2875 98.2036 44.7209 98.2036 44.7209C98.8791 39.0298 99.2973 35.5448 100.584 32.5393C101.871 29.5339 104.926 24.7381 108.111 24.7381C111.231 24.7381 112.646 28.8625 111.52 35.3849ZM149.766 17.2245H142.271L142.304 16.8409C142.818 11.9811 143.976 9.42326 147.804 9.00762C150.41 8.75184 151.567 7.409 151.857 5.93827C152.082 4.78726 152.79 0.790702 152.79 0.790702C137.736 0.694784 133.008 7.15322 131.785 17.0007L131.753 17.2245H131.592C129.148 17.2245 126.446 19.9742 125.995 23.4592L125.834 24.7381H130.852L126.639 59.3323L125.352 65.5349C125.513 65.5349 125.706 65.5669 125.867 65.5669C132.911 65.3111 137.414 59.7799 138.411 51.7548L141.692 24.7381H144.041C146.357 24.7381 149.059 22.4361 149.541 18.5994L149.766 17.2245ZM188.752 16.5851C180.099 16.5851 171.929 22.9156 169.42 32.8591C166.911 42.8025 170.706 54.5684 183.444 54.5684C196.15 54.5684 203.484 42.3229 203.484 32.1237C203.484 21.9884 196.568 16.5851 188.752 16.5851ZM192.258 35.0652C191.808 39.5733 189.813 46.4154 184.345 46.4154C178.844 46.4154 179.616 38.4223 180.163 34.6176C180.742 30.5571 183.026 24.77 187.948 24.77C192.354 24.77 192.772 29.9816 192.258 35.0652ZM246.233 27.9993C246.233 27.9993 241.89 41.5556 241.537 42.6746C241.408 41.5236 238.223 17.1926 238.223 17.1926C230.825 17.1926 226.869 22.4361 224.778 27.9673C224.778 27.9673 219.503 41.5556 219.052 42.7066C219.02 41.6515 218.248 28.1271 218.248 28.1271C217.798 21.349 211.558 17.2245 206.507 17.2245L212.587 54.0888C220.339 54.0568 224.521 48.8453 226.708 43.3141C226.708 43.3141 231.372 31.3244 231.533 30.7809C231.597 31.2924 234.878 54.0888 234.878 54.0888C242.662 54.0888 246.844 49.197 249.096 43.8576L260 17.2245C252.344 17.2245 248.291 22.4361 246.233 27.9993ZM156.843 0.790702L150.538 51.3392L149.252 57.5738C149.412 57.5738 149.605 57.6057 149.766 57.6057C156.553 57.5098 161.378 51.5949 162.279 44.1453L165.914 15.1463C167.007 6.28996 161.7 0.790702 156.843 0.790702Z" fill="black"/>
</g>
<defs>
<clipPath id="clip0_3_464">
<rect width="260" height="65" fill="white" transform="translate(0 0.566895)"/>
</clipPath>
</defs>
</svg>
