<svg width="260" height="122" viewBox="0 0 260 122" fill="none" xmlns="http://www.w3.org/2000/svg">
<path fill-rule="evenodd" clip-rule="evenodd" d="M113.019 46.4926C109.089 42.5493 103.949 40.5776 98.7595 40.5776C93.62 40.5776 88.4301 42.5493 84.4998 46.4926C76.6394 54.3793 76.6394 67.1699 84.4998 75.1071C92.3603 82.9938 105.108 82.9938 113.019 75.1071C120.88 67.2204 120.88 54.3793 113.019 46.4926ZM107.325 69.3943C102.589 74.1465 94.9301 74.1465 90.244 69.3943C85.5076 64.6421 85.5076 56.9576 90.244 52.256C94.9805 47.5037 102.639 47.5037 107.325 52.256C112.011 56.9576 112.011 64.6421 107.325 69.3943Z" fill="#2D8CFF"/>
<path fill-rule="evenodd" clip-rule="evenodd" d="M155.344 46.4926C151.414 42.5493 146.275 40.5776 141.085 40.5776C135.945 40.5776 130.755 42.5493 126.825 46.4926C118.965 54.3793 118.965 67.1699 126.825 75.1071C134.686 82.9938 147.434 82.9938 155.344 75.1071C163.205 67.2204 163.205 54.3793 155.344 46.4926ZM149.651 69.3943C144.914 74.1465 137.255 74.1465 132.569 69.3943C127.833 64.6421 127.833 56.9576 132.569 52.256C137.306 47.5037 144.965 47.5037 149.651 52.256C154.337 56.9576 154.337 64.6421 149.651 69.3943Z" fill="#2D8CFF"/>
<path fill-rule="evenodd" clip-rule="evenodd" d="M48.3716 80.921L50.3871 81.0221H80.6196L80.5189 78.9999C80.2669 75.6632 77.8987 73.2365 74.5731 73.0343L72.5576 72.9332H54.4181L78.6041 48.6665L78.5034 46.6443C78.3522 43.3076 75.8832 40.8304 72.5576 40.6787L70.5421 40.5776H40.3096L40.4103 42.5999C40.6623 45.886 43.0809 48.3632 46.3561 48.5654L48.3716 48.6665H66.5111L42.3251 72.9332L42.4258 74.9554C42.6274 78.2921 45.046 80.7188 48.3716 80.921Z" fill="#2D8CFF"/>
<path fill-rule="evenodd" clip-rule="evenodd" d="M186.332 52.711C187.038 53.9243 187.239 55.2387 187.34 56.7554L187.441 58.7776V72.9332L187.542 74.9554C187.743 78.2415 190.162 80.7188 193.487 80.921L195.503 81.0221V58.7776L195.604 56.7554C195.705 55.2387 195.906 53.8737 196.611 52.6604C198.022 50.2337 200.592 48.6665 203.565 48.6665C206.538 48.6665 209.158 50.2843 210.569 52.711C211.274 53.9243 211.476 55.2893 211.526 56.7554L211.627 58.7776V72.9332L211.728 74.9554C211.929 78.2921 214.348 80.7188 217.673 80.921L219.689 81.0221V58.7776V56.7554C219.689 47.8071 212.484 40.5776 203.565 40.5776C198.728 40.5776 194.445 42.701 191.472 46.0376C188.499 42.701 184.216 40.5776 179.379 40.5776C176.053 40.5776 172.929 41.5887 170.36 43.3582C168.798 41.5887 165.27 40.5776 163.255 40.5776V81.0221L165.27 80.921C168.646 80.7188 171.065 78.2921 171.216 74.9554L171.317 72.9332V58.7776L171.418 56.7554C171.518 55.2387 171.72 53.8737 172.425 52.711C173.836 50.2843 176.406 48.6665 179.379 48.6665C182.352 48.6665 184.972 50.2843 186.332 52.711Z" fill="#2D8CFF"/>
</svg>
